  0
SECTION
  2
HEADER
  9
$ACADVER
  1
AC1014
  9
$HANDSEED
  5
FFFF
  9
$MEASUREMENT
 70
     1
  0
ENDSEC
  0
SECTION
  2
TABLES
  0
TABLE
  2
VPORT
  5
8
330
0
100
AcDbSymbolTable
 70
     4
  0
VPORT
  5
2E
330
8
100
AcDbSymbolTableRecord
100
AcDbViewportTableRecord
  2
*ACTIVE
 70
     0
 10
0.0
 20
0.0
 11
1.0
 21
1.0
 12
210.0
 22
148.5
 13
0.0
 23
0.0
 14
10.0
 24
10.0
 15
10.0
 25
10.0
 16
0.0
 26
0.0
 36
1.0
 17
0.0
 27
0.0
 37
0.0
 40
341.0
 41
1.24
 42
50.0
 43
0.0
 44
0.0
 50
0.0
 51
0.0
 71
     0
 72
   100
 73
     1
 74
     3
 75
     0
 76
     0
 77
     0
 78
     0
  0
ENDTAB
  0
TABLE
  2
LTYPE
  5
5
330
0
100
AcDbSymbolTable
 70
     1
  0
LTYPE
  5
14
330
5
100
AcDbSymbolTableRecord
100
AcDbLinetypeTableRecord
  2
BYBLOCK
 70
     0
  3

 72
    65
 73
     0
 40
0.0
  0
LTYPE
  5
15
330
5
100
AcDbSymbolTableRecord
100
AcDbLinetypeTableRecord
  2
BYLAYER
 70
     0
  3

 72
    65
 73
     0
 40
0.0
  0
LTYPE
  5
16
330
5
100
AcDbSymbolTableRecord
100
AcDbLinetypeTableRecord
  2
CONTINUOUS
 70
     0
  3
Solid line
 72
    65
 73
     0
 40
0.0
  0
ENDTAB
  0
TABLE
  2
LAYER
  5
2
100
AcDbSymbolTable
 70
1
  0
LAYER
  5
50
100
AcDbSymbolTableRecord
100
AcDbLayerTableRecord
  2
0
 70
0
  6
CONTINUOUS
  0
ENDTAB
  0
TABLE
  2
STYLE
  5
3
330
0
100
AcDbSymbolTable
 70
     1
  0
STYLE
  5
11
330
3
100
AcDbSymbolTableRecord
100
AcDbTextStyleTableRecord
  2
STANDARD
 70
     0
 40
0.0
 41
1.0
 50
0.0
 71
     0
 42
2.5
  3
txt
  4

  0
ENDTAB
  0
TABLE
  2
VIEW
  5
6
330
0
100
AcDbSymbolTable
 70
     0
  0
ENDTAB
  0
TABLE
  2
UCS
  5
7
330
0
100
AcDbSymbolTable
 70
     0
  0
ENDTAB
  0
TABLE
  2
APPID
  5
9
330
0
100
AcDbSymbolTable
 70
     2
  0
APPID
  5
12
330
9
100
AcDbSymbolTableRecord
100
AcDbRegAppTableRecord
  2
ACAD
 70
     0
  0
ENDTAB
  0
TABLE
  2
DIMSTYLE
  5
A
330
0
100
AcDbSymbolTable
 70
     1
  0
DIMSTYLE
105
27
330
A
100
AcDbSymbolTableRecord
100
AcDbDimStyleTableRecord
  2
ISO-25
 70
     0
  3

  4

  5

  6

  7

 40
1.0
 41
2.5
 42
0.625
 43
3.75
 44
1.25
 45
0.0
 46
0.0
 47
0.0
 48
0.0
140
2.5
141
2.5
142
0.0
143
0.03937007874016
144
1.0
145
0.0
146
1.0
147
0.625
 71
     0
 72
     0
 73
     0
 74
     0
 75
     0
 76
     0
 77
     1
 78
     8
170
     0
171
     3
172
     1
173
     0
174
     0
175
     0
176
     0
177
     0
178
     0
270
     2
271
     2
272
     2
273
     2
274
     3
340
11
275
     0
280
     0
281
     0
282
     0
283
     0
284
     8
285
     0
286
     0
287
     3
288
     0
  0
ENDTAB
  0
TABLE
  2
BLOCK_RECORD
  5
1
330
0
100
AcDbSymbolTable
 70
     1
  0
BLOCK_RECORD
  5
1F
330
1
100
AcDbSymbolTableRecord
100
AcDbBlockTableRecord
  2
*MODEL_SPACE
  0
BLOCK_RECORD
  5
1B
330
1
100
AcDbSymbolTableRecord
100
AcDbBlockTableRecord
  2
*PAPER_SPACE
  0
ENDTAB
  0
ENDSEC
  0
SECTION
  2
BLOCKS
  0
BLOCK
  5
20
330
1F
100
AcDbEntity
  8
0
100
AcDbBlockBegin
  2
*MODEL_SPACE
 70
     0
 10
0.0
 20
0.0
 30
0.0
  3
*MODEL_SPACE
  1

  0
ENDBLK
  5
21
330
1F
100
AcDbEntity
  8
0
100
AcDbBlockEnd
  0
BLOCK
  5
1C
330
1B
100
AcDbEntity
 67
     1
  8
0
100
AcDbBlockBegin
  2
*PAPER_SPACE
  1

  0
ENDBLK
  5
1D
330
1B
100
AcDbEntity
 67
     1
  8
0
100
AcDbBlockEnd
  0
ENDSEC
  0
SECTION
  2
ENTITIES
  0
LWPOLYLINE
  5
100
100
AcDbEntity
  8
0
 62
7
100
AcDbPolyline
 90
2
 70
0
 10
51.700676
 20
139.709566
 30
0.0
 10
51.700676
 20
59.709567
 30
0.0
  0
LWPOLYLINE
  5
101
100
AcDbEntity
  8
0
 62
7
100
AcDbPolyline
 90
2
 70
0
 10
31.700679
 20
59.709567
 30
0.0
 10
31.700679
 20
139.709566
 30
0.0
  0
LWPOLYLINE
  5
102
100
AcDbEntity
  8
0
 62
7
100
AcDbPolyline
 90
3
 70
0
 10
31.700679
 20
59.709567
 30
0.0
 10
41.700678
 20
49.709566
 30
0.0
 10
51.700676
 20
59.709567
 30
0.0
  0
LWPOLYLINE
  5
103
100
AcDbEntity
  8
0
 62
7
100
AcDbPolyline
 90
3
 70
0
 10
31.700679
 20
139.709566
 30
0.0
 10
41.700678
 20
149.709567
 30
0.0
 10
51.700676
 20
139.709566
 30
0.0
  0
LWPOLYLINE
  5
104
100
AcDbEntity
  8
0
 62
7
100
AcDbPolyline
 90
2
 70
0
 10
101.700677
 20
49.709566
 30
0.0
 10
111.700678
 20
59.709567
 30
0.0
  0
LWPOLYLINE
  5
105
100
AcDbEntity
  8
0
 62
7
100
AcDbPolyline
 90
3
 70
0
 10
101.700677
 20
149.709567
 30
0.0
 10
111.700678
 20
139.709566
 30
0.0
 10
111.700678
 20
59.709567
 30
0.0
  0
LWPOLYLINE
  5
106
100
AcDbEntity
  8
0
 62
7
100
AcDbPolyline
 90
2
 70
0
 10
91.700675
 20
59.709567
 30
0.0
 10
101.700677
 20
49.709566
 30
0.0
  0
LWPOLYLINE
  5
107
100
AcDbEntity
  8
0
 62
7
100
AcDbPolyline
 90
3
 70
0
 10
91.700675
 20
59.709567
 30
0.0
 10
91.700675
 20
139.709566
 30
0.0
 10
101.700677
 20
149.709567
 30
0.0
  0
LWPOLYLINE
  5
108
100
AcDbEntity
  8
0
 62
7
100
AcDbPolyline
 90
2
 70
0
 10
161.700678
 20
49.709566
 30
0.0
 10
171.700679
 20
59.709567
 30
0.0
  0
LWPOLYLINE
  5
109
100
AcDbEntity
  8
0
 62
7
100
AcDbPolyline
 90
3
 70
0
 10
161.700678
 20
149.709567
 30
0.0
 10
171.700679
 20
139.709566
 30
0.0
 10
171.700679
 20
59.709567
 30
0.0
  0
LWPOLYLINE
  5
10a
100
AcDbEntity
  8
0
 62
7
100
AcDbPolyline
 90
2
 70
0
 10
151.700677
 20
59.709567
 30
0.0
 10
161.700676
 20
49.709566
 30
0.0
  0
LWPOLYLINE
  5
10b
100
AcDbEntity
  8
0
 62
7
100
AcDbPolyline
 90
3
 70
0
 10
151.700677
 20
59.709567
 30
0.0
 10
151.700677
 20
139.709566
 30
0.0
 10
161.700676
 20
149.709567
 30
0.0
  0
LWPOLYLINE
  5
10c
100
AcDbEntity
  8
0
 62
7
100
AcDbPolyline
 90
2
 70
0
 10
41.700678
 20
149.709567
 30
0.0
 10
51.700676
 20
159.709566
 30
0.0
  0
LWPOLYLINE
  5
10d
100
AcDbEntity
  8
0
 62
7
100
AcDbPolyline
 90
3
 70
0
 10
41.700678
 20
249.709566
 30
0.0
 10
51.700676
 20
239.709567
 30
0.0
 10
51.700676
 20
159.709566
 30
0.0
  0
LWPOLYLINE
  5
10e
100
AcDbEntity
  8
0
 62
7
100
AcDbPolyline
 90
2
 70
0
 10
31.700679
 20
159.709566
 30
0.0
 10
41.700678
 20
149.709567
 30
0.0
  0
LWPOLYLINE
  5
10f
100
AcDbEntity
  8
0
 62
7
100
AcDbPolyline
 90
3
 70
0
 10
31.700679
 20
159.709566
 30
0.0
 10
31.700679
 20
239.709567
 30
0.0
 10
41.700678
 20
249.709566
 30
0.0
  0
LWPOLYLINE
  5
110
100
AcDbEntity
  8
0
 62
7
100
AcDbPolyline
 90
2
 70
0
 10
101.700677
 20
149.709567
 30
0.0
 10
111.700678
 20
159.709566
 30
0.0
  0
LWPOLYLINE
  5
111
100
AcDbEntity
  8
0
 62
7
100
AcDbPolyline
 90
3
 70
0
 10
101.700677
 20
249.709566
 30
0.0
 10
111.700678
 20
239.709567
 30
0.0
 10
111.700678
 20
159.709566
 30
0.0
  0
LWPOLYLINE
  5
112
100
AcDbEntity
  8
0
 62
7
100
AcDbPolyline
 90
2
 70
0
 10
91.700675
 20
159.709566
 30
0.0
 10
101.700677
 20
149.709567
 30
0.0
  0
LWPOLYLINE
  5
113
100
AcDbEntity
  8
0
 62
7
100
AcDbPolyline
 90
3
 70
0
 10
91.700675
 20
159.709566
 30
0.0
 10
91.700675
 20
239.709567
 30
0.0
 10
101.700677
 20
249.709566
 30
0.0
  0
LWPOLYLINE
  5
114
100
AcDbEntity
  8
0
 62
7
100
AcDbPolyline
 90
2
 70
0
 10
161.700678
 20
149.709567
 30
0.0
 10
171.700679
 20
159.709566
 30
0.0
  0
LWPOLYLINE
  5
115
100
AcDbEntity
  8
0
 62
7
100
AcDbPolyline
 90
3
 70
0
 10
161.700678
 20
249.709566
 30
0.0
 10
171.700679
 20
239.709567
 30
0.0
 10
171.700679
 20
159.709566
 30
0.0
  0
LWPOLYLINE
  5
116
100
AcDbEntity
  8
0
 62
7
100
AcDbPolyline
 90
2
 70
0
 10
151.700677
 20
159.709566
 30
0.0
 10
161.700676
 20
149.709567
 30
0.0
  0
LWPOLYLINE
  5
117
100
AcDbEntity
  8
0
 62
7
100
AcDbPolyline
 90
3
 70
0
 10
151.700677
 20
159.709566
 30
0.0
 10
151.700677
 20
239.709567
 30
0.0
 10
161.700676
 20
249.709566
 30
0.0
  0
LWPOLYLINE
  5
118
100
AcDbEntity
  8
0
 62
7
100
AcDbPolyline
 90
2
 70
0
 10
51.700676
 20
59.709567
 30
0.0
 10
91.700675
 20
59.709567
 30
0.0
  0
LWPOLYLINE
  5
119
100
AcDbEntity
  8
0
 62
7
100
AcDbPolyline
 90
2
 70
0
 10
91.700675
 20
39.709557
 30
0.0
 10
51.700676
 20
39.709557
 30
0.0
  0
LWPOLYLINE
  5
11a
100
AcDbEntity
  8
0
 62
7
100
AcDbPolyline
 90
2
 70
0
 10
41.700678
 20
49.709566
 30
0.0
 10
51.700676
 20
39.709557
 30
0.0
  0
LWPOLYLINE
  5
11b
100
AcDbEntity
  8
0
 62
7
100
AcDbPolyline
 90
2
 70
0
 10
91.700675
 20
39.709557
 30
0.0
 10
101.700677
 20
49.709566
 30
0.0
  0
LWPOLYLINE
  5
11c
100
AcDbEntity
  8
0
 62
7
100
AcDbPolyline
 90
2
 70
0
 10
111.700678
 20
59.709567
 30
0.0
 10
151.700677
 20
59.709567
 30
0.0
  0
LWPOLYLINE
  5
11d
100
AcDbEntity
  8
0
 62
7
100
AcDbPolyline
 90
2
 70
0
 10
151.700677
 20
39.709557
 30
0.0
 10
161.700676
 20
49.709566
 30
0.0
  0
LWPOLYLINE
  5
11e
100
AcDbEntity
  8
0
 62
7
100
AcDbPolyline
 90
2
 70
0
 10
151.700677
 20
39.709557
 30
0.0
 10
111.700678
 20
39.709557
 30
0.0
  0
LWPOLYLINE
  5
11f
100
AcDbEntity
  8
0
 62
7
100
AcDbPolyline
 90
2
 70
0
 10
101.700677
 20
49.709566
 30
0.0
 10
111.700678
 20
39.709557
 30
0.0
  0
LWPOLYLINE
  5
120
100
AcDbEntity
  8
0
 62
7
100
AcDbPolyline
 90
2
 70
0
 10
51.700676
 20
159.709566
 30
0.0
 10
91.700675
 20
159.709566
 30
0.0
  0
LWPOLYLINE
  5
121
100
AcDbEntity
  8
0
 62
7
100
AcDbPolyline
 90
2
 70
0
 10
91.700675
 20
139.709566
 30
0.0
 10
51.700676
 20
139.709566
 30
0.0
  0
LWPOLYLINE
  5
122
100
AcDbEntity
  8
0
 62
7
100
AcDbPolyline
 90
2
 70
0
 10
111.700678
 20
159.709566
 30
0.0
 10
151.700677
 20
159.709566
 30
0.0
  0
LWPOLYLINE
  5
123
100
AcDbEntity
  8
0
 62
7
100
AcDbPolyline
 90
2
 70
0
 10
151.700677
 20
139.709566
 30
0.0
 10
111.700678
 20
139.709566
 30
0.0
  0
LWPOLYLINE
  5
124
100
AcDbEntity
  8
0
 62
7
100
AcDbPolyline
 90
4
 70
0
 10
41.700678
 20
249.709566
 30
0.0
 10
51.700676
 20
259.709567
 30
0.0
 10
91.700675
 20
259.709567
 30
0.0
 10
101.700677
 20
249.709566
 30
0.0
  0
LWPOLYLINE
  5
125
100
AcDbEntity
  8
0
 62
7
100
AcDbPolyline
 90
2
 70
0
 10
91.700675
 20
239.709567
 30
0.0
 10
51.700676
 20
239.709567
 30
0.0
  0
LWPOLYLINE
  5
126
100
AcDbEntity
  8
0
 62
7
100
AcDbPolyline
 90
4
 70
0
 10
101.700677
 20
249.709566
 30
0.0
 10
111.700678
 20
259.709567
 30
0.0
 10
151.700680
 20
259.709567
 30
0.0
 10
161.700678
 20
249.709566
 30
0.0
  0
LWPOLYLINE
  5
127
100
AcDbEntity
  8
0
 62
7
100
AcDbPolyline
 90
2
 70
0
 10
151.700677
 20
239.709567
 30
0.0
 10
111.700678
 20
239.709567
 30
0.0
  0
LWPOLYLINE
  5
128
100
AcDbEntity
  8
0
 62
7
100
AcDbPolyline
 90
2
 70
0
 10
101.700677
 20
249.709566
 30
0.0
 10
111.700678
 20
239.709567
 30
0.0
  0
LWPOLYLINE
  5
129
100
AcDbEntity
  8
0
 62
7
100
AcDbPolyline
 90
2
 70
0
 10
51.700676
 20
218.960119
 30
0.0
 10
81.325953
 20
159.709566
 30
0.0
  0
LWPOLYLINE
  5
12a
100
AcDbEntity
  8
0
 62
7
100
AcDbPolyline
 90
2
 70
0
 10
91.700675
 20
183.681480
 30
0.0
 10
63.686632
 20
239.709567
 30
0.0
  0
LWPOLYLINE
  5
12b
100
AcDbEntity
  8
0
 62
7
100
AcDbPolyline
 90
2
 70
0
 10
111.700678
 20
183.681480
 30
0.0
 10
139.714724
 20
239.709567
 30
0.0
  0
LWPOLYLINE
  5
12c
100
AcDbEntity
  8
0
 62
7
100
AcDbPolyline
 90
2
 70
0
 10
151.700677
 20
218.960119
 30
0.0
 10
122.075400
 20
159.709566
 30
0.0
  0
LWPOLYLINE
  5
12d
100
AcDbEntity
  8
0
 62
7
100
AcDbPolyline
 90
2
 70
0
 10
151.700677
 20
80.459015
 30
0.0
 10
122.075400
 20
139.709566
 30
0.0
  0
LWPOLYLINE
  5
12e
100
AcDbEntity
  8
0
 62
7
100
AcDbPolyline
 90
2
 70
0
 10
111.700678
 20
115.737655
 30
0.0
 10
139.714724
 20
59.709567
 30
0.0
  0
LWPOLYLINE
  5
12f
100
AcDbEntity
  8
0
 62
7
100
AcDbPolyline
 90
2
 70
0
 10
91.700675
 20
115.737655
 30
0.0
 10
63.686632
 20
59.709567
 30
0.0
  0
SPLINE
  5
130
100
AcDbEntity
  8
0
 62
5
100
AcDbSpline
 70
8
 71
3
 72
8
 73
4
 74
0
 40
0
 40
0
 40
0
 40
0
 40
1
 40
1
 40
1
 40
1
 10
47.350691
 20
99.709569
 30
0.0
 10
47.351220
 20
101.728533
 30
0.0
 10
46.274559
 20
103.594393
 30
0.0
 10
44.526189
 20
104.604054
 30
0.0
  0
SPLINE
  5
131
100
AcDbEntity
  8
0
 62
5
100
AcDbSpline
 70
8
 71
3
 72
8
 73
4
 74
0
 40
0
 40
0
 40
0
 40
0
 40
1
 40
1
 40
1
 40
1
 10
44.526189
 20
104.604054
 30
0.0
 10
42.777820
 20
105.613712
 30
0.0
 10
40.623561
 20
105.613712
 30
0.0
 10
38.875192
 20
104.604054
 30
0.0
  0
SPLINE
  5
132
100
AcDbEntity
  8
0
 62
5
100
AcDbSpline
 70
8
 71
3
 72
8
 73
4
 74
0
 40
0
 40
0
 40
0
 40
0
 40
1
 40
1
 40
1
 40
1
 10
38.875192
 20
104.604054
 30
0.0
 10
37.126823
 20
103.594393
 30
0.0
 10
36.050074
 20
101.728533
 30
0.0
 10
36.050691
 20
99.709569
 30
0.0
  0
SPLINE
  5
133
100
AcDbEntity
  8
0
 62
5
100
AcDbSpline
 70
8
 71
3
 72
8
 73
4
 74
0
 40
0
 40
0
 40
0
 40
0
 40
1
 40
1
 40
1
 40
1
 10
36.050691
 20
99.709569
 30
0.0
 10
36.050162
 20
97.690608
 30
0.0
 10
37.126823
 20
95.824745
 30
0.0
 10
38.875192
 20
94.815085
 30
0.0
  0
SPLINE
  5
134
100
AcDbEntity
  8
0
 62
5
100
AcDbSpline
 70
8
 71
3
 72
8
 73
4
 74
0
 40
0
 40
0
 40
0
 40
0
 40
1
 40
1
 40
1
 40
1
 10
38.875192
 20
94.815085
 30
0.0
 10
40.623561
 20
93.805424
 30
0.0
 10
42.777820
 20
93.805424
 30
0.0
 10
44.526189
 20
94.815085
 30
0.0
  0
SPLINE
  5
135
100
AcDbEntity
  8
0
 62
5
100
AcDbSpline
 70
8
 71
3
 72
8
 73
4
 74
0
 40
0
 40
0
 40
0
 40
0
 40
1
 40
1
 40
1
 40
1
 10
44.526189
 20
94.815085
 30
0.0
 10
46.274559
 20
95.824745
 30
0.0
 10
47.351307
 20
97.690608
 30
0.0
 10
47.350691
 20
99.709569
 30
0.0
  0
SPLINE
  5
136
100
AcDbEntity
  8
0
 62
5
100
AcDbSpline
 70
8
 71
3
 72
8
 73
4
 74
0
 40
0
 40
0
 40
0
 40
0
 40
1
 40
1
 40
1
 40
1
 10
77.350691
 20
99.709569
 30
0.0
 10
77.351221
 20
101.728533
 30
0.0
 10
76.274560
 20
103.594393
 30
0.0
 10
74.526190
 20
104.604054
 30
0.0
  0
SPLINE
  5
137
100
AcDbEntity
  8
0
 62
5
100
AcDbSpline
 70
8
 71
3
 72
8
 73
4
 74
0
 40
0
 40
0
 40
0
 40
0
 40
1
 40
1
 40
1
 40
1
 10
74.526190
 20
104.604054
 30
0.0
 10
72.777821
 20
105.613712
 30
0.0
 10
70.623562
 20
105.613712
 30
0.0
 10
68.875193
 20
104.604054
 30
0.0
  0
SPLINE
  5
138
100
AcDbEntity
  8
0
 62
5
100
AcDbSpline
 70
8
 71
3
 72
8
 73
4
 74
0
 40
0
 40
0
 40
0
 40
0
 40
1
 40
1
 40
1
 40
1
 10
68.875193
 20
104.604054
 30
0.0
 10
67.126821
 20
103.594393
 30
0.0
 10
66.050073
 20
101.728533
 30
0.0
 10
66.050692
 20
99.709569
 30
0.0
  0
SPLINE
  5
139
100
AcDbEntity
  8
0
 62
5
100
AcDbSpline
 70
8
 71
3
 72
8
 73
4
 74
0
 40
0
 40
0
 40
0
 40
0
 40
1
 40
1
 40
1
 40
1
 10
66.050692
 20
99.709569
 30
0.0
 10
66.050163
 20
97.690608
 30
0.0
 10
67.126821
 20
95.824745
 30
0.0
 10
68.875193
 20
94.815085
 30
0.0
  0
SPLINE
  5
13a
100
AcDbEntity
  8
0
 62
5
100
AcDbSpline
 70
8
 71
3
 72
8
 73
4
 74
0
 40
0
 40
0
 40
0
 40
0
 40
1
 40
1
 40
1
 40
1
 10
68.875193
 20
94.815085
 30
0.0
 10
70.623562
 20
93.805424
 30
0.0
 10
72.777821
 20
93.805424
 30
0.0
 10
74.526190
 20
94.815085
 30
0.0
  0
SPLINE
  5
13b
100
AcDbEntity
  8
0
 62
5
100
AcDbSpline
 70
8
 71
3
 72
8
 73
4
 74
0
 40
0
 40
0
 40
0
 40
0
 40
1
 40
1
 40
1
 40
1
 10
74.526190
 20
94.815085
 30
0.0
 10
76.274560
 20
95.824745
 30
0.0
 10
77.351311
 20
97.690608
 30
0.0
 10
77.350691
 20
99.709569
 30
0.0
  0
SPLINE
  5
13c
100
AcDbEntity
  8
0
 62
5
100
AcDbSpline
 70
8
 71
3
 72
8
 73
4
 74
0
 40
0
 40
0
 40
0
 40
0
 40
1
 40
1
 40
1
 40
1
 10
107.350692
 20
99.709569
 30
0.0
 10
107.351221
 20
101.728533
 30
0.0
 10
106.274560
 20
103.594393
 30
0.0
 10
104.526191
 20
104.604054
 30
0.0
  0
SPLINE
  5
13d
100
AcDbEntity
  8
0
 62
5
100
AcDbSpline
 70
8
 71
3
 72
8
 73
4
 74
0
 40
0
 40
0
 40
0
 40
0
 40
1
 40
1
 40
1
 40
1
 10
104.526191
 20
104.604054
 30
0.0
 10
102.777822
 20
105.613712
 30
0.0
 10
100.623563
 20
105.613712
 30
0.0
 10
98.875194
 20
104.604054
 30
0.0
  0
SPLINE
  5
13e
100
AcDbEntity
  8
0
 62
5
100
AcDbSpline
 70
8
 71
3
 72
8
 73
4
 74
0
 40
0
 40
0
 40
0
 40
0
 40
1
 40
1
 40
1
 40
1
 10
98.875194
 20
104.604054
 30
0.0
 10
97.126825
 20
103.594393
 30
0.0
 10
96.050074
 20
101.728533
 30
0.0
 10
96.050693
 20
99.709569
 30
0.0
  0
SPLINE
  5
13f
100
AcDbEntity
  8
0
 62
5
100
AcDbSpline
 70
8
 71
3
 72
8
 73
4
 74
0
 40
0
 40
0
 40
0
 40
0
 40
1
 40
1
 40
1
 40
1
 10
96.050693
 20
99.709569
 30
0.0
 10
96.050164
 20
97.690608
 30
0.0
 10
97.126825
 20
95.824745
 30
0.0
 10
98.875194
 20
94.815085
 30
0.0
  0
SPLINE
  5
140
100
AcDbEntity
  8
0
 62
5
100
AcDbSpline
 70
8
 71
3
 72
8
 73
4
 74
0
 40
0
 40
0
 40
0
 40
0
 40
1
 40
1
 40
1
 40
1
 10
98.875194
 20
94.815085
 30
0.0
 10
100.623563
 20
93.805424
 30
0.0
 10
102.777822
 20
93.805424
 30
0.0
 10
104.526191
 20
94.815085
 30
0.0
  0
SPLINE
  5
141
100
AcDbEntity
  8
0
 62
5
100
AcDbSpline
 70
8
 71
3
 72
8
 73
4
 74
0
 40
0
 40
0
 40
0
 40
0
 40
1
 40
1
 40
1
 40
1
 10
104.526191
 20
94.815085
 30
0.0
 10
106.274560
 20
95.824745
 30
0.0
 10
107.351311
 20
97.690608
 30
0.0
 10
107.350692
 20
99.709569
 30
0.0
  0
SPLINE
  5
142
100
AcDbEntity
  8
0
 62
5
100
AcDbSpline
 70
8
 71
3
 72
8
 73
4
 74
0
 40
0
 40
0
 40
0
 40
0
 40
1
 40
1
 40
1
 40
1
 10
137.350691
 20
99.709569
 30
0.0
 10
137.351220
 20
101.728533
 30
0.0
 10
136.274559
 20
103.594393
 30
0.0
 10
134.526189
 20
104.604054
 30
0.0
  0
SPLINE
  5
143
100
AcDbEntity
  8
0
 62
5
100
AcDbSpline
 70
8
 71
3
 72
8
 73
4
 74
0
 40
0
 40
0
 40
0
 40
0
 40
1
 40
1
 40
1
 40
1
 10
134.526189
 20
104.604054
 30
0.0
 10
132.777820
 20
105.613712
 30
0.0
 10
130.623561
 20
105.613712
 30
0.0
 10
128.875192
 20
104.604054
 30
0.0
  0
SPLINE
  5
144
100
AcDbEntity
  8
0
 62
5
100
AcDbSpline
 70
8
 71
3
 72
8
 73
4
 74
0
 40
0
 40
0
 40
0
 40
0
 40
1
 40
1
 40
1
 40
1
 10
128.875192
 20
104.604054
 30
0.0
 10
127.126820
 20
103.594393
 30
0.0
 10
126.050074
 20
101.728533
 30
0.0
 10
126.050691
 20
99.709569
 30
0.0
  0
SPLINE
  5
145
100
AcDbEntity
  8
0
 62
5
100
AcDbSpline
 70
8
 71
3
 72
8
 73
4
 74
0
 40
0
 40
0
 40
0
 40
0
 40
1
 40
1
 40
1
 40
1
 10
126.050691
 20
99.709569
 30
0.0
 10
126.050162
 20
97.690608
 30
0.0
 10
127.126820
 20
95.824745
 30
0.0
 10
128.875192
 20
94.815085
 30
0.0
  0
SPLINE
  5
146
100
AcDbEntity
  8
0
 62
5
100
AcDbSpline
 70
8
 71
3
 72
8
 73
4
 74
0
 40
0
 40
0
 40
0
 40
0
 40
1
 40
1
 40
1
 40
1
 10
128.875192
 20
94.815085
 30
0.0
 10
130.623561
 20
93.805424
 30
0.0
 10
132.777820
 20
93.805424
 30
0.0
 10
134.526189
 20
94.815085
 30
0.0
  0
SPLINE
  5
147
100
AcDbEntity
  8
0
 62
5
100
AcDbSpline
 70
8
 71
3
 72
8
 73
4
 74
0
 40
0
 40
0
 40
0
 40
0
 40
1
 40
1
 40
1
 40
1
 10
134.526189
 20
94.815085
 30
0.0
 10
136.274559
 20
95.824745
 30
0.0
 10
137.351310
 20
97.690608
 30
0.0
 10
137.350691
 20
99.709569
 30
0.0
  0
SPLINE
  5
148
100
AcDbEntity
  8
0
 62
5
100
AcDbSpline
 70
8
 71
3
 72
8
 73
4
 74
0
 40
0
 40
0
 40
0
 40
0
 40
1
 40
1
 40
1
 40
1
 10
167.350691
 20
99.709569
 30
0.0
 10
167.351221
 20
101.728533
 30
0.0
 10
166.274560
 20
103.594393
 30
0.0
 10
164.526190
 20
104.604054
 30
0.0
  0
SPLINE
  5
149
100
AcDbEntity
  8
0
 62
5
100
AcDbSpline
 70
8
 71
3
 72
8
 73
4
 74
0
 40
0
 40
0
 40
0
 40
0
 40
1
 40
1
 40
1
 40
1
 10
164.526190
 20
104.604054
 30
0.0
 10
162.777821
 20
105.613712
 30
0.0
 10
160.623562
 20
105.613712
 30
0.0
 10
158.875193
 20
104.604054
 30
0.0
  0
SPLINE
  5
14a
100
AcDbEntity
  8
0
 62
5
100
AcDbSpline
 70
8
 71
3
 72
8
 73
4
 74
0
 40
0
 40
0
 40
0
 40
0
 40
1
 40
1
 40
1
 40
1
 10
158.875193
 20
104.604054
 30
0.0
 10
157.126824
 20
103.594393
 30
0.0
 10
156.050073
 20
101.728533
 30
0.0
 10
156.050692
 20
99.709569
 30
0.0
  0
SPLINE
  5
14b
100
AcDbEntity
  8
0
 62
5
100
AcDbSpline
 70
8
 71
3
 72
8
 73
4
 74
0
 40
0
 40
0
 40
0
 40
0
 40
1
 40
1
 40
1
 40
1
 10
156.050692
 20
99.709569
 30
0.0
 10
156.050163
 20
97.690608
 30
0.0
 10
157.126824
 20
95.824745
 30
0.0
 10
158.875193
 20
94.815085
 30
0.0
  0
SPLINE
  5
14c
100
AcDbEntity
  8
0
 62
5
100
AcDbSpline
 70
8
 71
3
 72
8
 73
4
 74
0
 40
0
 40
0
 40
0
 40
0
 40
1
 40
1
 40
1
 40
1
 10
158.875193
 20
94.815085
 30
0.0
 10
160.623562
 20
93.805424
 30
0.0
 10
162.777821
 20
93.805424
 30
0.0
 10
164.526190
 20
94.815085
 30
0.0
  0
SPLINE
  5
14d
100
AcDbEntity
  8
0
 62
5
100
AcDbSpline
 70
8
 71
3
 72
8
 73
4
 74
0
 40
0
 40
0
 40
0
 40
0
 40
1
 40
1
 40
1
 40
1
 10
164.526190
 20
94.815085
 30
0.0
 10
166.274560
 20
95.824745
 30
0.0
 10
167.351310
 20
97.690608
 30
0.0
 10
167.350691
 20
99.709569
 30
0.0
  0
SPLINE
  5
14e
100
AcDbEntity
  8
0
 62
5
100
AcDbSpline
 70
8
 71
3
 72
8
 73
4
 74
0
 40
0
 40
0
 40
0
 40
0
 40
1
 40
1
 40
1
 40
1
 10
47.350691
 20
199.709568
 30
0.0
 10
47.351220
 20
201.728529
 30
0.0
 10
46.274559
 20
203.594392
 30
0.0
 10
44.526189
 20
204.604052
 30
0.0
  0
SPLINE
  5
14f
100
AcDbEntity
  8
0
 62
5
100
AcDbSpline
 70
8
 71
3
 72
8
 73
4
 74
0
 40
0
 40
0
 40
0
 40
0
 40
1
 40
1
 40
1
 40
1
 10
44.526189
 20
204.604052
 30
0.0
 10
42.777820
 20
205.613713
 30
0.0
 10
40.623561
 20
205.613713
 30
0.0
 10
38.875192
 20
204.604052
 30
0.0
  0
SPLINE
  5
150
100
AcDbEntity
  8
0
 62
5
100
AcDbSpline
 70
8
 71
3
 72
8
 73
4
 74
0
 40
0
 40
0
 40
0
 40
0
 40
1
 40
1
 40
1
 40
1
 10
38.875192
 20
204.604052
 30
0.0
 10
37.126823
 20
203.594392
 30
0.0
 10
36.050074
 20
201.728529
 30
0.0
 10
36.050691
 20
199.709568
 30
0.0
  0
SPLINE
  5
151
100
AcDbEntity
  8
0
 62
5
100
AcDbSpline
 70
8
 71
3
 72
8
 73
4
 74
0
 40
0
 40
0
 40
0
 40
0
 40
1
 40
1
 40
1
 40
1
 10
36.050691
 20
199.709568
 30
0.0
 10
36.050162
 20
197.690606
 30
0.0
 10
37.126823
 20
195.824744
 30
0.0
 10
38.875192
 20
194.815083
 30
0.0
  0
SPLINE
  5
152
100
AcDbEntity
  8
0
 62
5
100
AcDbSpline
 70
8
 71
3
 72
8
 73
4
 74
0
 40
0
 40
0
 40
0
 40
0
 40
1
 40
1
 40
1
 40
1
 10
38.875192
 20
194.815083
 30
0.0
 10
40.623561
 20
193.805425
 30
0.0
 10
42.777820
 20
193.805425
 30
0.0
 10
44.526189
 20
194.815083
 30
0.0
  0
SPLINE
  5
153
100
AcDbEntity
  8
0
 62
5
100
AcDbSpline
 70
8
 71
3
 72
8
 73
4
 74
0
 40
0
 40
0
 40
0
 40
0
 40
1
 40
1
 40
1
 40
1
 10
44.526189
 20
194.815083
 30
0.0
 10
46.274559
 20
195.824744
 30
0.0
 10
47.351307
 20
197.690606
 30
0.0
 10
47.350691
 20
199.709568
 30
0.0
  0
SPLINE
  5
154
100
AcDbEntity
  8
0
 62
5
100
AcDbSpline
 70
8
 71
3
 72
8
 73
4
 74
0
 40
0
 40
0
 40
0
 40
0
 40
1
 40
1
 40
1
 40
1
 10
77.350691
 20
199.709568
 30
0.0
 10
77.351221
 20
201.728529
 30
0.0
 10
76.274560
 20
203.594392
 30
0.0
 10
74.526190
 20
204.604052
 30
0.0
  0
SPLINE
  5
155
100
AcDbEntity
  8
0
 62
5
100
AcDbSpline
 70
8
 71
3
 72
8
 73
4
 74
0
 40
0
 40
0
 40
0
 40
0
 40
1
 40
1
 40
1
 40
1
 10
74.526190
 20
204.604052
 30
0.0
 10
72.777821
 20
205.613713
 30
0.0
 10
70.623562
 20
205.613713
 30
0.0
 10
68.875193
 20
204.604052
 30
0.0
  0
SPLINE
  5
156
100
AcDbEntity
  8
0
 62
5
100
AcDbSpline
 70
8
 71
3
 72
8
 73
4
 74
0
 40
0
 40
0
 40
0
 40
0
 40
1
 40
1
 40
1
 40
1
 10
68.875193
 20
204.604052
 30
0.0
 10
67.126821
 20
203.594392
 30
0.0
 10
66.050073
 20
201.728529
 30
0.0
 10
66.050692
 20
199.709568
 30
0.0
  0
SPLINE
  5
157
100
AcDbEntity
  8
0
 62
5
100
AcDbSpline
 70
8
 71
3
 72
8
 73
4
 74
0
 40
0
 40
0
 40
0
 40
0
 40
1
 40
1
 40
1
 40
1
 10
66.050692
 20
199.709568
 30
0.0
 10
66.050163
 20
197.690606
 30
0.0
 10
67.126821
 20
195.824744
 30
0.0
 10
68.875193
 20
194.815083
 30
0.0
  0
SPLINE
  5
158
100
AcDbEntity
  8
0
 62
5
100
AcDbSpline
 70
8
 71
3
 72
8
 73
4
 74
0
 40
0
 40
0
 40
0
 40
0
 40
1
 40
1
 40
1
 40
1
 10
68.875193
 20
194.815083
 30
0.0
 10
70.623562
 20
193.805425
 30
0.0
 10
72.777821
 20
193.805425
 30
0.0
 10
74.526190
 20
194.815083
 30
0.0
  0
SPLINE
  5
159
100
AcDbEntity
  8
0
 62
5
100
AcDbSpline
 70
8
 71
3
 72
8
 73
4
 74
0
 40
0
 40
0
 40
0
 40
0
 40
1
 40
1
 40
1
 40
1
 10
74.526190
 20
194.815083
 30
0.0
 10
76.274560
 20
195.824744
 30
0.0
 10
77.351311
 20
197.690606
 30
0.0
 10
77.350691
 20
199.709568
 30
0.0
  0
SPLINE
  5
15a
100
AcDbEntity
  8
0
 62
5
100
AcDbSpline
 70
8
 71
3
 72
8
 73
4
 74
0
 40
0
 40
0
 40
0
 40
0
 40
1
 40
1
 40
1
 40
1
 10
107.350692
 20
199.709568
 30
0.0
 10
107.351221
 20
201.728529
 30
0.0
 10
106.274560
 20
203.594392
 30
0.0
 10
104.526191
 20
204.604052
 30
0.0
  0
SPLINE
  5
15b
100
AcDbEntity
  8
0
 62
5
100
AcDbSpline
 70
8
 71
3
 72
8
 73
4
 74
0
 40
0
 40
0
 40
0
 40
0
 40
1
 40
1
 40
1
 40
1
 10
104.526191
 20
204.604052
 30
0.0
 10
102.777822
 20
205.613713
 30
0.0
 10
100.623563
 20
205.613713
 30
0.0
 10
98.875194
 20
204.604052
 30
0.0
  0
SPLINE
  5
15c
100
AcDbEntity
  8
0
 62
5
100
AcDbSpline
 70
8
 71
3
 72
8
 73
4
 74
0
 40
0
 40
0
 40
0
 40
0
 40
1
 40
1
 40
1
 40
1
 10
98.875194
 20
204.604052
 30
0.0
 10
97.126825
 20
203.594392
 30
0.0
 10
96.050074
 20
201.728529
 30
0.0
 10
96.050693
 20
199.709568
 30
0.0
  0
SPLINE
  5
15d
100
AcDbEntity
  8
0
 62
5
100
AcDbSpline
 70
8
 71
3
 72
8
 73
4
 74
0
 40
0
 40
0
 40
0
 40
0
 40
1
 40
1
 40
1
 40
1
 10
96.050693
 20
199.709568
 30
0.0
 10
96.050164
 20
197.690606
 30
0.0
 10
97.126825
 20
195.824744
 30
0.0
 10
98.875194
 20
194.815083
 30
0.0
  0
SPLINE
  5
15e
100
AcDbEntity
  8
0
 62
5
100
AcDbSpline
 70
8
 71
3
 72
8
 73
4
 74
0
 40
0
 40
0
 40
0
 40
0
 40
1
 40
1
 40
1
 40
1
 10
98.875194
 20
194.815083
 30
0.0
 10
100.623563
 20
193.805425
 30
0.0
 10
102.777822
 20
193.805425
 30
0.0
 10
104.526191
 20
194.815083
 30
0.0
  0
SPLINE
  5
15f
100
AcDbEntity
  8
0
 62
5
100
AcDbSpline
 70
8
 71
3
 72
8
 73
4
 74
0
 40
0
 40
0
 40
0
 40
0
 40
1
 40
1
 40
1
 40
1
 10
104.526191
 20
194.815083
 30
0.0
 10
106.274560
 20
195.824744
 30
0.0
 10
107.351311
 20
197.690606
 30
0.0
 10
107.350692
 20
199.709568
 30
0.0
  0
SPLINE
  5
160
100
AcDbEntity
  8
0
 62
5
100
AcDbSpline
 70
8
 71
3
 72
8
 73
4
 74
0
 40
0
 40
0
 40
0
 40
0
 40
1
 40
1
 40
1
 40
1
 10
137.350691
 20
199.709568
 30
0.0
 10
137.351220
 20
201.728529
 30
0.0
 10
136.274559
 20
203.594392
 30
0.0
 10
134.526189
 20
204.604052
 30
0.0
  0
SPLINE
  5
161
100
AcDbEntity
  8
0
 62
5
100
AcDbSpline
 70
8
 71
3
 72
8
 73
4
 74
0
 40
0
 40
0
 40
0
 40
0
 40
1
 40
1
 40
1
 40
1
 10
134.526189
 20
204.604052
 30
0.0
 10
132.777820
 20
205.613713
 30
0.0
 10
130.623561
 20
205.613713
 30
0.0
 10
128.875192
 20
204.604052
 30
0.0
  0
SPLINE
  5
162
100
AcDbEntity
  8
0
 62
5
100
AcDbSpline
 70
8
 71
3
 72
8
 73
4
 74
0
 40
0
 40
0
 40
0
 40
0
 40
1
 40
1
 40
1
 40
1
 10
128.875192
 20
204.604052
 30
0.0
 10
127.126820
 20
203.594392
 30
0.0
 10
126.050074
 20
201.728529
 30
0.0
 10
126.050691
 20
199.709568
 30
0.0
  0
SPLINE
  5
163
100
AcDbEntity
  8
0
 62
5
100
AcDbSpline
 70
8
 71
3
 72
8
 73
4
 74
0
 40
0
 40
0
 40
0
 40
0
 40
1
 40
1
 40
1
 40
1
 10
126.050691
 20
199.709568
 30
0.0
 10
126.050162
 20
197.690606
 30
0.0
 10
127.126820
 20
195.824744
 30
0.0
 10
128.875192
 20
194.815083
 30
0.0
  0
SPLINE
  5
164
100
AcDbEntity
  8
0
 62
5
100
AcDbSpline
 70
8
 71
3
 72
8
 73
4
 74
0
 40
0
 40
0
 40
0
 40
0
 40
1
 40
1
 40
1
 40
1
 10
128.875192
 20
194.815083
 30
0.0
 10
130.623561
 20
193.805425
 30
0.0
 10
132.777820
 20
193.805425
 30
0.0
 10
134.526189
 20
194.815083
 30
0.0
  0
SPLINE
  5
165
100
AcDbEntity
  8
0
 62
5
100
AcDbSpline
 70
8
 71
3
 72
8
 73
4
 74
0
 40
0
 40
0
 40
0
 40
0
 40
1
 40
1
 40
1
 40
1
 10
134.526189
 20
194.815083
 30
0.0
 10
136.274559
 20
195.824744
 30
0.0
 10
137.351310
 20
197.690606
 30
0.0
 10
137.350691
 20
199.709568
 30
0.0
  0
SPLINE
  5
166
100
AcDbEntity
  8
0
 62
5
100
AcDbSpline
 70
8
 71
3
 72
8
 73
4
 74
0
 40
0
 40
0
 40
0
 40
0
 40
1
 40
1
 40
1
 40
1
 10
167.350691
 20
199.709568
 30
0.0
 10
167.351221
 20
201.728529
 30
0.0
 10
166.274560
 20
203.594392
 30
0.0
 10
164.526190
 20
204.604052
 30
0.0
  0
SPLINE
  5
167
100
AcDbEntity
  8
0
 62
5
100
AcDbSpline
 70
8
 71
3
 72
8
 73
4
 74
0
 40
0
 40
0
 40
0
 40
0
 40
1
 40
1
 40
1
 40
1
 10
164.526190
 20
204.604052
 30
0.0
 10
162.777821
 20
205.613713
 30
0.0
 10
160.623562
 20
205.613713
 30
0.0
 10
158.875193
 20
204.604052
 30
0.0
  0
SPLINE
  5
168
100
AcDbEntity
  8
0
 62
5
100
AcDbSpline
 70
8
 71
3
 72
8
 73
4
 74
0
 40
0
 40
0
 40
0
 40
0
 40
1
 40
1
 40
1
 40
1
 10
158.875193
 20
204.604052
 30
0.0
 10
157.126824
 20
203.594392
 30
0.0
 10
156.050073
 20
201.728529
 30
0.0
 10
156.050692
 20
199.709568
 30
0.0
  0
SPLINE
  5
169
100
AcDbEntity
  8
0
 62
5
100
AcDbSpline
 70
8
 71
3
 72
8
 73
4
 74
0
 40
0
 40
0
 40
0
 40
0
 40
1
 40
1
 40
1
 40
1
 10
156.050692
 20
199.709568
 30
0.0
 10
156.050163
 20
197.690606
 30
0.0
 10
157.126824
 20
195.824744
 30
0.0
 10
158.875193
 20
194.815083
 30
0.0
  0
SPLINE
  5
16a
100
AcDbEntity
  8
0
 62
5
100
AcDbSpline
 70
8
 71
3
 72
8
 73
4
 74
0
 40
0
 40
0
 40
0
 40
0
 40
1
 40
1
 40
1
 40
1
 10
158.875193
 20
194.815083
 30
0.0
 10
160.623562
 20
193.805425
 30
0.0
 10
162.777821
 20
193.805425
 30
0.0
 10
164.526190
 20
194.815083
 30
0.0
  0
SPLINE
  5
16b
100
AcDbEntity
  8
0
 62
5
100
AcDbSpline
 70
8
 71
3
 72
8
 73
4
 74
0
 40
0
 40
0
 40
0
 40
0
 40
1
 40
1
 40
1
 40
1
 10
164.526190
 20
194.815083
 30
0.0
 10
166.274560
 20
195.824744
 30
0.0
 10
167.351310
 20
197.690606
 30
0.0
 10
167.350691
 20
199.709568
 30
0.0
  0
SPLINE
  5
16c
100
AcDbEntity
  8
0
 62
5
100
AcDbSpline
 70
8
 71
3
 72
8
 73
4
 74
0
 40
0
 40
0
 40
0
 40
0
 40
1
 40
1
 40
1
 40
1
 10
77.350691
 20
49.709569
 30
0.0
 10
77.351221
 20
51.728530
 30
0.0
 10
76.274560
 20
53.594393
 30
0.0
 10
74.526190
 20
54.604054
 30
0.0
  0
SPLINE
  5
16d
100
AcDbEntity
  8
0
 62
5
100
AcDbSpline
 70
8
 71
3
 72
8
 73
4
 74
0
 40
0
 40
0
 40
0
 40
0
 40
1
 40
1
 40
1
 40
1
 10
74.526190
 20
54.604054
 30
0.0
 10
72.777821
 20
55.613714
 30
0.0
 10
70.623562
 20
55.613714
 30
0.0
 10
68.875193
 20
54.604054
 30
0.0
  0
SPLINE
  5
16e
100
AcDbEntity
  8
0
 62
5
100
AcDbSpline
 70
8
 71
3
 72
8
 73
4
 74
0
 40
0
 40
0
 40
0
 40
0
 40
1
 40
1
 40
1
 40
1
 10
68.875193
 20
54.604054
 30
0.0
 10
67.126821
 20
53.594393
 30
0.0
 10
66.050073
 20
51.728530
 30
0.0
 10
66.050692
 20
49.709569
 30
0.0
  0
SPLINE
  5
16f
100
AcDbEntity
  8
0
 62
5
100
AcDbSpline
 70
8
 71
3
 72
8
 73
4
 74
0
 40
0
 40
0
 40
0
 40
0
 40
1
 40
1
 40
1
 40
1
 10
66.050692
 20
49.709569
 30
0.0
 10
66.050163
 20
47.690605
 30
0.0
 10
67.126821
 20
45.824745
 30
0.0
 10
68.875193
 20
44.815084
 30
0.0
  0
SPLINE
  5
170
100
AcDbEntity
  8
0
 62
5
100
AcDbSpline
 70
8
 71
3
 72
8
 73
4
 74
0
 40
0
 40
0
 40
0
 40
0
 40
1
 40
1
 40
1
 40
1
 10
68.875193
 20
44.815084
 30
0.0
 10
70.623562
 20
43.805426
 30
0.0
 10
72.777821
 20
43.805426
 30
0.0
 10
74.526190
 20
44.815084
 30
0.0
  0
SPLINE
  5
171
100
AcDbEntity
  8
0
 62
5
100
AcDbSpline
 70
8
 71
3
 72
8
 73
4
 74
0
 40
0
 40
0
 40
0
 40
0
 40
1
 40
1
 40
1
 40
1
 10
74.526190
 20
44.815084
 30
0.0
 10
76.274560
 20
45.824745
 30
0.0
 10
77.351311
 20
47.690605
 30
0.0
 10
77.350691
 20
49.709569
 30
0.0
  0
SPLINE
  5
172
100
AcDbEntity
  8
0
 62
5
100
AcDbSpline
 70
8
 71
3
 72
8
 73
4
 74
0
 40
0
 40
0
 40
0
 40
0
 40
1
 40
1
 40
1
 40
1
 10
137.350691
 20
49.709569
 30
0.0
 10
137.351220
 20
51.728530
 30
0.0
 10
136.274559
 20
53.594393
 30
0.0
 10
134.526189
 20
54.604054
 30
0.0
  0
SPLINE
  5
173
100
AcDbEntity
  8
0
 62
5
100
AcDbSpline
 70
8
 71
3
 72
8
 73
4
 74
0
 40
0
 40
0
 40
0
 40
0
 40
1
 40
1
 40
1
 40
1
 10
134.526189
 20
54.604054
 30
0.0
 10
132.777820
 20
55.613714
 30
0.0
 10
130.623561
 20
55.613714
 30
0.0
 10
128.875192
 20
54.604054
 30
0.0
  0
SPLINE
  5
174
100
AcDbEntity
  8
0
 62
5
100
AcDbSpline
 70
8
 71
3
 72
8
 73
4
 74
0
 40
0
 40
0
 40
0
 40
0
 40
1
 40
1
 40
1
 40
1
 10
128.875192
 20
54.604054
 30
0.0
 10
127.126820
 20
53.594393
 30
0.0
 10
126.050074
 20
51.728530
 30
0.0
 10
126.050691
 20
49.709569
 30
0.0
  0
SPLINE
  5
175
100
AcDbEntity
  8
0
 62
5
100
AcDbSpline
 70
8
 71
3
 72
8
 73
4
 74
0
 40
0
 40
0
 40
0
 40
0
 40
1
 40
1
 40
1
 40
1
 10
126.050691
 20
49.709569
 30
0.0
 10
126.050162
 20
47.690605
 30
0.0
 10
127.126820
 20
45.824745
 30
0.0
 10
128.875192
 20
44.815084
 30
0.0
  0
SPLINE
  5
176
100
AcDbEntity
  8
0
 62
5
100
AcDbSpline
 70
8
 71
3
 72
8
 73
4
 74
0
 40
0
 40
0
 40
0
 40
0
 40
1
 40
1
 40
1
 40
1
 10
128.875192
 20
44.815084
 30
0.0
 10
130.623561
 20
43.805426
 30
0.0
 10
132.777820
 20
43.805426
 30
0.0
 10
134.526189
 20
44.815084
 30
0.0
  0
SPLINE
  5
177
100
AcDbEntity
  8
0
 62
5
100
AcDbSpline
 70
8
 71
3
 72
8
 73
4
 74
0
 40
0
 40
0
 40
0
 40
0
 40
1
 40
1
 40
1
 40
1
 10
134.526189
 20
44.815084
 30
0.0
 10
136.274559
 20
45.824745
 30
0.0
 10
137.351310
 20
47.690605
 30
0.0
 10
137.350691
 20
49.709569
 30
0.0
  0
SPLINE
  5
178
100
AcDbEntity
  8
0
 62
5
100
AcDbSpline
 70
8
 71
3
 72
8
 73
4
 74
0
 40
0
 40
0
 40
0
 40
0
 40
1
 40
1
 40
1
 40
1
 10
77.350691
 20
149.709567
 30
0.0
 10
77.351221
 20
151.728529
 30
0.0
 10
76.274560
 20
153.594391
 30
0.0
 10
74.526190
 20
154.604052
 30
0.0
  0
SPLINE
  5
179
100
AcDbEntity
  8
0
 62
5
100
AcDbSpline
 70
8
 71
3
 72
8
 73
4
 74
0
 40
0
 40
0
 40
0
 40
0
 40
1
 40
1
 40
1
 40
1
 10
74.526190
 20
154.604052
 30
0.0
 10
72.777821
 20
155.613710
 30
0.0
 10
70.623562
 20
155.613710
 30
0.0
 10
68.875193
 20
154.604052
 30
0.0
  0
SPLINE
  5
17a
100
AcDbEntity
  8
0
 62
5
100
AcDbSpline
 70
8
 71
3
 72
8
 73
4
 74
0
 40
0
 40
0
 40
0
 40
0
 40
1
 40
1
 40
1
 40
1
 10
68.875193
 20
154.604052
 30
0.0
 10
67.126821
 20
153.594391
 30
0.0
 10
66.050073
 20
151.728529
 30
0.0
 10
66.050692
 20
149.709567
 30
0.0
  0
SPLINE
  5
17b
100
AcDbEntity
  8
0
 62
5
100
AcDbSpline
 70
8
 71
3
 72
8
 73
4
 74
0
 40
0
 40
0
 40
0
 40
0
 40
1
 40
1
 40
1
 40
1
 10
66.050692
 20
149.709567
 30
0.0
 10
66.050163
 20
147.690606
 30
0.0
 10
67.126821
 20
145.824743
 30
0.0
 10
68.875193
 20
144.815082
 30
0.0
  0
SPLINE
  5
17c
100
AcDbEntity
  8
0
 62
5
100
AcDbSpline
 70
8
 71
3
 72
8
 73
4
 74
0
 40
0
 40
0
 40
0
 40
0
 40
1
 40
1
 40
1
 40
1
 10
68.875193
 20
144.815082
 30
0.0
 10
70.623562
 20
143.805422
 30
0.0
 10
72.777821
 20
143.805422
 30
0.0
 10
74.526190
 20
144.815082
 30
0.0
  0
SPLINE
  5
17d
100
AcDbEntity
  8
0
 62
5
100
AcDbSpline
 70
8
 71
3
 72
8
 73
4
 74
0
 40
0
 40
0
 40
0
 40
0
 40
1
 40
1
 40
1
 40
1
 10
74.526190
 20
144.815082
 30
0.0
 10
76.274560
 20
145.824743
 30
0.0
 10
77.351311
 20
147.690606
 30
0.0
 10
77.350691
 20
149.709567
 30
0.0
  0
SPLINE
  5
17e
100
AcDbEntity
  8
0
 62
5
100
AcDbSpline
 70
8
 71
3
 72
8
 73
4
 74
0
 40
0
 40
0
 40
0
 40
0
 40
1
 40
1
 40
1
 40
1
 10
137.350691
 20
149.709567
 30
0.0
 10
137.351220
 20
151.728529
 30
0.0
 10
136.274559
 20
153.594391
 30
0.0
 10
134.526189
 20
154.604052
 30
0.0
  0
SPLINE
  5
17f
100
AcDbEntity
  8
0
 62
5
100
AcDbSpline
 70
8
 71
3
 72
8
 73
4
 74
0
 40
0
 40
0
 40
0
 40
0
 40
1
 40
1
 40
1
 40
1
 10
134.526189
 20
154.604052
 30
0.0
 10
132.777820
 20
155.613710
 30
0.0
 10
130.623561
 20
155.613710
 30
0.0
 10
128.875192
 20
154.604052
 30
0.0
  0
SPLINE
  5
180
100
AcDbEntity
  8
0
 62
5
100
AcDbSpline
 70
8
 71
3
 72
8
 73
4
 74
0
 40
0
 40
0
 40
0
 40
0
 40
1
 40
1
 40
1
 40
1
 10
128.875192
 20
154.604052
 30
0.0
 10
127.126820
 20
153.594391
 30
0.0
 10
126.050074
 20
151.728529
 30
0.0
 10
126.050691
 20
149.709567
 30
0.0
  0
SPLINE
  5
181
100
AcDbEntity
  8
0
 62
5
100
AcDbSpline
 70
8
 71
3
 72
8
 73
4
 74
0
 40
0
 40
0
 40
0
 40
0
 40
1
 40
1
 40
1
 40
1
 10
126.050691
 20
149.709567
 30
0.0
 10
126.050162
 20
147.690606
 30
0.0
 10
127.126820
 20
145.824743
 30
0.0
 10
128.875192
 20
144.815082
 30
0.0
  0
SPLINE
  5
182
100
AcDbEntity
  8
0
 62
5
100
AcDbSpline
 70
8
 71
3
 72
8
 73
4
 74
0
 40
0
 40
0
 40
0
 40
0
 40
1
 40
1
 40
1
 40
1
 10
128.875192
 20
144.815082
 30
0.0
 10
130.623561
 20
143.805422
 30
0.0
 10
132.777820
 20
143.805422
 30
0.0
 10
134.526189
 20
144.815082
 30
0.0
  0
SPLINE
  5
183
100
AcDbEntity
  8
0
 62
5
100
AcDbSpline
 70
8
 71
3
 72
8
 73
4
 74
0
 40
0
 40
0
 40
0
 40
0
 40
1
 40
1
 40
1
 40
1
 10
134.526189
 20
144.815082
 30
0.0
 10
136.274559
 20
145.824743
 30
0.0
 10
137.351310
 20
147.690606
 30
0.0
 10
137.350691
 20
149.709567
 30
0.0
  0
SPLINE
  5
184
100
AcDbEntity
  8
0
 62
5
100
AcDbSpline
 70
8
 71
3
 72
8
 73
4
 74
0
 40
0
 40
0
 40
0
 40
0
 40
1
 40
1
 40
1
 40
1
 10
77.350691
 20
249.709568
 30
0.0
 10
77.351221
 20
251.728532
 30
0.0
 10
76.274560
 20
253.594392
 30
0.0
 10
74.526190
 20
254.604053
 30
0.0
  0
SPLINE
  5
185
100
AcDbEntity
  8
0
 62
5
100
AcDbSpline
 70
8
 71
3
 72
8
 73
4
 74
0
 40
0
 40
0
 40
0
 40
0
 40
1
 40
1
 40
1
 40
1
 10
74.526190
 20
254.604053
 30
0.0
 10
72.777821
 20
255.613711
 30
0.0
 10
70.623562
 20
255.613711
 30
0.0
 10
68.875193
 20
254.604053
 30
0.0
  0
SPLINE
  5
186
100
AcDbEntity
  8
0
 62
5
100
AcDbSpline
 70
8
 71
3
 72
8
 73
4
 74
0
 40
0
 40
0
 40
0
 40
0
 40
1
 40
1
 40
1
 40
1
 10
68.875193
 20
254.604053
 30
0.0
 10
67.126821
 20
253.594392
 30
0.0
 10
66.050073
 20
251.728532
 30
0.0
 10
66.050692
 20
249.709568
 30
0.0
  0
SPLINE
  5
187
100
AcDbEntity
  8
0
 62
5
100
AcDbSpline
 70
8
 71
3
 72
8
 73
4
 74
0
 40
0
 40
0
 40
0
 40
0
 40
1
 40
1
 40
1
 40
1
 10
66.050692
 20
249.709568
 30
0.0
 10
66.050163
 20
247.690607
 30
0.0
 10
67.126821
 20
245.824744
 30
0.0
 10
68.875193
 20
244.815084
 30
0.0
  0
SPLINE
  5
188
100
AcDbEntity
  8
0
 62
5
100
AcDbSpline
 70
8
 71
3
 72
8
 73
4
 74
0
 40
0
 40
0
 40
0
 40
0
 40
1
 40
1
 40
1
 40
1
 10
68.875193
 20
244.815084
 30
0.0
 10
70.623562
 20
243.805423
 30
0.0
 10
72.777821
 20
243.805423
 30
0.0
 10
74.526190
 20
244.815084
 30
0.0
  0
SPLINE
  5
189
100
AcDbEntity
  8
0
 62
5
100
AcDbSpline
 70
8
 71
3
 72
8
 73
4
 74
0
 40
0
 40
0
 40
0
 40
0
 40
1
 40
1
 40
1
 40
1
 10
74.526190
 20
244.815084
 30
0.0
 10
76.274560
 20
245.824744
 30
0.0
 10
77.351311
 20
247.690607
 30
0.0
 10
77.350691
 20
249.709568
 30
0.0
  0
SPLINE
  5
18a
100
AcDbEntity
  8
0
 62
5
100
AcDbSpline
 70
8
 71
3
 72
8
 73
4
 74
0
 40
0
 40
0
 40
0
 40
0
 40
1
 40
1
 40
1
 40
1
 10
137.350691
 20
249.709568
 30
0.0
 10
137.351220
 20
251.728532
 30
0.0
 10
136.274559
 20
253.594392
 30
0.0
 10
134.526189
 20
254.604053
 30
0.0
  0
SPLINE
  5
18b
100
AcDbEntity
  8
0
 62
5
100
AcDbSpline
 70
8
 71
3
 72
8
 73
4
 74
0
 40
0
 40
0
 40
0
 40
0
 40
1
 40
1
 40
1
 40
1
 10
134.526189
 20
254.604053
 30
0.0
 10
132.777820
 20
255.613711
 30
0.0
 10
130.623561
 20
255.613711
 30
0.0
 10
128.875192
 20
254.604053
 30
0.0
  0
SPLINE
  5
18c
100
AcDbEntity
  8
0
 62
5
100
AcDbSpline
 70
8
 71
3
 72
8
 73
4
 74
0
 40
0
 40
0
 40
0
 40
0
 40
1
 40
1
 40
1
 40
1
 10
128.875192
 20
254.604053
 30
0.0
 10
127.126820
 20
253.594392
 30
0.0
 10
126.050074
 20
251.728532
 30
0.0
 10
126.050691
 20
249.709568
 30
0.0
  0
SPLINE
  5
18d
100
AcDbEntity
  8
0
 62
5
100
AcDbSpline
 70
8
 71
3
 72
8
 73
4
 74
0
 40
0
 40
0
 40
0
 40
0
 40
1
 40
1
 40
1
 40
1
 10
126.050691
 20
249.709568
 30
0.0
 10
126.050162
 20
247.690607
 30
0.0
 10
127.126820
 20
245.824744
 30
0.0
 10
128.875192
 20
244.815084
 30
0.0
  0
SPLINE
  5
18e
100
AcDbEntity
  8
0
 62
5
100
AcDbSpline
 70
8
 71
3
 72
8
 73
4
 74
0
 40
0
 40
0
 40
0
 40
0
 40
1
 40
1
 40
1
 40
1
 10
128.875192
 20
244.815084
 30
0.0
 10
130.623561
 20
243.805423
 30
0.0
 10
132.777820
 20
243.805423
 30
0.0
 10
134.526189
 20
244.815084
 30
0.0
  0
SPLINE
  5
18f
100
AcDbEntity
  8
0
 62
5
100
AcDbSpline
 70
8
 71
3
 72
8
 73
4
 74
0
 40
0
 40
0
 40
0
 40
0
 40
1
 40
1
 40
1
 40
1
 10
134.526189
 20
244.815084
 30
0.0
 10
136.274559
 20
245.824744
 30
0.0
 10
137.351310
 20
247.690607
 30
0.0
 10
137.350691
 20
249.709568
 30
0.0
  0
LWPOLYLINE
  5
190
100
AcDbEntity
  8
0
 62
7
100
AcDbPolyline
 90
2
 70
0
 10
51.700676
 20
80.459015
 30
0.0
 10
81.325955
 20
139.709566
 30
0.0
  0
LWPOLYLINE
  5
191
100
AcDbEntity
  8
0
 62
1
100
AcDbPolyline
 90
5
 70
1
 10
191.700679
 20
279.709565
 30
0.0
 10
11.700678
 20
279.709565
 30
0.0
 10
11.700678
 20
19.709576
 30
0.0
 10
191.700679
 20
19.709576
 30
0.0
 10
191.700679
 20
279.709565
 30
0.0
  0
ENDSEC
  0
SECTION
  2
OBJECTS
  0
DICTIONARY
  5
C
330
0
100
AcDbDictionary
  3
ACAD_GROUP
350
D
  3
ACAD_MLINESTYLE
350
17
  0
DICTIONARY
  5
D
330
C
100
AcDbDictionary
  0
DICTIONARY
  5
1A
330
C
100
AcDbDictionary
  0
DICTIONARY
  5
17
330
C
100
AcDbDictionary
  3
STANDARD
350
18
  0
DICTIONARY
  5
19
330
C
100
AcDbDictionary
  0
ENDSEC
  0
EOF
