<?xml version="1.0" encoding="UTF-8" standalone="no"?>
<!-- Created with Inkscape (http://www.inkscape.org/) -->

<svg
   xmlns:dc="http://purl.org/dc/elements/1.1/"
   xmlns:cc="http://creativecommons.org/ns#"
   xmlns:rdf="http://www.w3.org/1999/02/22-rdf-syntax-ns#"
   xmlns:svg="http://www.w3.org/2000/svg"
   xmlns="http://www.w3.org/2000/svg"
   xmlns:sodipodi="http://sodipodi.sourceforge.net/DTD/sodipodi-0.dtd"
   xmlns:inkscape="http://www.inkscape.org/namespaces/inkscape"
   width="659.03125"
   height="202.25"
   id="svg5103"
   sodipodi:version="0.32"
   inkscape:version="0.48.5 r10040"
   version="1.0"
   sodipodi:docname="segment displays.svg">
  <defs
     id="defs5105" />
  <sodipodi:namedview
     id="base"
     pagecolor="#ffffff"
     bordercolor="#666666"
     borderopacity="1.0"
     gridtolerance="10000"
     guidetolerance="10"
     objecttolerance="10"
     inkscape:pageopacity="0.0"
     inkscape:pageshadow="2"
     inkscape:zoom="0.9331685"
     inkscape:cx="504.35162"
     inkscape:cy="98.966074"
     inkscape:document-units="px"
     inkscape:current-layer="layer1"
     inkscape:window-width="1286"
     inkscape:window-height="746"
     inkscape:window-x="72"
     inkscape:window-y="-8"
     showgrid="false"
     inkscape:window-maximized="1"
     fit-margin-top="0"
     fit-margin-left="0"
     fit-margin-right="0"
     fit-margin-bottom="0" />
  <metadata
     id="metadata5108">
    <rdf:RDF>
      <cc:Work
         rdf:about="">
        <dc:format>image/svg+xml</dc:format>
        <dc:type
           rdf:resource="http://purl.org/dc/dcmitype/StillImage" />
        <dc:title></dc:title>
      </cc:Work>
    </rdf:RDF>
  </metadata>
  <g
     inkscape:label="Layer 1"
     inkscape:groupmode="layer"
     id="layer1"
     transform="translate(279.53125,-639.1875)">
    <path
       style="fill:#ff0000;fill-opacity:1;fill-rule:nonzero;stroke:#ffffff;stroke-width:2;stroke-linecap:square;stroke-miterlimit:4;stroke-opacity:1;stroke-dasharray:none"
       d="m -278.53901,730.19264 0,-70 10,-10 10,10 0,70 -10,10 -10,-10 z"
       id="path6016"
       sodipodi:nodetypes="ccccccc"
       inkscape:transform-center-y="-45"
       inkscape:connector-curvature="0" />
    <path
       inkscape:transform-center-y="-45"
       sodipodi:nodetypes="ccccccc"
       id="path6018"
       d="m -278.53901,820.1926 0,-69.99996 10,-10 10,10 0,69.99996 -10,10 -10,-10 z"
       style="fill:#ff0000;fill-opacity:1;fill-rule:nonzero;stroke:#ffffff;stroke-width:2;stroke-linecap:square;stroke-miterlimit:4;stroke-opacity:1;stroke-dasharray:none"
       inkscape:connector-curvature="0" />
    <path
       style="fill:#ff0000;fill-opacity:1;fill-rule:nonzero;stroke:#ffffff;stroke-width:2;stroke-linecap:square;stroke-miterlimit:4;stroke-opacity:1;stroke-dasharray:none"
       d="m -158.53902,730.19264 0,-70 10,-10 10,10 0,70 -10,10 -10,-10 z"
       id="path6020"
       sodipodi:nodetypes="ccccccc"
       inkscape:transform-center-y="-45"
       inkscape:connector-curvature="0" />
    <path
       inkscape:transform-center-y="-45"
       sodipodi:nodetypes="ccccccc"
       id="path6022"
       d="m -158.53902,820.1926 0,-69.99996 10,-10 10,10 0,69.99996 -10,10 -10,-10 z"
       style="fill:#ff0000;fill-opacity:1;fill-rule:nonzero;stroke:#ffffff;stroke-width:2;stroke-linecap:square;stroke-miterlimit:4;stroke-opacity:1;stroke-dasharray:none"
       inkscape:connector-curvature="0" />
    <path
       sodipodi:nodetypes="ccccccc"
       id="path6026-1"
       d="m -258.34868,820.2596 99.80967,-0.067 10,10 -10,10 -99.80967,0.067 -10,-10 z"
       style="fill:#ff0000;fill-opacity:1;fill-rule:nonzero;stroke:#ffffff;stroke-width:2;stroke-linecap:square;stroke-miterlimit:4;stroke-opacity:1;stroke-dasharray:none"
       inkscape:connector-curvature="0" />
    <path
       sodipodi:nodetypes="ccccccc"
       d="m 94.297079,660.19268 30.000001,50.00002 0,20 -10,0 -30.000001,-50.00002 0,-20 10,0 z"
       style="fill:#ff0000;fill-opacity:1;fill-rule:nonzero;stroke:#ffffff;stroke-width:2;stroke-linecap:square;stroke-miterlimit:4;stroke-opacity:1;stroke-dasharray:none"
       id="path6069-9"
       inkscape:connector-curvature="0" />
    <path
       id="path6071-3"
       style="fill:#ff0000;fill-opacity:1;fill-rule:nonzero;stroke:#ffffff;stroke-width:2;stroke-linecap:square;stroke-miterlimit:4;stroke-opacity:1;stroke-dasharray:none"
       d="m 174.29708,660.19268 -30,50.00002 0,20 9.99999,0 30.00001,-50.00002 0,-20 -10,0 z"
       sodipodi:nodetypes="ccccccc"
       inkscape:connector-curvature="0" />
    <path
       style="fill:#ff0000;fill-opacity:1;fill-rule:nonzero;stroke:#ffffff;stroke-width:2;stroke-linecap:square;stroke-miterlimit:4;stroke-opacity:1;stroke-dasharray:none"
       d="m 124.29713,730.19264 0,-70 10,-10 10,10 0,70 -10,10 -10,-10 z"
       id="path6006-1"
       sodipodi:nodetypes="ccccccc"
       inkscape:transform-center-y="-45"
       inkscape:connector-curvature="0" />
    <path
       inkscape:transform-center-y="-45"
       sodipodi:nodetypes="ccccccc"
       id="path6008-9"
       d="m 124.29713,730.19264 0,-70 10,-10 10,10 0,70 -10,10 -10,-10 z"
       style="fill:#ff0000;fill-opacity:1;fill-rule:nonzero;stroke:#ffffff;stroke-width:2;stroke-linecap:square;stroke-miterlimit:4;stroke-opacity:1;stroke-dasharray:none"
       inkscape:connector-curvature="0" />
    <path
       sodipodi:nodetypes="ccccccc"
       d="m 174.29708,820.1927 -30,-50.00002 0,-20 9.99999,0 30.00001,50.00002 0,20 -10,0 z"
       style="fill:#ff0000;fill-opacity:1;fill-rule:nonzero;stroke:#ffffff;stroke-width:2;stroke-linecap:square;stroke-miterlimit:4;stroke-opacity:1;stroke-dasharray:none"
       id="path6067-8"
       inkscape:connector-curvature="0" />
    <path
       id="rect6058-6"
       style="fill:#ff0000;fill-opacity:1;fill-rule:nonzero;stroke:#ffffff;stroke-width:2;stroke-linecap:square;stroke-miterlimit:4;stroke-opacity:1;stroke-dasharray:none"
       d="m 94.297079,820.1927 30.000001,-50.00002 0,-20 -10,0 -30.000001,50.00002 0,20 10,0 z"
       sodipodi:nodetypes="ccccccc"
       inkscape:connector-curvature="0" />
    <path
       style="fill:#ff0000;fill-opacity:1;fill-rule:nonzero;stroke:#ffffff;stroke-width:2;stroke-linecap:square;stroke-miterlimit:4;stroke-opacity:1;stroke-dasharray:none"
       d="m 124.29713,820.1926 0,-69.99996 10,-10 10,10 0,69.99996 -10,10 -10,-10 z"
       id="path6010-5"
       sodipodi:nodetypes="ccccccc"
       inkscape:transform-center-y="-45"
       inkscape:connector-curvature="0" />
    <path
       style="fill:#ff0000;fill-opacity:1;fill-rule:nonzero;stroke:#ffffff;stroke-width:2;stroke-linecap:square;stroke-miterlimit:4;stroke-opacity:1;stroke-dasharray:none"
       d="m 64.297129,730.19264 0,-70 10,-10 10,10 0,70 -10,10 -10,-10 z"
       id="path6016-6"
       sodipodi:nodetypes="ccccccc"
       inkscape:transform-center-y="-45"
       inkscape:connector-curvature="0" />
    <path
       inkscape:transform-center-y="-45"
       sodipodi:nodetypes="ccccccc"
       id="path6018-0"
       d="m 64.297129,820.1926 0,-69.99996 10,-10 10,10 0,69.99996 -10,10 -10,-10 z"
       style="fill:#ff0000;fill-opacity:1;fill-rule:nonzero;stroke:#ffffff;stroke-width:2;stroke-linecap:square;stroke-miterlimit:4;stroke-opacity:1;stroke-dasharray:none"
       inkscape:connector-curvature="0" />
    <path
       style="fill:#ff0000;fill-opacity:1;fill-rule:nonzero;stroke:#ffffff;stroke-width:2;stroke-linecap:square;stroke-miterlimit:4;stroke-opacity:1;stroke-dasharray:none"
       d="m 184.29713,730.19264 0,-70 10,-10 10,10 0,70 -10,10 -10,-10 z"
       id="path6020-2"
       sodipodi:nodetypes="ccccccc"
       inkscape:transform-center-y="-45"
       inkscape:connector-curvature="0" />
    <path
       inkscape:transform-center-y="-45"
       sodipodi:nodetypes="ccccccc"
       id="path6022-4"
       d="m 184.29713,820.1926 0,-69.99996 10,-10 10,10 0,69.99996 -10,10 -10,-10 z"
       style="fill:#ff0000;fill-opacity:1;fill-rule:nonzero;stroke:#ffffff;stroke-width:2;stroke-linecap:square;stroke-miterlimit:4;stroke-opacity:1;stroke-dasharray:none"
       inkscape:connector-curvature="0" />
    <path
       style="fill:#ff0000;fill-opacity:1;fill-rule:nonzero;stroke:#ffffff;stroke-width:2;stroke-linecap:square;stroke-miterlimit:4;stroke-opacity:1;stroke-dasharray:none"
       d="m 84.297129,730.19264 40.000001,0 10,10 -10,10 -40.000001,0 -10,-10 10,-10 z"
       id="rect6001-5"
       sodipodi:nodetypes="ccccccc"
       inkscape:connector-curvature="0" />
    <path
       sodipodi:nodetypes="ccccccc"
       id="path6004-0"
       d="m 144.29713,730.19264 40,0 10,10 -10,10 -40,0 -10,-10 10,-10 z"
       style="fill:#ff0000;fill-opacity:1;fill-rule:nonzero;stroke:#ffffff;stroke-width:2;stroke-linecap:square;stroke-miterlimit:4;stroke-opacity:1;stroke-dasharray:none"
       inkscape:connector-curvature="0" />
    <path
       sodipodi:nodetypes="ccccccc"
       d="m 268.50077,660.19268 30,50.00002 0,20 -10,0 -30,-50.00002 0,-20 10,0 z"
       style="fill:#ff0000;fill-opacity:1;fill-rule:nonzero;stroke:#ffffff;stroke-width:2;stroke-linecap:square;stroke-miterlimit:4;stroke-opacity:1;stroke-dasharray:none"
       id="path6069-90"
       inkscape:connector-curvature="0" />
    <path
       id="path6071-0"
       style="fill:#ff0000;fill-opacity:1;fill-rule:nonzero;stroke:#ffffff;stroke-width:2;stroke-linecap:square;stroke-miterlimit:4;stroke-opacity:1;stroke-dasharray:none"
       d="m 348.50077,660.19268 -30,50.00002 0,20 9.99999,0 30.00001,-50.00002 0,-20 -10,0 z"
       sodipodi:nodetypes="ccccccc"
       inkscape:connector-curvature="0" />
    <path
       style="fill:#ff0000;fill-opacity:1;fill-rule:nonzero;stroke:#ffffff;stroke-width:2;stroke-linecap:square;stroke-miterlimit:4;stroke-opacity:1;stroke-dasharray:none"
       d="m 298.50082,730.19264 0,-70 10,-10 10,10 0,70 -10,10 -10,-10 z"
       id="path6006-6"
       sodipodi:nodetypes="ccccccc"
       inkscape:transform-center-y="-45"
       inkscape:connector-curvature="0" />
    <path
       inkscape:transform-center-y="-45"
       sodipodi:nodetypes="ccccccc"
       id="path6008-1"
       d="m 298.50082,730.19264 0,-70 10,-10 10,10 0,70 -10,10 -10,-10 z"
       style="fill:#ff0000;fill-opacity:1;fill-rule:nonzero;stroke:#ffffff;stroke-width:2;stroke-linecap:square;stroke-miterlimit:4;stroke-opacity:1;stroke-dasharray:none"
       inkscape:connector-curvature="0" />
    <path
       sodipodi:nodetypes="ccccccc"
       d="m 348.50077,820.1927 -30,-50.00002 0,-20 9.99999,0 30.00001,50.00002 0,20 -10,0 z"
       style="fill:#ff0000;fill-opacity:1;fill-rule:nonzero;stroke:#ffffff;stroke-width:2;stroke-linecap:square;stroke-miterlimit:4;stroke-opacity:1;stroke-dasharray:none"
       id="path6067-38"
       inkscape:connector-curvature="0" />
    <path
       id="rect6058-9"
       style="fill:#ff0000;fill-opacity:1;fill-rule:nonzero;stroke:#ffffff;stroke-width:2;stroke-linecap:square;stroke-miterlimit:4;stroke-opacity:1;stroke-dasharray:none"
       d="m 268.50077,820.1927 30,-50.00002 0,-20 -10,0 -30,50.00002 0,20 10,0 z"
       sodipodi:nodetypes="ccccccc"
       inkscape:connector-curvature="0" />
    <path
       style="fill:#ff0000;fill-opacity:1;fill-rule:nonzero;stroke:#ffffff;stroke-width:2;stroke-linecap:square;stroke-miterlimit:4;stroke-opacity:1;stroke-dasharray:none"
       d="m 298.50082,820.1926 0,-69.99996 10,-10 10,10 0,69.99996 -10,10 -10,-10 z"
       id="path6010-3"
       sodipodi:nodetypes="ccccccc"
       inkscape:transform-center-y="-45"
       inkscape:connector-curvature="0" />
    <path
       sodipodi:nodetypes="ccccccc"
       id="path6012-4"
       d="m 258.50082,640.19264 40,0 10,10 -10,10 -40,0 -10,-10 10,-10 z"
       style="fill:#ff0000;fill-opacity:1;fill-rule:nonzero;stroke:#ffffff;stroke-width:2;stroke-linecap:square;stroke-miterlimit:4;stroke-opacity:1;stroke-dasharray:none"
       inkscape:connector-curvature="0" />
    <path
       style="fill:#ff0000;fill-opacity:1;fill-rule:nonzero;stroke:#ffffff;stroke-width:2;stroke-linecap:square;stroke-miterlimit:4;stroke-opacity:1;stroke-dasharray:none"
       d="m 318.50082,640.19264 40,0 10,10 -10,10 -40,0 -10,-10 10,-10 z"
       id="path6014-4"
       sodipodi:nodetypes="ccccccc"
       inkscape:connector-curvature="0" />
    <path
       style="fill:#ff0000;fill-opacity:1;fill-rule:nonzero;stroke:#ffffff;stroke-width:2;stroke-linecap:square;stroke-miterlimit:4;stroke-opacity:1;stroke-dasharray:none"
       d="m 238.50082,730.19264 0,-70 10,-10 10,10 0,70 -10,10 -10,-10 z"
       id="path6016-60"
       sodipodi:nodetypes="ccccccc"
       inkscape:transform-center-y="-45"
       inkscape:connector-curvature="0" />
    <path
       inkscape:transform-center-y="-45"
       sodipodi:nodetypes="ccccccc"
       id="path6018-6"
       d="m 238.50082,820.1926 0,-69.99996 10,-10 10,10 0,69.99996 -10,10 -10,-10 z"
       style="fill:#ff0000;fill-opacity:1;fill-rule:nonzero;stroke:#ffffff;stroke-width:2;stroke-linecap:square;stroke-miterlimit:4;stroke-opacity:1;stroke-dasharray:none"
       inkscape:connector-curvature="0" />
    <path
       style="fill:#ff0000;fill-opacity:1;fill-rule:nonzero;stroke:#ffffff;stroke-width:2;stroke-linecap:square;stroke-miterlimit:4;stroke-opacity:1;stroke-dasharray:none"
       d="m 358.50082,730.19264 0,-70 10,-10 10,10 0,70 -10,10 -10,-10 z"
       id="path6020-6"
       sodipodi:nodetypes="ccccccc"
       inkscape:transform-center-y="-45"
       inkscape:connector-curvature="0" />
    <path
       inkscape:transform-center-y="-45"
       sodipodi:nodetypes="ccccccc"
       id="path6022-18"
       d="m 358.50082,820.1926 0,-69.99996 10,-10 10,10 0,69.99996 -10,10 -10,-10 z"
       style="fill:#ff0000;fill-opacity:1;fill-rule:nonzero;stroke:#ffffff;stroke-width:2;stroke-linecap:square;stroke-miterlimit:4;stroke-opacity:1;stroke-dasharray:none"
       inkscape:connector-curvature="0" />
    <path
       style="fill:#ff0000;fill-opacity:1;fill-rule:nonzero;stroke:#ffffff;stroke-width:2;stroke-linecap:square;stroke-miterlimit:4;stroke-opacity:1;stroke-dasharray:none"
       d="m 258.50082,820.1926 40,0 10,10 -10,10 -40,0 -10,-10 10,-10 z"
       id="path6024-4"
       sodipodi:nodetypes="ccccccc"
       inkscape:connector-curvature="0" />
    <path
       sodipodi:nodetypes="ccccccc"
       id="path6026-9"
       d="m 318.50082,820.1926 40,0 10,10 -10,10 -40,0 -10,-10 10,-10 z"
       style="fill:#ff0000;fill-opacity:1;fill-rule:nonzero;stroke:#ffffff;stroke-width:2;stroke-linecap:square;stroke-miterlimit:4;stroke-opacity:1;stroke-dasharray:none"
       inkscape:connector-curvature="0" />
    <path
       style="fill:#ff0000;fill-opacity:1;fill-rule:nonzero;stroke:#ffffff;stroke-width:2;stroke-linecap:square;stroke-miterlimit:4;stroke-opacity:1;stroke-dasharray:none"
       d="m 258.50082,730.19264 40,0 10,10 -10,10 -40,0 -10,-10 10,-10 z"
       id="rect6001-6"
       sodipodi:nodetypes="ccccccc"
       inkscape:connector-curvature="0" />
    <path
       sodipodi:nodetypes="ccccccc"
       id="path6004-3"
       d="m 318.50082,730.19264 40,0 10,10 -10,10 -40,0 -10,-10 10,-10 z"
       style="fill:#ff0000;fill-opacity:1;fill-rule:nonzero;stroke:#ffffff;stroke-width:2;stroke-linecap:square;stroke-miterlimit:4;stroke-opacity:1;stroke-dasharray:none"
       inkscape:connector-curvature="0" />
    <path
       sodipodi:nodetypes="ccccccc"
       id="path6026-1-7"
       d="m -258.34868,730.60039 99.80967,-0.067 10,10 -10,10 -99.80967,0.067 -10,-10 z"
       style="fill:#ff0000;fill-opacity:1;fill-rule:nonzero;stroke:#ffffff;stroke-width:2;stroke-linecap:square;stroke-miterlimit:4;stroke-opacity:1;stroke-dasharray:none"
       inkscape:connector-curvature="0" />
    <path
       sodipodi:nodetypes="ccccccc"
       id="path6026-1-7-8"
       d="m -258.34868,640.28548 99.80967,-0.067 10,10 -10,10 -99.80967,0.067 -10,-10 z"
       style="fill:#ff0000;fill-opacity:1;fill-rule:nonzero;stroke:#ffffff;stroke-width:2;stroke-linecap:square;stroke-miterlimit:4;stroke-opacity:1;stroke-dasharray:none"
       inkscape:connector-curvature="0" />
    <path
       style="fill:#ff0000;fill-opacity:1;fill-rule:nonzero;stroke:#ffffff;stroke-width:2;stroke-linecap:square;stroke-miterlimit:4;stroke-opacity:1;stroke-dasharray:none"
       d="m -106.53016,730.19264 0,-70 9.999999,-10 10,10 0,70 -10,10 -9.999999,-10 z"
       id="path6016-4"
       sodipodi:nodetypes="ccccccc"
       inkscape:transform-center-y="-45"
       inkscape:connector-curvature="0" />
    <path
       inkscape:transform-center-y="-45"
       sodipodi:nodetypes="ccccccc"
       id="path6018-07"
       d="m -106.53016,820.1926 0,-69.99996 9.999999,-10 10,10 0,69.99996 -10,10 -9.999999,-10 z"
       style="fill:#ff0000;fill-opacity:1;fill-rule:nonzero;stroke:#ffffff;stroke-width:2;stroke-linecap:square;stroke-miterlimit:4;stroke-opacity:1;stroke-dasharray:none"
       inkscape:connector-curvature="0" />
    <path
       style="fill:#ff0000;fill-opacity:1;fill-rule:nonzero;stroke:#ffffff;stroke-width:2;stroke-linecap:square;stroke-miterlimit:4;stroke-opacity:1;stroke-dasharray:none"
       d="m 13.469829,730.19264 0,-70 10,-10 10,10 0,70 -10,10 -10,-10 z"
       id="path6020-63"
       sodipodi:nodetypes="ccccccc"
       inkscape:transform-center-y="-45"
       inkscape:connector-curvature="0" />
    <path
       inkscape:transform-center-y="-45"
       sodipodi:nodetypes="ccccccc"
       id="path6022-6"
       d="m 13.469829,820.1926 0,-69.99996 10,-10 10,10 0,69.99996 -10,10 -10,-10 z"
       style="fill:#ff0000;fill-opacity:1;fill-rule:nonzero;stroke:#ffffff;stroke-width:2;stroke-linecap:square;stroke-miterlimit:4;stroke-opacity:1;stroke-dasharray:none"
       inkscape:connector-curvature="0" />
    <path
       sodipodi:nodetypes="ccccccc"
       id="path6026-1-1"
       d="m -86.339831,820.2596 99.80967,-0.067 10,10 -10,10 -99.80967,0.067 -10,-10 z"
       style="fill:#ff0000;fill-opacity:1;fill-rule:nonzero;stroke:#ffffff;stroke-width:2;stroke-linecap:square;stroke-miterlimit:4;stroke-opacity:1;stroke-dasharray:none"
       inkscape:connector-curvature="0" />
    <path
       sodipodi:nodetypes="ccccccc"
       id="path6026-1-7-5"
       d="m -86.339831,730.60039 99.80967,-0.067 10,10 -10,10 -99.80967,0.067 -10,-10 z"
       style="fill:#ff0000;fill-opacity:1;fill-rule:nonzero;stroke:#ffffff;stroke-width:2;stroke-linecap:square;stroke-miterlimit:4;stroke-opacity:1;stroke-dasharray:none"
       inkscape:connector-curvature="0" />
    <path
       sodipodi:nodetypes="ccccccc"
       id="path6026-1-7-8-4"
       d="m -86.339831,640.28548 99.80967,-0.067 10,10 -10,10 -99.80967,0.067 -10,-10 z"
       style="fill:#ff0000;fill-opacity:1;fill-rule:nonzero;stroke:#ffffff;stroke-width:2;stroke-linecap:square;stroke-miterlimit:4;stroke-opacity:1;stroke-dasharray:none"
       inkscape:connector-curvature="0" />
    <path
       id="path6071-3-2"
       style="fill:#ff0000;fill-opacity:1;fill-rule:nonzero;stroke:#ffffff;stroke-width:2;stroke-linecap:square;stroke-miterlimit:4;stroke-opacity:1;stroke-dasharray:none"
       d="m 3.396847,660.19268 -42.122677,70.15983 12.122677,-0.15981 9.99999,0 30.00001,-50.00002 0,-20 z"
       sodipodi:nodetypes="ccccccc"
       inkscape:connector-curvature="0" />
    <path
       id="rect6058-6-0"
       style="fill:#ff0000;fill-opacity:1;fill-rule:nonzero;stroke:#ffffff;stroke-width:1.9931947;stroke-linecap:square;stroke-miterlimit:4;stroke-opacity:1;stroke-dasharray:none"
       d="m -76.603153,820.1927 41.934535,-69.64595 -11.934535,0.12147 -10,0 -30,49.66038 0,19.8641 z"
       sodipodi:nodetypes="ccccccc"
       inkscape:connector-curvature="0" />
    <path
       sodipodi:nodetypes="ccccccc"
       id="path6026-1-7-8-4-9"
       d="m 84.047405,640.28548 99.809675,-0.067 10,10 -10,10 -99.809675,0.067 -10,-10 z"
       style="fill:#ff0000;fill-opacity:1;fill-rule:nonzero;stroke:#ffffff;stroke-width:2;stroke-linecap:square;stroke-miterlimit:4;stroke-opacity:1;stroke-dasharray:none"
       inkscape:connector-curvature="0" />
    <path
       sodipodi:nodetypes="ccccccc"
       id="path6026-1-7-8-4-9-7"
       d="m 84.047405,820.4512 99.809675,-0.067 10,10 -10,10 -99.809675,0.067 -10,-10 z"
       style="fill:#ff0000;fill-opacity:1;fill-rule:nonzero;stroke:#ffffff;stroke-width:2;stroke-linecap:square;stroke-miterlimit:4;stroke-opacity:1;stroke-dasharray:none"
       inkscape:connector-curvature="0" />
  </g>
</svg>
