  0
SECTION
  2
HEADER
  9
$ACADVER
  1
AC1014
  9
$HANDSEED
  5
FFFF
  9
$MEASUREMENT
 70
     1
  0
ENDSEC
  0
SECTION
  2
TABLES
  0
TABLE
  2
VPORT
  5
8
330
0
100
AcDbSymbolTable
 70
     4
  0
VPORT
  5
2E
330
8
100
AcDbSymbolTableRecord
100
AcDbViewportTableRecord
  2
*ACTIVE
 70
     0
 10
0.0
 20
0.0
 11
1.0
 21
1.0
 12
210.0
 22
148.5
 13
0.0
 23
0.0
 14
10.0
 24
10.0
 15
10.0
 25
10.0
 16
0.0
 26
0.0
 36
1.0
 17
0.0
 27
0.0
 37
0.0
 40
341.0
 41
1.24
 42
50.0
 43
0.0
 44
0.0
 50
0.0
 51
0.0
 71
     0
 72
   100
 73
     1
 74
     3
 75
     0
 76
     0
 77
     0
 78
     0
  0
ENDTAB
  0
TABLE
  2
LTYPE
  5
5
330
0
100
AcDbSymbolTable
 70
     1
  0
LTYPE
  5
14
330
5
100
AcDbSymbolTableRecord
100
AcDbLinetypeTableRecord
  2
BYBLOCK
 70
     0
  3

 72
    65
 73
     0
 40
0.0
  0
LTYPE
  5
15
330
5
100
AcDbSymbolTableRecord
100
AcDbLinetypeTableRecord
  2
BYLAYER
 70
     0
  3

 72
    65
 73
     0
 40
0.0
  0
LTYPE
  5
16
330
5
100
AcDbSymbolTableRecord
100
AcDbLinetypeTableRecord
  2
CONTINUOUS
 70
     0
  3
Solid line
 72
    65
 73
     0
 40
0.0
  0
ENDTAB
  0
TABLE
  2
LAYER
  5
2
100
AcDbSymbolTable
 70
1
  0
LAYER
  5
50
100
AcDbSymbolTableRecord
100
AcDbLayerTableRecord
  2
0
 70
0
  6
CONTINUOUS
  0
ENDTAB
  0
TABLE
  2
STYLE
  5
3
330
0
100
AcDbSymbolTable
 70
     1
  0
STYLE
  5
11
330
3
100
AcDbSymbolTableRecord
100
AcDbTextStyleTableRecord
  2
STANDARD
 70
     0
 40
0.0
 41
1.0
 50
0.0
 71
     0
 42
2.5
  3
txt
  4

  0
ENDTAB
  0
TABLE
  2
VIEW
  5
6
330
0
100
AcDbSymbolTable
 70
     0
  0
ENDTAB
  0
TABLE
  2
UCS
  5
7
330
0
100
AcDbSymbolTable
 70
     0
  0
ENDTAB
  0
TABLE
  2
APPID
  5
9
330
0
100
AcDbSymbolTable
 70
     2
  0
APPID
  5
12
330
9
100
AcDbSymbolTableRecord
100
AcDbRegAppTableRecord
  2
ACAD
 70
     0
  0
ENDTAB
  0
TABLE
  2
DIMSTYLE
  5
A
330
0
100
AcDbSymbolTable
 70
     1
  0
DIMSTYLE
105
27
330
A
100
AcDbSymbolTableRecord
100
AcDbDimStyleTableRecord
  2
ISO-25
 70
     0
  3

  4

  5

  6

  7

 40
1.0
 41
2.5
 42
0.625
 43
3.75
 44
1.25
 45
0.0
 46
0.0
 47
0.0
 48
0.0
140
2.5
141
2.5
142
0.0
143
0.03937007874016
144
1.0
145
0.0
146
1.0
147
0.625
 71
     0
 72
     0
 73
     0
 74
     0
 75
     0
 76
     0
 77
     1
 78
     8
170
     0
171
     3
172
     1
173
     0
174
     0
175
     0
176
     0
177
     0
178
     0
270
     2
271
     2
272
     2
273
     2
274
     3
340
11
275
     0
280
     0
281
     0
282
     0
283
     0
284
     8
285
     0
286
     0
287
     3
288
     0
  0
ENDTAB
  0
TABLE
  2
BLOCK_RECORD
  5
1
330
0
100
AcDbSymbolTable
 70
     1
  0
BLOCK_RECORD
  5
1F
330
1
100
AcDbSymbolTableRecord
100
AcDbBlockTableRecord
  2
*MODEL_SPACE
  0
BLOCK_RECORD
  5
1B
330
1
100
AcDbSymbolTableRecord
100
AcDbBlockTableRecord
  2
*PAPER_SPACE
  0
ENDTAB
  0
ENDSEC
  0
SECTION
  2
BLOCKS
  0
BLOCK
  5
20
330
1F
100
AcDbEntity
  8
0
100
AcDbBlockBegin
  2
*MODEL_SPACE
 70
     0
 10
0.0
 20
0.0
 30
0.0
  3
*MODEL_SPACE
  1

  0
ENDBLK
  5
21
330
1F
100
AcDbEntity
  8
0
100
AcDbBlockEnd
  0
BLOCK
  5
1C
330
1B
100
AcDbEntity
 67
     1
  8
0
100
AcDbBlockBegin
  2
*PAPER_SPACE
  1

  0
ENDBLK
  5
1D
330
1B
100
AcDbEntity
 67
     1
  8
0
100
AcDbBlockEnd
  0
ENDSEC
  0
SECTION
  2
ENTITIES
  0
LWPOLYLINE
  5
100
100
AcDbEntity
  8
0
 62
7
100
AcDbPolyline
 90
6
 70
1
 10
32.720338
 20
148.500021
 30
0.0
 10
32.720338
 20
228.500023
 30
0.0
 10
42.720339
 20
238.500021
 30
0.0
 10
52.720338
 20
228.500023
 30
0.0
 10
52.720338
 20
148.500021
 30
0.0
 10
42.720339
 20
138.500023
 30
0.0
  0
LWPOLYLINE
  5
101
100
AcDbEntity
  8
0
 62
7
100
AcDbPolyline
 90
2
 70
0
 10
52.720338
 20
48.500023
 30
0.0
 10
42.720339
 20
38.500022
 30
0.0
  0
LWPOLYLINE
  5
102
100
AcDbEntity
  8
0
 62
7
100
AcDbPolyline
 90
2
 70
0
 10
42.720339
 20
138.500023
 30
0.0
 10
52.720338
 20
128.500022
 30
0.0
  0
LWPOLYLINE
  5
103
100
AcDbEntity
  8
0
 62
7
100
AcDbPolyline
 90
3
 70
0
 10
42.720339
 20
38.500022
 30
0.0
 10
32.720338
 20
48.500023
 30
0.0
 10
32.720338
 20
128.500022
 30
0.0
  0
LWPOLYLINE
  5
104
100
AcDbEntity
  8
0
 62
7
100
AcDbPolyline
 90
2
 70
0
 10
52.720338
 20
128.500022
 30
0.0
 10
52.720338
 20
48.500023
 30
0.0
  0
LWPOLYLINE
  5
105
100
AcDbEntity
  8
0
 62
7
100
AcDbPolyline
 90
2
 70
0
 10
32.720338
 20
128.500022
 30
0.0
 10
42.720339
 20
138.500023
 30
0.0
  0
LWPOLYLINE
  5
106
100
AcDbEntity
  8
0
 62
7
100
AcDbPolyline
 90
4
 70
0
 10
132.720339
 20
148.500021
 30
0.0
 10
142.720338
 20
138.500023
 30
0.0
 10
132.720339
 20
128.500022
 30
0.0
 10
52.720338
 20
128.500022
 30
0.0
  0
LWPOLYLINE
  5
107
100
AcDbEntity
  8
0
 62
7
100
AcDbPolyline
 90
2
 70
0
 10
52.720338
 20
148.500021
 30
0.0
 10
132.720339
 20
148.500021
 30
0.0
  0
LWPOLYLINE
  5
108
100
AcDbEntity
  8
0
 62
7
100
AcDbPolyline
 90
2
 70
0
 10
132.720339
 20
48.500023
 30
0.0
 10
132.720339
 20
128.500022
 30
0.0
  0
LWPOLYLINE
  5
109
100
AcDbEntity
  8
0
 62
7
100
AcDbPolyline
 90
2
 70
0
 10
152.720339
 20
148.500021
 30
0.0
 10
142.720338
 20
138.500023
 30
0.0
  0
LWPOLYLINE
  5
10a
100
AcDbEntity
  8
0
 62
7
100
AcDbPolyline
 90
2
 70
0
 10
152.720339
 20
128.500022
 30
0.0
 10
142.720338
 20
138.500023
 30
0.0
  0
LWPOLYLINE
  5
10b
100
AcDbEntity
  8
0
 62
7
100
AcDbPolyline
 90
2
 70
0
 10
152.720339
 20
128.500022
 30
0.0
 10
152.720339
 20
48.500023
 30
0.0
  0
LWPOLYLINE
  5
10c
100
AcDbEntity
  8
0
 62
7
100
AcDbPolyline
 90
2
 70
0
 10
142.720338
 20
38.500022
 30
0.0
 10
132.720339
 20
48.500023
 30
0.0
  0
LWPOLYLINE
  5
10d
100
AcDbEntity
  8
0
 62
7
100
AcDbPolyline
 90
2
 70
0
 10
152.720339
 20
228.500023
 30
0.0
 10
152.720339
 20
148.500021
 30
0.0
  0
LWPOLYLINE
  5
10e
100
AcDbEntity
  8
0
 62
7
100
AcDbPolyline
 90
4
 70
0
 10
132.720339
 20
148.500021
 30
0.0
 10
132.720339
 20
228.500023
 30
0.0
 10
142.720338
 20
238.500021
 30
0.0
 10
152.720339
 20
228.500023
 30
0.0
  0
LWPOLYLINE
  5
10f
100
AcDbEntity
  8
0
 62
7
100
AcDbPolyline
 90
2
 70
0
 10
152.720339
 20
48.500023
 30
0.0
 10
142.720338
 20
38.500022
 30
0.0
  0
LWPOLYLINE
  5
110
100
AcDbEntity
  8
0
 62
7
100
AcDbPolyline
 90
4
 70
0
 10
42.720339
 20
238.500021
 30
0.0
 10
52.720338
 20
248.500022
 30
0.0
 10
132.720339
 20
248.500022
 30
0.0
 10
142.720338
 20
238.500021
 30
0.0
  0
LWPOLYLINE
  5
111
100
AcDbEntity
  8
0
 62
7
100
AcDbPolyline
 90
2
 70
0
 10
132.720339
 20
228.500023
 30
0.0
 10
52.720338
 20
228.500023
 30
0.0
  0
LWPOLYLINE
  5
112
100
AcDbEntity
  8
0
 62
7
100
AcDbPolyline
 90
2
 70
0
 10
42.720339
 20
38.500022
 30
0.0
 10
52.720338
 20
28.500013
 30
0.0
  0
LWPOLYLINE
  5
113
100
AcDbEntity
  8
0
 62
7
100
AcDbPolyline
 90
2
 70
0
 10
52.720338
 20
48.500023
 30
0.0
 10
132.720339
 20
48.500023
 30
0.0
  0
LWPOLYLINE
  5
114
100
AcDbEntity
  8
0
 62
7
100
AcDbPolyline
 90
2
 70
0
 10
132.720339
 20
28.500013
 30
0.0
 10
52.720338
 20
28.500013
 30
0.0
  0
SPLINE
  5
115
100
AcDbEntity
  8
0
 62
1
100
AcDbSpline
 70
8
 71
3
 72
8
 73
4
 74
0
 40
0
 40
0
 40
0
 40
0
 40
1
 40
1
 40
1
 40
1
 10
48.370339
 20
188.500021
 30
0.0
 10
48.370339
 20
190.518572
 30
0.0
 10
47.293455
 20
192.383790
 30
0.0
 10
45.545339
 20
193.393065
 30
0.0
  0
SPLINE
  5
116
100
AcDbEntity
  8
0
 62
1
100
AcDbSpline
 70
8
 71
3
 72
8
 73
4
 74
0
 40
0
 40
0
 40
0
 40
0
 40
1
 40
1
 40
1
 40
1
 10
45.545339
 20
193.393065
 30
0.0
 10
43.797222
 20
194.402341
 30
0.0
 10
41.643454
 20
194.402341
 30
0.0
 10
39.895337
 20
193.393065
 30
0.0
  0
SPLINE
  5
117
100
AcDbEntity
  8
0
 62
1
100
AcDbSpline
 70
8
 71
3
 72
8
 73
4
 74
0
 40
0
 40
0
 40
0
 40
0
 40
1
 40
1
 40
1
 40
1
 10
39.895337
 20
193.393065
 30
0.0
 10
38.147221
 20
192.383790
 30
0.0
 10
37.070337
 20
190.518572
 30
0.0
 10
37.070337
 20
188.500021
 30
0.0
  0
SPLINE
  5
118
100
AcDbEntity
  8
0
 62
1
100
AcDbSpline
 70
8
 71
3
 72
8
 73
4
 74
0
 40
0
 40
0
 40
0
 40
0
 40
1
 40
1
 40
1
 40
1
 10
37.070337
 20
188.500021
 30
0.0
 10
37.070337
 20
186.481470
 30
0.0
 10
38.147221
 20
184.616252
 30
0.0
 10
39.895337
 20
183.606976
 30
0.0
  0
SPLINE
  5
119
100
AcDbEntity
  8
0
 62
1
100
AcDbSpline
 70
8
 71
3
 72
8
 73
4
 74
0
 40
0
 40
0
 40
0
 40
0
 40
1
 40
1
 40
1
 40
1
 10
39.895337
 20
183.606976
 30
0.0
 10
41.643454
 20
182.597701
 30
0.0
 10
43.797222
 20
182.597701
 30
0.0
 10
45.545339
 20
183.606976
 30
0.0
  0
SPLINE
  5
11a
100
AcDbEntity
  8
0
 62
1
100
AcDbSpline
 70
8
 71
3
 72
8
 73
4
 74
0
 40
0
 40
0
 40
0
 40
0
 40
1
 40
1
 40
1
 40
1
 10
45.545339
 20
183.606976
 30
0.0
 10
47.293455
 20
184.616252
 30
0.0
 10
48.370339
 20
186.481470
 30
0.0
 10
48.370339
 20
188.500021
 30
0.0
  0
LWPOLYLINE
  5
11b
100
AcDbEntity
  8
0
 62
7
100
AcDbPolyline
 90
2
 70
0
 10
132.720339
 20
28.500013
 30
0.0
 10
142.720338
 20
38.500022
 30
0.0
  0
SPLINE
  5
11c
100
AcDbEntity
  8
0
 62
1
100
AcDbSpline
 70
8
 71
3
 72
8
 73
4
 74
0
 40
0
 40
0
 40
0
 40
0
 40
1
 40
1
 40
1
 40
1
 10
98.370337
 20
188.500021
 30
0.0
 10
98.370955
 20
190.518983
 30
0.0
 10
97.294206
 20
192.384846
 30
0.0
 10
95.545836
 20
193.394505
 30
0.0
  0
SPLINE
  5
11d
100
AcDbEntity
  8
0
 62
1
100
AcDbSpline
 70
8
 71
3
 72
8
 73
4
 74
0
 40
0
 40
0
 40
0
 40
0
 40
1
 40
1
 40
1
 40
1
 10
95.545836
 20
193.394505
 30
0.0
 10
93.797467
 20
194.404165
 30
0.0
 10
91.643208
 20
194.404165
 30
0.0
 10
89.894838
 20
193.394505
 30
0.0
  0
SPLINE
  5
11e
100
AcDbEntity
  8
0
 62
1
100
AcDbSpline
 70
8
 71
3
 72
8
 73
4
 74
0
 40
0
 40
0
 40
0
 40
0
 40
1
 40
1
 40
1
 40
1
 10
89.894838
 20
193.394505
 30
0.0
 10
88.146468
 20
192.384846
 30
0.0
 10
87.069720
 20
190.518983
 30
0.0
 10
87.070337
 20
188.500021
 30
0.0
  0
SPLINE
  5
11f
100
AcDbEntity
  8
0
 62
1
100
AcDbSpline
 70
8
 71
3
 72
8
 73
4
 74
0
 40
0
 40
0
 40
0
 40
0
 40
1
 40
1
 40
1
 40
1
 10
87.070337
 20
188.500021
 30
0.0
 10
87.069720
 20
186.481058
 30
0.0
 10
88.146468
 20
184.615196
 30
0.0
 10
89.894838
 20
183.605536
 30
0.0
  0
SPLINE
  5
120
100
AcDbEntity
  8
0
 62
1
100
AcDbSpline
 70
8
 71
3
 72
8
 73
4
 74
0
 40
0
 40
0
 40
0
 40
0
 40
1
 40
1
 40
1
 40
1
 10
89.894838
 20
183.605536
 30
0.0
 10
91.643208
 20
182.595877
 30
0.0
 10
93.797467
 20
182.595877
 30
0.0
 10
95.545836
 20
183.605536
 30
0.0
  0
SPLINE
  5
121
100
AcDbEntity
  8
0
 62
1
100
AcDbSpline
 70
8
 71
3
 72
8
 73
4
 74
0
 40
0
 40
0
 40
0
 40
0
 40
1
 40
1
 40
1
 40
1
 10
95.545836
 20
183.605536
 30
0.0
 10
97.294206
 20
184.615196
 30
0.0
 10
98.370955
 20
186.481058
 30
0.0
 10
98.370337
 20
188.500021
 30
0.0
  0
LWPOLYLINE
  5
122
100
AcDbEntity
  8
0
 62
1
100
AcDbPolyline
 90
1
 70
1
 10
48.370339
 20
188.500021
 30
0.0
  0
SPLINE
  5
123
100
AcDbEntity
  8
0
 62
1
100
AcDbSpline
 70
8
 71
3
 72
8
 73
4
 74
0
 40
0
 40
0
 40
0
 40
0
 40
1
 40
1
 40
1
 40
1
 10
148.370338
 20
188.500021
 30
0.0
 10
148.370955
 20
190.518983
 30
0.0
 10
147.294207
 20
192.384846
 30
0.0
 10
145.545837
 20
193.394505
 30
0.0
  0
SPLINE
  5
124
100
AcDbEntity
  8
0
 62
1
100
AcDbSpline
 70
8
 71
3
 72
8
 73
4
 74
0
 40
0
 40
0
 40
0
 40
0
 40
1
 40
1
 40
1
 40
1
 10
145.545837
 20
193.394505
 30
0.0
 10
143.797467
 20
194.404165
 30
0.0
 10
141.643208
 20
194.404165
 30
0.0
 10
139.894839
 20
193.394505
 30
0.0
  0
SPLINE
  5
125
100
AcDbEntity
  8
0
 62
1
100
AcDbSpline
 70
8
 71
3
 72
8
 73
4
 74
0
 40
0
 40
0
 40
0
 40
0
 40
1
 40
1
 40
1
 40
1
 10
139.894839
 20
193.394505
 30
0.0
 10
138.146469
 20
192.384846
 30
0.0
 10
137.069720
 20
190.518983
 30
0.0
 10
137.070338
 20
188.500021
 30
0.0
  0
SPLINE
  5
126
100
AcDbEntity
  8
0
 62
1
100
AcDbSpline
 70
8
 71
3
 72
8
 73
4
 74
0
 40
0
 40
0
 40
0
 40
0
 40
1
 40
1
 40
1
 40
1
 10
137.070338
 20
188.500021
 30
0.0
 10
137.069720
 20
186.481058
 30
0.0
 10
138.146469
 20
184.615196
 30
0.0
 10
139.894839
 20
183.605536
 30
0.0
  0
SPLINE
  5
127
100
AcDbEntity
  8
0
 62
1
100
AcDbSpline
 70
8
 71
3
 72
8
 73
4
 74
0
 40
0
 40
0
 40
0
 40
0
 40
1
 40
1
 40
1
 40
1
 10
139.894839
 20
183.605536
 30
0.0
 10
141.643208
 20
182.595877
 30
0.0
 10
143.797467
 20
182.595877
 30
0.0
 10
145.545837
 20
183.605536
 30
0.0
  0
SPLINE
  5
128
100
AcDbEntity
  8
0
 62
1
100
AcDbSpline
 70
8
 71
3
 72
8
 73
4
 74
0
 40
0
 40
0
 40
0
 40
0
 40
1
 40
1
 40
1
 40
1
 10
145.545837
 20
183.605536
 30
0.0
 10
147.294207
 20
184.615196
 30
0.0
 10
148.370955
 20
186.481058
 30
0.0
 10
148.370338
 20
188.500021
 30
0.0
  0
LWPOLYLINE
  5
129
100
AcDbEntity
  8
0
 62
1
100
AcDbPolyline
 90
1
 70
1
 10
98.370337
 20
188.500021
 30
0.0
  0
SPLINE
  5
12a
100
AcDbEntity
  8
0
 62
1
100
AcDbSpline
 70
8
 71
3
 72
8
 73
4
 74
0
 40
0
 40
0
 40
0
 40
0
 40
1
 40
1
 40
1
 40
1
 10
98.370337
 20
138.500023
 30
0.0
 10
98.370955
 20
140.518985
 30
0.0
 10
97.294206
 20
142.384848
 30
0.0
 10
95.545836
 20
143.394507
 30
0.0
  0
SPLINE
  5
12b
100
AcDbEntity
  8
0
 62
1
100
AcDbSpline
 70
8
 71
3
 72
8
 73
4
 74
0
 40
0
 40
0
 40
0
 40
0
 40
1
 40
1
 40
1
 40
1
 10
95.545836
 20
143.394507
 30
0.0
 10
93.797467
 20
144.404167
 30
0.0
 10
91.643208
 20
144.404167
 30
0.0
 10
89.894838
 20
143.394507
 30
0.0
  0
SPLINE
  5
12c
100
AcDbEntity
  8
0
 62
1
100
AcDbSpline
 70
8
 71
3
 72
8
 73
4
 74
0
 40
0
 40
0
 40
0
 40
0
 40
1
 40
1
 40
1
 40
1
 10
89.894838
 20
143.394507
 30
0.0
 10
88.146468
 20
142.384848
 30
0.0
 10
87.069720
 20
140.518985
 30
0.0
 10
87.070337
 20
138.500023
 30
0.0
  0
SPLINE
  5
12d
100
AcDbEntity
  8
0
 62
1
100
AcDbSpline
 70
8
 71
3
 72
8
 73
4
 74
0
 40
0
 40
0
 40
0
 40
0
 40
1
 40
1
 40
1
 40
1
 10
87.070337
 20
138.500023
 30
0.0
 10
87.069720
 20
136.481061
 30
0.0
 10
88.146468
 20
134.615198
 30
0.0
 10
89.894838
 20
133.605538
 30
0.0
  0
SPLINE
  5
12e
100
AcDbEntity
  8
0
 62
1
100
AcDbSpline
 70
8
 71
3
 72
8
 73
4
 74
0
 40
0
 40
0
 40
0
 40
0
 40
1
 40
1
 40
1
 40
1
 10
89.894838
 20
133.605538
 30
0.0
 10
91.643208
 20
132.595879
 30
0.0
 10
93.797467
 20
132.595879
 30
0.0
 10
95.545836
 20
133.605538
 30
0.0
  0
SPLINE
  5
12f
100
AcDbEntity
  8
0
 62
1
100
AcDbSpline
 70
8
 71
3
 72
8
 73
4
 74
0
 40
0
 40
0
 40
0
 40
0
 40
1
 40
1
 40
1
 40
1
 10
95.545836
 20
133.605538
 30
0.0
 10
97.294206
 20
134.615198
 30
0.0
 10
98.370955
 20
136.481061
 30
0.0
 10
98.370337
 20
138.500023
 30
0.0
  0
LWPOLYLINE
  5
130
100
AcDbEntity
  8
0
 62
1
100
AcDbPolyline
 90
1
 70
1
 10
148.370338
 20
188.500021
 30
0.0
  0
SPLINE
  5
131
100
AcDbEntity
  8
0
 62
1
100
AcDbSpline
 70
8
 71
3
 72
8
 73
4
 74
0
 40
0
 40
0
 40
0
 40
0
 40
1
 40
1
 40
1
 40
1
 10
48.370339
 20
88.500022
 30
0.0
 10
48.370339
 20
90.518573
 30
0.0
 10
47.293455
 20
92.383791
 30
0.0
 10
45.545339
 20
93.393067
 30
0.0
  0
SPLINE
  5
132
100
AcDbEntity
  8
0
 62
1
100
AcDbSpline
 70
8
 71
3
 72
8
 73
4
 74
0
 40
0
 40
0
 40
0
 40
0
 40
1
 40
1
 40
1
 40
1
 10
45.545339
 20
93.393067
 30
0.0
 10
43.797222
 20
94.402343
 30
0.0
 10
41.643454
 20
94.402343
 30
0.0
 10
39.895337
 20
93.393067
 30
0.0
  0
SPLINE
  5
133
100
AcDbEntity
  8
0
 62
1
100
AcDbSpline
 70
8
 71
3
 72
8
 73
4
 74
0
 40
0
 40
0
 40
0
 40
0
 40
1
 40
1
 40
1
 40
1
 10
39.895337
 20
93.393067
 30
0.0
 10
38.147221
 20
92.383791
 30
0.0
 10
37.070337
 20
90.518573
 30
0.0
 10
37.070337
 20
88.500022
 30
0.0
  0
SPLINE
  5
134
100
AcDbEntity
  8
0
 62
1
100
AcDbSpline
 70
8
 71
3
 72
8
 73
4
 74
0
 40
0
 40
0
 40
0
 40
0
 40
1
 40
1
 40
1
 40
1
 10
37.070337
 20
88.500022
 30
0.0
 10
37.070337
 20
86.481471
 30
0.0
 10
38.147221
 20
84.616253
 30
0.0
 10
39.895337
 20
83.606978
 30
0.0
  0
SPLINE
  5
135
100
AcDbEntity
  8
0
 62
1
100
AcDbSpline
 70
8
 71
3
 72
8
 73
4
 74
0
 40
0
 40
0
 40
0
 40
0
 40
1
 40
1
 40
1
 40
1
 10
39.895337
 20
83.606978
 30
0.0
 10
41.643454
 20
82.597702
 30
0.0
 10
43.797222
 20
82.597702
 30
0.0
 10
45.545339
 20
83.606978
 30
0.0
  0
SPLINE
  5
136
100
AcDbEntity
  8
0
 62
1
100
AcDbSpline
 70
8
 71
3
 72
8
 73
4
 74
0
 40
0
 40
0
 40
0
 40
0
 40
1
 40
1
 40
1
 40
1
 10
45.545339
 20
83.606978
 30
0.0
 10
47.293455
 20
84.616253
 30
0.0
 10
48.370339
 20
86.481471
 30
0.0
 10
48.370339
 20
88.500022
 30
0.0
  0
LWPOLYLINE
  5
137
100
AcDbEntity
  8
0
 62
1
100
AcDbPolyline
 90
1
 70
1
 10
98.370337
 20
138.500023
 30
0.0
  0
SPLINE
  5
138
100
AcDbEntity
  8
0
 62
1
100
AcDbSpline
 70
8
 71
3
 72
8
 73
4
 74
0
 40
0
 40
0
 40
0
 40
0
 40
1
 40
1
 40
1
 40
1
 10
98.370337
 20
88.500022
 30
0.0
 10
98.370955
 20
90.518985
 30
0.0
 10
97.294206
 20
92.384847
 30
0.0
 10
95.545836
 20
93.394507
 30
0.0
  0
SPLINE
  5
139
100
AcDbEntity
  8
0
 62
1
100
AcDbSpline
 70
8
 71
3
 72
8
 73
4
 74
0
 40
0
 40
0
 40
0
 40
0
 40
1
 40
1
 40
1
 40
1
 10
95.545836
 20
93.394507
 30
0.0
 10
93.797467
 20
94.404166
 30
0.0
 10
91.643208
 20
94.404166
 30
0.0
 10
89.894838
 20
93.394507
 30
0.0
  0
SPLINE
  5
13a
100
AcDbEntity
  8
0
 62
1
100
AcDbSpline
 70
8
 71
3
 72
8
 73
4
 74
0
 40
0
 40
0
 40
0
 40
0
 40
1
 40
1
 40
1
 40
1
 10
89.894838
 20
93.394507
 30
0.0
 10
88.146468
 20
92.384847
 30
0.0
 10
87.069720
 20
90.518985
 30
0.0
 10
87.070337
 20
88.500022
 30
0.0
  0
SPLINE
  5
13b
100
AcDbEntity
  8
0
 62
1
100
AcDbSpline
 70
8
 71
3
 72
8
 73
4
 74
0
 40
0
 40
0
 40
0
 40
0
 40
1
 40
1
 40
1
 40
1
 10
87.070337
 20
88.500022
 30
0.0
 10
87.069720
 20
86.481060
 30
0.0
 10
88.146468
 20
84.615197
 30
0.0
 10
89.894838
 20
83.605538
 30
0.0
  0
SPLINE
  5
13c
100
AcDbEntity
  8
0
 62
1
100
AcDbSpline
 70
8
 71
3
 72
8
 73
4
 74
0
 40
0
 40
0
 40
0
 40
0
 40
1
 40
1
 40
1
 40
1
 10
89.894838
 20
83.605538
 30
0.0
 10
91.643208
 20
82.595878
 30
0.0
 10
93.797467
 20
82.595878
 30
0.0
 10
95.545836
 20
83.605538
 30
0.0
  0
SPLINE
  5
13d
100
AcDbEntity
  8
0
 62
1
100
AcDbSpline
 70
8
 71
3
 72
8
 73
4
 74
0
 40
0
 40
0
 40
0
 40
0
 40
1
 40
1
 40
1
 40
1
 10
95.545836
 20
83.605538
 30
0.0
 10
97.294206
 20
84.615197
 30
0.0
 10
98.370955
 20
86.481060
 30
0.0
 10
98.370337
 20
88.500022
 30
0.0
  0
LWPOLYLINE
  5
13e
100
AcDbEntity
  8
0
 62
1
100
AcDbPolyline
 90
1
 70
1
 10
48.370339
 20
88.500022
 30
0.0
  0
SPLINE
  5
13f
100
AcDbEntity
  8
0
 62
1
100
AcDbSpline
 70
8
 71
3
 72
8
 73
4
 74
0
 40
0
 40
0
 40
0
 40
0
 40
1
 40
1
 40
1
 40
1
 10
148.370338
 20
88.500022
 30
0.0
 10
148.370955
 20
90.518985
 30
0.0
 10
147.294207
 20
92.384847
 30
0.0
 10
145.545837
 20
93.394507
 30
0.0
  0
SPLINE
  5
140
100
AcDbEntity
  8
0
 62
1
100
AcDbSpline
 70
8
 71
3
 72
8
 73
4
 74
0
 40
0
 40
0
 40
0
 40
0
 40
1
 40
1
 40
1
 40
1
 10
145.545837
 20
93.394507
 30
0.0
 10
143.797467
 20
94.404166
 30
0.0
 10
141.643208
 20
94.404166
 30
0.0
 10
139.894839
 20
93.394507
 30
0.0
  0
SPLINE
  5
141
100
AcDbEntity
  8
0
 62
1
100
AcDbSpline
 70
8
 71
3
 72
8
 73
4
 74
0
 40
0
 40
0
 40
0
 40
0
 40
1
 40
1
 40
1
 40
1
 10
139.894839
 20
93.394507
 30
0.0
 10
138.146469
 20
92.384847
 30
0.0
 10
137.069720
 20
90.518985
 30
0.0
 10
137.070338
 20
88.500022
 30
0.0
  0
SPLINE
  5
142
100
AcDbEntity
  8
0
 62
1
100
AcDbSpline
 70
8
 71
3
 72
8
 73
4
 74
0
 40
0
 40
0
 40
0
 40
0
 40
1
 40
1
 40
1
 40
1
 10
137.070338
 20
88.500022
 30
0.0
 10
137.069720
 20
86.481060
 30
0.0
 10
138.146469
 20
84.615197
 30
0.0
 10
139.894839
 20
83.605538
 30
0.0
  0
SPLINE
  5
143
100
AcDbEntity
  8
0
 62
1
100
AcDbSpline
 70
8
 71
3
 72
8
 73
4
 74
0
 40
0
 40
0
 40
0
 40
0
 40
1
 40
1
 40
1
 40
1
 10
139.894839
 20
83.605538
 30
0.0
 10
141.643208
 20
82.595878
 30
0.0
 10
143.797467
 20
82.595878
 30
0.0
 10
145.545837
 20
83.605538
 30
0.0
  0
SPLINE
  5
144
100
AcDbEntity
  8
0
 62
1
100
AcDbSpline
 70
8
 71
3
 72
8
 73
4
 74
0
 40
0
 40
0
 40
0
 40
0
 40
1
 40
1
 40
1
 40
1
 10
145.545837
 20
83.605538
 30
0.0
 10
147.294207
 20
84.615197
 30
0.0
 10
148.370955
 20
86.481060
 30
0.0
 10
148.370338
 20
88.500022
 30
0.0
  0
LWPOLYLINE
  5
145
100
AcDbEntity
  8
0
 62
1
100
AcDbPolyline
 90
1
 70
1
 10
98.370337
 20
88.500022
 30
0.0
  0
SPLINE
  5
146
100
AcDbEntity
  8
0
 62
1
100
AcDbSpline
 70
8
 71
3
 72
8
 73
4
 74
0
 40
0
 40
0
 40
0
 40
0
 40
1
 40
1
 40
1
 40
1
 10
98.370337
 20
38.500022
 30
0.0
 10
98.370955
 20
40.518984
 30
0.0
 10
97.294206
 20
42.384847
 30
0.0
 10
95.545836
 20
43.394506
 30
0.0
  0
SPLINE
  5
147
100
AcDbEntity
  8
0
 62
1
100
AcDbSpline
 70
8
 71
3
 72
8
 73
4
 74
0
 40
0
 40
0
 40
0
 40
0
 40
1
 40
1
 40
1
 40
1
 10
95.545836
 20
43.394506
 30
0.0
 10
93.797467
 20
44.404166
 30
0.0
 10
91.643208
 20
44.404166
 30
0.0
 10
89.894838
 20
43.394506
 30
0.0
  0
SPLINE
  5
148
100
AcDbEntity
  8
0
 62
1
100
AcDbSpline
 70
8
 71
3
 72
8
 73
4
 74
0
 40
0
 40
0
 40
0
 40
0
 40
1
 40
1
 40
1
 40
1
 10
89.894838
 20
43.394506
 30
0.0
 10
88.146468
 20
42.384847
 30
0.0
 10
87.069720
 20
40.518984
 30
0.0
 10
87.070337
 20
38.500022
 30
0.0
  0
SPLINE
  5
149
100
AcDbEntity
  8
0
 62
1
100
AcDbSpline
 70
8
 71
3
 72
8
 73
4
 74
0
 40
0
 40
0
 40
0
 40
0
 40
1
 40
1
 40
1
 40
1
 10
87.070337
 20
38.500022
 30
0.0
 10
87.069720
 20
36.481059
 30
0.0
 10
88.146468
 20
34.615197
 30
0.0
 10
89.894838
 20
33.605537
 30
0.0
  0
SPLINE
  5
14a
100
AcDbEntity
  8
0
 62
1
100
AcDbSpline
 70
8
 71
3
 72
8
 73
4
 74
0
 40
0
 40
0
 40
0
 40
0
 40
1
 40
1
 40
1
 40
1
 10
89.894838
 20
33.605537
 30
0.0
 10
91.643208
 20
32.595878
 30
0.0
 10
93.797467
 20
32.595878
 30
0.0
 10
95.545836
 20
33.605537
 30
0.0
  0
SPLINE
  5
14b
100
AcDbEntity
  8
0
 62
1
100
AcDbSpline
 70
8
 71
3
 72
8
 73
4
 74
0
 40
0
 40
0
 40
0
 40
0
 40
1
 40
1
 40
1
 40
1
 10
95.545836
 20
33.605537
 30
0.0
 10
97.294206
 20
34.615197
 30
0.0
 10
98.370955
 20
36.481059
 30
0.0
 10
98.370337
 20
38.500022
 30
0.0
  0
LWPOLYLINE
  5
14c
100
AcDbEntity
  8
0
 62
1
100
AcDbPolyline
 90
1
 70
1
 10
148.370338
 20
88.500022
 30
0.0
  0
SPLINE
  5
14d
100
AcDbEntity
  8
0
 62
1
100
AcDbSpline
 70
8
 71
3
 72
8
 73
4
 74
0
 40
0
 40
0
 40
0
 40
0
 40
1
 40
1
 40
1
 40
1
 10
98.370337
 20
238.500021
 30
0.0
 10
98.370955
 20
240.518984
 30
0.0
 10
97.294206
 20
242.384846
 30
0.0
 10
95.545836
 20
243.394506
 30
0.0
  0
SPLINE
  5
14e
100
AcDbEntity
  8
0
 62
1
100
AcDbSpline
 70
8
 71
3
 72
8
 73
4
 74
0
 40
0
 40
0
 40
0
 40
0
 40
1
 40
1
 40
1
 40
1
 10
95.545836
 20
243.394506
 30
0.0
 10
93.797467
 20
244.404165
 30
0.0
 10
91.643208
 20
244.404165
 30
0.0
 10
89.894838
 20
243.394506
 30
0.0
  0
SPLINE
  5
14f
100
AcDbEntity
  8
0
 62
1
100
AcDbSpline
 70
8
 71
3
 72
8
 73
4
 74
0
 40
0
 40
0
 40
0
 40
0
 40
1
 40
1
 40
1
 40
1
 10
89.894838
 20
243.394506
 30
0.0
 10
88.146468
 20
242.384846
 30
0.0
 10
87.069720
 20
240.518984
 30
0.0
 10
87.070337
 20
238.500021
 30
0.0
  0
SPLINE
  5
150
100
AcDbEntity
  8
0
 62
1
100
AcDbSpline
 70
8
 71
3
 72
8
 73
4
 74
0
 40
0
 40
0
 40
0
 40
0
 40
1
 40
1
 40
1
 40
1
 10
87.070337
 20
238.500021
 30
0.0
 10
87.069720
 20
236.481059
 30
0.0
 10
88.146468
 20
234.615196
 30
0.0
 10
89.894838
 20
233.605537
 30
0.0
  0
SPLINE
  5
151
100
AcDbEntity
  8
0
 62
1
100
AcDbSpline
 70
8
 71
3
 72
8
 73
4
 74
0
 40
0
 40
0
 40
0
 40
0
 40
1
 40
1
 40
1
 40
1
 10
89.894838
 20
233.605537
 30
0.0
 10
91.643208
 20
232.595877
 30
0.0
 10
93.797467
 20
232.595877
 30
0.0
 10
95.545836
 20
233.605537
 30
0.0
  0
SPLINE
  5
152
100
AcDbEntity
  8
0
 62
1
100
AcDbSpline
 70
8
 71
3
 72
8
 73
4
 74
0
 40
0
 40
0
 40
0
 40
0
 40
1
 40
1
 40
1
 40
1
 10
95.545836
 20
233.605537
 30
0.0
 10
97.294206
 20
234.615196
 30
0.0
 10
98.370955
 20
236.481059
 30
0.0
 10
98.370337
 20
238.500021
 30
0.0
  0
LWPOLYLINE
  5
153
100
AcDbEntity
  8
0
 62
1
100
AcDbPolyline
 90
1
 70
1
 10
98.370337
 20
38.500022
 30
0.0
  0
LWPOLYLINE
  5
154
100
AcDbEntity
  8
0
 62
1
100
AcDbPolyline
 90
1
 70
1
 10
98.370337
 20
238.500021
 30
0.0
  0
LWPOLYLINE
  5
155
100
AcDbEntity
  8
0
 62
7
100
AcDbPolyline
 90
3
 70
0
 10
182.720337
 20
138.500023
 30
0.0
 10
192.720338
 20
148.500021
 30
0.0
 10
272.720329
 20
148.500021
 30
0.0
  0
LWPOLYLINE
  5
156
100
AcDbEntity
  8
0
 62
7
100
AcDbPolyline
 90
2
 70
0
 10
182.720337
 20
138.500023
 30
0.0
 10
172.720339
 20
148.500021
 30
0.0
  0
SPLINE
  5
157
100
AcDbEntity
  8
0
 62
1
100
AcDbSpline
 70
8
 71
3
 72
8
 73
4
 74
0
 40
0
 40
0
 40
0
 40
0
 40
1
 40
1
 40
1
 40
1
 10
238.370338
 20
188.500021
 30
0.0
 10
238.370955
 20
190.518983
 30
0.0
 10
237.294207
 20
192.384846
 30
0.0
 10
235.545837
 20
193.394505
 30
0.0
  0
SPLINE
  5
158
100
AcDbEntity
  8
0
 62
1
100
AcDbSpline
 70
8
 71
3
 72
8
 73
4
 74
0
 40
0
 40
0
 40
0
 40
0
 40
1
 40
1
 40
1
 40
1
 10
235.545837
 20
193.394505
 30
0.0
 10
233.797467
 20
194.404165
 30
0.0
 10
231.643208
 20
194.404165
 30
0.0
 10
229.894839
 20
193.394505
 30
0.0
  0
SPLINE
  5
159
100
AcDbEntity
  8
0
 62
1
100
AcDbSpline
 70
8
 71
3
 72
8
 73
4
 74
0
 40
0
 40
0
 40
0
 40
0
 40
1
 40
1
 40
1
 40
1
 10
229.894839
 20
193.394505
 30
0.0
 10
228.146469
 20
192.384846
 30
0.0
 10
227.069720
 20
190.518983
 30
0.0
 10
227.070338
 20
188.500021
 30
0.0
  0
SPLINE
  5
15a
100
AcDbEntity
  8
0
 62
1
100
AcDbSpline
 70
8
 71
3
 72
8
 73
4
 74
0
 40
0
 40
0
 40
0
 40
0
 40
1
 40
1
 40
1
 40
1
 10
227.070338
 20
188.500021
 30
0.0
 10
227.069720
 20
186.481058
 30
0.0
 10
228.146469
 20
184.615196
 30
0.0
 10
229.894839
 20
183.605536
 30
0.0
  0
SPLINE
  5
15b
100
AcDbEntity
  8
0
 62
1
100
AcDbSpline
 70
8
 71
3
 72
8
 73
4
 74
0
 40
0
 40
0
 40
0
 40
0
 40
1
 40
1
 40
1
 40
1
 10
229.894839
 20
183.605536
 30
0.0
 10
231.643208
 20
182.595877
 30
0.0
 10
233.797467
 20
182.595877
 30
0.0
 10
235.545837
 20
183.605536
 30
0.0
  0
SPLINE
  5
15c
100
AcDbEntity
  8
0
 62
1
100
AcDbSpline
 70
8
 71
3
 72
8
 73
4
 74
0
 40
0
 40
0
 40
0
 40
0
 40
1
 40
1
 40
1
 40
1
 10
235.545837
 20
183.605536
 30
0.0
 10
237.294207
 20
184.615196
 30
0.0
 10
238.370955
 20
186.481058
 30
0.0
 10
238.370338
 20
188.500021
 30
0.0
  0
LWPOLYLINE
  5
15d
100
AcDbEntity
  8
0
 62
7
100
AcDbPolyline
 90
2
 70
0
 10
292.720342
 20
228.500023
 30
0.0
 10
292.720342
 20
148.500021
 30
0.0
  0
LWPOLYLINE
  5
15e
100
AcDbEntity
  8
0
 62
1
100
AcDbPolyline
 90
1
 70
1
 10
238.370338
 20
188.500021
 30
0.0
  0
LWPOLYLINE
  5
15f
100
AcDbEntity
  8
0
 62
7
100
AcDbPolyline
 90
2
 70
0
 10
282.720336
 20
138.500023
 30
0.0
 10
292.720342
 20
148.500021
 30
0.0
  0
LWPOLYLINE
  5
160
100
AcDbEntity
  8
0
 62
7
100
AcDbPolyline
 90
2
 70
0
 10
192.720338
 20
228.500023
 30
0.0
 10
192.720338
 20
148.500021
 30
0.0
  0
LWPOLYLINE
  5
161
100
AcDbEntity
  8
0
 62
7
100
AcDbPolyline
 90
2
 70
0
 10
272.720329
 20
228.500023
 30
0.0
 10
192.720338
 20
228.500023
 30
0.0
  0
LWPOLYLINE
  5
162
100
AcDbEntity
  8
0
 62
7
100
AcDbPolyline
 90
2
 70
0
 10
272.720329
 20
148.500021
 30
0.0
 10
282.720336
 20
138.500023
 30
0.0
  0
LWPOLYLINE
  5
163
100
AcDbEntity
  8
0
 62
7
100
AcDbPolyline
 90
2
 70
0
 10
292.720342
 20
128.500022
 30
0.0
 10
292.720342
 20
48.500023
 30
0.0
  0
LWPOLYLINE
  5
164
100
AcDbEntity
  8
0
 62
7
100
AcDbPolyline
 90
2
 70
0
 10
172.720339
 20
148.500021
 30
0.0
 10
172.720339
 20
228.500023
 30
0.0
  0
SPLINE
  5
165
100
AcDbEntity
  8
0
 62
1
100
AcDbSpline
 70
8
 71
3
 72
8
 73
4
 74
0
 40
0
 40
0
 40
0
 40
0
 40
1
 40
1
 40
1
 40
1
 10
188.370337
 20
188.500021
 30
0.0
 10
188.370955
 20
190.518983
 30
0.0
 10
187.294206
 20
192.384846
 30
0.0
 10
185.545836
 20
193.394505
 30
0.0
  0
SPLINE
  5
166
100
AcDbEntity
  8
0
 62
1
100
AcDbSpline
 70
8
 71
3
 72
8
 73
4
 74
0
 40
0
 40
0
 40
0
 40
0
 40
1
 40
1
 40
1
 40
1
 10
185.545836
 20
193.394505
 30
0.0
 10
183.797467
 20
194.404165
 30
0.0
 10
181.643208
 20
194.404165
 30
0.0
 10
179.894838
 20
193.394505
 30
0.0
  0
SPLINE
  5
167
100
AcDbEntity
  8
0
 62
1
100
AcDbSpline
 70
8
 71
3
 72
8
 73
4
 74
0
 40
0
 40
0
 40
0
 40
0
 40
1
 40
1
 40
1
 40
1
 10
179.894838
 20
193.394505
 30
0.0
 10
178.146468
 20
192.384846
 30
0.0
 10
177.069720
 20
190.518983
 30
0.0
 10
177.070337
 20
188.500021
 30
0.0
  0
SPLINE
  5
168
100
AcDbEntity
  8
0
 62
1
100
AcDbSpline
 70
8
 71
3
 72
8
 73
4
 74
0
 40
0
 40
0
 40
0
 40
0
 40
1
 40
1
 40
1
 40
1
 10
177.070337
 20
188.500021
 30
0.0
 10
177.069720
 20
186.481058
 30
0.0
 10
178.146468
 20
184.615196
 30
0.0
 10
179.894838
 20
183.605536
 30
0.0
  0
SPLINE
  5
169
100
AcDbEntity
  8
0
 62
1
100
AcDbSpline
 70
8
 71
3
 72
8
 73
4
 74
0
 40
0
 40
0
 40
0
 40
0
 40
1
 40
1
 40
1
 40
1
 10
179.894838
 20
183.605536
 30
0.0
 10
181.643208
 20
182.595877
 30
0.0
 10
183.797467
 20
182.595877
 30
0.0
 10
185.545836
 20
183.605536
 30
0.0
  0
SPLINE
  5
16a
100
AcDbEntity
  8
0
 62
1
100
AcDbSpline
 70
8
 71
3
 72
8
 73
4
 74
0
 40
0
 40
0
 40
0
 40
0
 40
1
 40
1
 40
1
 40
1
 10
185.545836
 20
183.605536
 30
0.0
 10
187.294206
 20
184.615196
 30
0.0
 10
188.370955
 20
186.481058
 30
0.0
 10
188.370337
 20
188.500021
 30
0.0
  0
LWPOLYLINE
  5
16b
100
AcDbEntity
  8
0
 62
7
100
AcDbPolyline
 90
2
 70
0
 10
272.720329
 20
148.500021
 30
0.0
 10
272.720329
 20
228.500023
 30
0.0
  0
LWPOLYLINE
  5
16c
100
AcDbEntity
  8
0
 62
1
100
AcDbPolyline
 90
1
 70
1
 10
188.370337
 20
188.500021
 30
0.0
  0
LWPOLYLINE
  5
16d
100
AcDbEntity
  8
0
 62
7
100
AcDbPolyline
 90
2
 70
0
 10
272.720329
 20
128.500022
 30
0.0
 10
282.720336
 20
138.500023
 30
0.0
  0
SPLINE
  5
16e
100
AcDbEntity
  8
0
 62
1
100
AcDbSpline
 70
8
 71
3
 72
8
 73
4
 74
0
 40
0
 40
0
 40
0
 40
0
 40
1
 40
1
 40
1
 40
1
 10
238.370338
 20
238.500021
 30
0.0
 10
238.370955
 20
240.518984
 30
0.0
 10
237.294207
 20
242.384846
 30
0.0
 10
235.545837
 20
243.394506
 30
0.0
  0
SPLINE
  5
16f
100
AcDbEntity
  8
0
 62
1
100
AcDbSpline
 70
8
 71
3
 72
8
 73
4
 74
0
 40
0
 40
0
 40
0
 40
0
 40
1
 40
1
 40
1
 40
1
 10
235.545837
 20
243.394506
 30
0.0
 10
233.797467
 20
244.404165
 30
0.0
 10
231.643208
 20
244.404165
 30
0.0
 10
229.894839
 20
243.394506
 30
0.0
  0
SPLINE
  5
170
100
AcDbEntity
  8
0
 62
1
100
AcDbSpline
 70
8
 71
3
 72
8
 73
4
 74
0
 40
0
 40
0
 40
0
 40
0
 40
1
 40
1
 40
1
 40
1
 10
229.894839
 20
243.394506
 30
0.0
 10
228.146469
 20
242.384846
 30
0.0
 10
227.069720
 20
240.518984
 30
0.0
 10
227.070338
 20
238.500021
 30
0.0
  0
SPLINE
  5
171
100
AcDbEntity
  8
0
 62
1
100
AcDbSpline
 70
8
 71
3
 72
8
 73
4
 74
0
 40
0
 40
0
 40
0
 40
0
 40
1
 40
1
 40
1
 40
1
 10
227.070338
 20
238.500021
 30
0.0
 10
227.069720
 20
236.481059
 30
0.0
 10
228.146469
 20
234.615196
 30
0.0
 10
229.894839
 20
233.605537
 30
0.0
  0
SPLINE
  5
172
100
AcDbEntity
  8
0
 62
1
100
AcDbSpline
 70
8
 71
3
 72
8
 73
4
 74
0
 40
0
 40
0
 40
0
 40
0
 40
1
 40
1
 40
1
 40
1
 10
229.894839
 20
233.605537
 30
0.0
 10
231.643208
 20
232.595877
 30
0.0
 10
233.797467
 20
232.595877
 30
0.0
 10
235.545837
 20
233.605537
 30
0.0
  0
SPLINE
  5
173
100
AcDbEntity
  8
0
 62
1
100
AcDbSpline
 70
8
 71
3
 72
8
 73
4
 74
0
 40
0
 40
0
 40
0
 40
0
 40
1
 40
1
 40
1
 40
1
 10
235.545837
 20
233.605537
 30
0.0
 10
237.294207
 20
234.615196
 30
0.0
 10
238.370955
 20
236.481059
 30
0.0
 10
238.370338
 20
238.500021
 30
0.0
  0
LWPOLYLINE
  5
174
100
AcDbEntity
  8
0
 62
7
100
AcDbPolyline
 90
2
 70
0
 10
282.720336
 20
238.500021
 30
0.0
 10
292.720342
 20
228.500023
 30
0.0
  0
LWPOLYLINE
  5
175
100
AcDbEntity
  8
0
 62
1
100
AcDbPolyline
 90
1
 70
1
 10
238.370338
 20
238.500021
 30
0.0
  0
LWPOLYLINE
  5
176
100
AcDbEntity
  8
0
 62
7
100
AcDbPolyline
 90
2
 70
0
 10
182.720337
 20
238.500021
 30
0.0
 10
192.720338
 20
228.500023
 30
0.0
  0
LWPOLYLINE
  5
177
100
AcDbEntity
  8
0
 62
7
100
AcDbPolyline
 90
2
 70
0
 10
192.720338
 20
128.500022
 30
0.0
 10
192.720338
 20
48.500023
 30
0.0
  0
LWPOLYLINE
  5
178
100
AcDbEntity
  8
0
 62
7
100
AcDbPolyline
 90
2
 70
0
 10
172.720339
 20
228.500023
 30
0.0
 10
182.720337
 20
238.500021
 30
0.0
  0
LWPOLYLINE
  5
179
100
AcDbEntity
  8
0
 62
7
100
AcDbPolyline
 90
2
 70
0
 10
282.720336
 20
38.500022
 30
0.0
 10
272.720329
 20
48.500023
 30
0.0
  0
LWPOLYLINE
  5
17a
100
AcDbEntity
  8
0
 62
7
100
AcDbPolyline
 90
2
 70
0
 10
282.720336
 20
138.500023
 30
0.0
 10
292.720342
 20
128.500022
 30
0.0
  0
SPLINE
  5
17b
100
AcDbEntity
  8
0
 62
1
100
AcDbSpline
 70
8
 71
3
 72
8
 73
4
 74
0
 40
0
 40
0
 40
0
 40
0
 40
1
 40
1
 40
1
 40
1
 10
238.370338
 20
138.500023
 30
0.0
 10
238.370955
 20
140.518985
 30
0.0
 10
237.294207
 20
142.384848
 30
0.0
 10
235.545837
 20
143.394507
 30
0.0
  0
SPLINE
  5
17c
100
AcDbEntity
  8
0
 62
1
100
AcDbSpline
 70
8
 71
3
 72
8
 73
4
 74
0
 40
0
 40
0
 40
0
 40
0
 40
1
 40
1
 40
1
 40
1
 10
235.545837
 20
143.394507
 30
0.0
 10
233.797467
 20
144.404167
 30
0.0
 10
231.643208
 20
144.404167
 30
0.0
 10
229.894839
 20
143.394507
 30
0.0
  0
SPLINE
  5
17d
100
AcDbEntity
  8
0
 62
1
100
AcDbSpline
 70
8
 71
3
 72
8
 73
4
 74
0
 40
0
 40
0
 40
0
 40
0
 40
1
 40
1
 40
1
 40
1
 10
229.894839
 20
143.394507
 30
0.0
 10
228.146469
 20
142.384848
 30
0.0
 10
227.069720
 20
140.518985
 30
0.0
 10
227.070338
 20
138.500023
 30
0.0
  0
SPLINE
  5
17e
100
AcDbEntity
  8
0
 62
1
100
AcDbSpline
 70
8
 71
3
 72
8
 73
4
 74
0
 40
0
 40
0
 40
0
 40
0
 40
1
 40
1
 40
1
 40
1
 10
227.070338
 20
138.500023
 30
0.0
 10
227.069720
 20
136.481061
 30
0.0
 10
228.146469
 20
134.615198
 30
0.0
 10
229.894839
 20
133.605538
 30
0.0
  0
SPLINE
  5
17f
100
AcDbEntity
  8
0
 62
1
100
AcDbSpline
 70
8
 71
3
 72
8
 73
4
 74
0
 40
0
 40
0
 40
0
 40
0
 40
1
 40
1
 40
1
 40
1
 10
229.894839
 20
133.605538
 30
0.0
 10
231.643208
 20
132.595879
 30
0.0
 10
233.797467
 20
132.595879
 30
0.0
 10
235.545837
 20
133.605538
 30
0.0
  0
SPLINE
  5
180
100
AcDbEntity
  8
0
 62
1
100
AcDbSpline
 70
8
 71
3
 72
8
 73
4
 74
0
 40
0
 40
0
 40
0
 40
0
 40
1
 40
1
 40
1
 40
1
 10
235.545837
 20
133.605538
 30
0.0
 10
237.294207
 20
134.615198
 30
0.0
 10
238.370955
 20
136.481061
 30
0.0
 10
238.370338
 20
138.500023
 30
0.0
  0
LWPOLYLINE
  5
181
100
AcDbEntity
  8
0
 62
7
100
AcDbPolyline
 90
2
 70
0
 10
192.720338
 20
248.500022
 30
0.0
 10
272.720329
 20
248.500022
 30
0.0
  0
LWPOLYLINE
  5
182
100
AcDbEntity
  8
0
 62
1
100
AcDbPolyline
 90
1
 70
1
 10
238.370338
 20
138.500023
 30
0.0
  0
LWPOLYLINE
  5
183
100
AcDbEntity
  8
0
 62
7
100
AcDbPolyline
 90
2
 70
0
 10
272.720329
 20
28.500013
 30
0.0
 10
192.720338
 20
28.500013
 30
0.0
  0
LWPOLYLINE
  5
184
100
AcDbEntity
  8
0
 62
7
100
AcDbPolyline
 90
2
 70
0
 10
272.720329
 20
228.500023
 30
0.0
 10
282.720336
 20
238.500021
 30
0.0
  0
SPLINE
  5
185
100
AcDbEntity
  8
0
 62
1
100
AcDbSpline
 70
8
 71
3
 72
8
 73
4
 74
0
 40
0
 40
0
 40
0
 40
0
 40
1
 40
1
 40
1
 40
1
 10
188.370337
 20
88.500022
 30
0.0
 10
188.370955
 20
90.518985
 30
0.0
 10
187.294206
 20
92.384847
 30
0.0
 10
185.545836
 20
93.394507
 30
0.0
  0
SPLINE
  5
186
100
AcDbEntity
  8
0
 62
1
100
AcDbSpline
 70
8
 71
3
 72
8
 73
4
 74
0
 40
0
 40
0
 40
0
 40
0
 40
1
 40
1
 40
1
 40
1
 10
185.545836
 20
93.394507
 30
0.0
 10
183.797467
 20
94.404166
 30
0.0
 10
181.643208
 20
94.404166
 30
0.0
 10
179.894838
 20
93.394507
 30
0.0
  0
SPLINE
  5
187
100
AcDbEntity
  8
0
 62
1
100
AcDbSpline
 70
8
 71
3
 72
8
 73
4
 74
0
 40
0
 40
0
 40
0
 40
0
 40
1
 40
1
 40
1
 40
1
 10
179.894838
 20
93.394507
 30
0.0
 10
178.146468
 20
92.384847
 30
0.0
 10
177.069720
 20
90.518985
 30
0.0
 10
177.070337
 20
88.500022
 30
0.0
  0
SPLINE
  5
188
100
AcDbEntity
  8
0
 62
1
100
AcDbSpline
 70
8
 71
3
 72
8
 73
4
 74
0
 40
0
 40
0
 40
0
 40
0
 40
1
 40
1
 40
1
 40
1
 10
177.070337
 20
88.500022
 30
0.0
 10
177.069720
 20
86.481060
 30
0.0
 10
178.146468
 20
84.615197
 30
0.0
 10
179.894838
 20
83.605538
 30
0.0
  0
SPLINE
  5
189
100
AcDbEntity
  8
0
 62
1
100
AcDbSpline
 70
8
 71
3
 72
8
 73
4
 74
0
 40
0
 40
0
 40
0
 40
0
 40
1
 40
1
 40
1
 40
1
 10
179.894838
 20
83.605538
 30
0.0
 10
181.643208
 20
82.595878
 30
0.0
 10
183.797467
 20
82.595878
 30
0.0
 10
185.545836
 20
83.605538
 30
0.0
  0
SPLINE
  5
18a
100
AcDbEntity
  8
0
 62
1
100
AcDbSpline
 70
8
 71
3
 72
8
 73
4
 74
0
 40
0
 40
0
 40
0
 40
0
 40
1
 40
1
 40
1
 40
1
 10
185.545836
 20
83.605538
 30
0.0
 10
187.294206
 20
84.615197
 30
0.0
 10
188.370955
 20
86.481060
 30
0.0
 10
188.370337
 20
88.500022
 30
0.0
  0
LWPOLYLINE
  5
18b
100
AcDbEntity
  8
0
 62
7
100
AcDbPolyline
 90
2
 70
0
 10
272.720329
 20
128.500022
 30
0.0
 10
192.720338
 20
128.500022
 30
0.0
  0
LWPOLYLINE
  5
18c
100
AcDbEntity
  8
0
 62
1
100
AcDbPolyline
 90
1
 70
1
 10
188.370337
 20
88.500022
 30
0.0
  0
LWPOLYLINE
  5
18d
100
AcDbEntity
  8
0
 62
7
100
AcDbPolyline
 90
2
 70
0
 10
182.720337
 20
38.500022
 30
0.0
 10
192.720338
 20
48.500023
 30
0.0
  0
LWPOLYLINE
  5
18e
100
AcDbEntity
  8
0
 62
7
100
AcDbPolyline
 90
2
 70
0
 10
272.720329
 20
248.500022
 30
0.0
 10
282.720336
 20
238.500021
 30
0.0
  0
LWPOLYLINE
  5
18f
100
AcDbEntity
  8
0
 62
7
100
AcDbPolyline
 90
2
 70
0
 10
292.720342
 20
48.500023
 30
0.0
 10
282.720336
 20
38.500022
 30
0.0
  0
SPLINE
  5
190
100
AcDbEntity
  8
0
 62
1
100
AcDbSpline
 70
8
 71
3
 72
8
 73
4
 74
0
 40
0
 40
0
 40
0
 40
0
 40
1
 40
1
 40
1
 40
1
 10
238.370338
 20
88.500022
 30
0.0
 10
238.370955
 20
90.518985
 30
0.0
 10
237.294207
 20
92.384847
 30
0.0
 10
235.545837
 20
93.394507
 30
0.0
  0
SPLINE
  5
191
100
AcDbEntity
  8
0
 62
1
100
AcDbSpline
 70
8
 71
3
 72
8
 73
4
 74
0
 40
0
 40
0
 40
0
 40
0
 40
1
 40
1
 40
1
 40
1
 10
235.545837
 20
93.394507
 30
0.0
 10
233.797467
 20
94.404166
 30
0.0
 10
231.643208
 20
94.404166
 30
0.0
 10
229.894839
 20
93.394507
 30
0.0
  0
SPLINE
  5
192
100
AcDbEntity
  8
0
 62
1
100
AcDbSpline
 70
8
 71
3
 72
8
 73
4
 74
0
 40
0
 40
0
 40
0
 40
0
 40
1
 40
1
 40
1
 40
1
 10
229.894839
 20
93.394507
 30
0.0
 10
228.146469
 20
92.384847
 30
0.0
 10
227.069720
 20
90.518985
 30
0.0
 10
227.070338
 20
88.500022
 30
0.0
  0
SPLINE
  5
193
100
AcDbEntity
  8
0
 62
1
100
AcDbSpline
 70
8
 71
3
 72
8
 73
4
 74
0
 40
0
 40
0
 40
0
 40
0
 40
1
 40
1
 40
1
 40
1
 10
227.070338
 20
88.500022
 30
0.0
 10
227.069720
 20
86.481060
 30
0.0
 10
228.146469
 20
84.615197
 30
0.0
 10
229.894839
 20
83.605538
 30
0.0
  0
SPLINE
  5
194
100
AcDbEntity
  8
0
 62
1
100
AcDbSpline
 70
8
 71
3
 72
8
 73
4
 74
0
 40
0
 40
0
 40
0
 40
0
 40
1
 40
1
 40
1
 40
1
 10
229.894839
 20
83.605538
 30
0.0
 10
231.643208
 20
82.595878
 30
0.0
 10
233.797467
 20
82.595878
 30
0.0
 10
235.545837
 20
83.605538
 30
0.0
  0
SPLINE
  5
195
100
AcDbEntity
  8
0
 62
1
100
AcDbSpline
 70
8
 71
3
 72
8
 73
4
 74
0
 40
0
 40
0
 40
0
 40
0
 40
1
 40
1
 40
1
 40
1
 10
235.545837
 20
83.605538
 30
0.0
 10
237.294207
 20
84.615197
 30
0.0
 10
238.370955
 20
86.481060
 30
0.0
 10
238.370338
 20
88.500022
 30
0.0
  0
LWPOLYLINE
  5
196
100
AcDbEntity
  8
0
 62
7
100
AcDbPolyline
 90
2
 70
0
 10
192.720338
 20
48.500023
 30
0.0
 10
272.720329
 20
48.500023
 30
0.0
  0
LWPOLYLINE
  5
197
100
AcDbEntity
  8
0
 62
1
100
AcDbPolyline
 90
1
 70
1
 10
238.370338
 20
88.500022
 30
0.0
  0
LWPOLYLINE
  5
198
100
AcDbEntity
  8
0
 62
7
100
AcDbPolyline
 90
2
 70
0
 10
172.720339
 20
48.500023
 30
0.0
 10
172.720339
 20
128.500022
 30
0.0
  0
LWPOLYLINE
  5
199
100
AcDbEntity
  8
0
 62
7
100
AcDbPolyline
 90
2
 70
0
 10
182.720337
 20
38.500022
 30
0.0
 10
192.720338
 20
28.500013
 30
0.0
  0
SPLINE
  5
19a
100
AcDbEntity
  8
0
 62
1
100
AcDbSpline
 70
8
 71
3
 72
8
 73
4
 74
0
 40
0
 40
0
 40
0
 40
0
 40
1
 40
1
 40
1
 40
1
 10
238.370338
 20
38.500022
 30
0.0
 10
238.370955
 20
40.518984
 30
0.0
 10
237.294207
 20
42.384847
 30
0.0
 10
235.545837
 20
43.394506
 30
0.0
  0
SPLINE
  5
19b
100
AcDbEntity
  8
0
 62
1
100
AcDbSpline
 70
8
 71
3
 72
8
 73
4
 74
0
 40
0
 40
0
 40
0
 40
0
 40
1
 40
1
 40
1
 40
1
 10
235.545837
 20
43.394506
 30
0.0
 10
233.797467
 20
44.404166
 30
0.0
 10
231.643208
 20
44.404166
 30
0.0
 10
229.894839
 20
43.394506
 30
0.0
  0
SPLINE
  5
19c
100
AcDbEntity
  8
0
 62
1
100
AcDbSpline
 70
8
 71
3
 72
8
 73
4
 74
0
 40
0
 40
0
 40
0
 40
0
 40
1
 40
1
 40
1
 40
1
 10
229.894839
 20
43.394506
 30
0.0
 10
228.146469
 20
42.384847
 30
0.0
 10
227.069720
 20
40.518984
 30
0.0
 10
227.070338
 20
38.500022
 30
0.0
  0
SPLINE
  5
19d
100
AcDbEntity
  8
0
 62
1
100
AcDbSpline
 70
8
 71
3
 72
8
 73
4
 74
0
 40
0
 40
0
 40
0
 40
0
 40
1
 40
1
 40
1
 40
1
 10
227.070338
 20
38.500022
 30
0.0
 10
227.069720
 20
36.481059
 30
0.0
 10
228.146469
 20
34.615197
 30
0.0
 10
229.894839
 20
33.605537
 30
0.0
  0
SPLINE
  5
19e
100
AcDbEntity
  8
0
 62
1
100
AcDbSpline
 70
8
 71
3
 72
8
 73
4
 74
0
 40
0
 40
0
 40
0
 40
0
 40
1
 40
1
 40
1
 40
1
 10
229.894839
 20
33.605537
 30
0.0
 10
231.643208
 20
32.595878
 30
0.0
 10
233.797467
 20
32.595878
 30
0.0
 10
235.545837
 20
33.605537
 30
0.0
  0
SPLINE
  5
19f
100
AcDbEntity
  8
0
 62
1
100
AcDbSpline
 70
8
 71
3
 72
8
 73
4
 74
0
 40
0
 40
0
 40
0
 40
0
 40
1
 40
1
 40
1
 40
1
 10
235.545837
 20
33.605537
 30
0.0
 10
237.294207
 20
34.615197
 30
0.0
 10
238.370955
 20
36.481059
 30
0.0
 10
238.370338
 20
38.500022
 30
0.0
  0
LWPOLYLINE
  5
1a0
100
AcDbEntity
  8
0
 62
7
100
AcDbPolyline
 90
2
 70
0
 10
172.720339
 20
128.500022
 30
0.0
 10
182.720337
 20
138.500023
 30
0.0
  0
LWPOLYLINE
  5
1a1
100
AcDbEntity
  8
0
 62
1
100
AcDbPolyline
 90
1
 70
1
 10
238.370338
 20
38.500022
 30
0.0
  0
LWPOLYLINE
  5
1a2
100
AcDbEntity
  8
0
 62
7
100
AcDbPolyline
 90
2
 70
0
 10
272.720329
 20
48.500023
 30
0.0
 10
272.720329
 20
128.500022
 30
0.0
  0
LWPOLYLINE
  5
1a3
100
AcDbEntity
  8
0
 62
7
100
AcDbPolyline
 90
2
 70
0
 10
182.720337
 20
238.500021
 30
0.0
 10
192.720338
 20
248.500022
 30
0.0
  0
LWPOLYLINE
  5
1a4
100
AcDbEntity
  8
0
 62
7
100
AcDbPolyline
 90
2
 70
0
 10
192.720338
 20
128.500022
 30
0.0
 10
182.720337
 20
138.500023
 30
0.0
  0
SPLINE
  5
1a5
100
AcDbEntity
  8
0
 62
1
100
AcDbSpline
 70
8
 71
3
 72
8
 73
4
 74
0
 40
0
 40
0
 40
0
 40
0
 40
1
 40
1
 40
1
 40
1
 10
288.370327
 20
188.500021
 30
0.0
 10
288.373771
 20
190.520862
 30
0.0
 10
287.297642
 20
192.389671
 30
0.0
 10
285.548114
 20
193.401086
 30
0.0
  0
SPLINE
  5
1a6
100
AcDbEntity
  8
0
 62
1
100
AcDbSpline
 70
8
 71
3
 72
8
 73
4
 74
0
 40
0
 40
0
 40
0
 40
0
 40
1
 40
1
 40
1
 40
1
 10
285.548114
 20
193.401086
 30
0.0
 10
283.798586
 20
194.412502
 30
0.0
 10
281.642085
 20
194.412502
 30
0.0
 10
279.892557
 20
193.401086
 30
0.0
  0
SPLINE
  5
1a7
100
AcDbEntity
  8
0
 62
1
100
AcDbSpline
 70
8
 71
3
 72
8
 73
4
 74
0
 40
0
 40
0
 40
0
 40
0
 40
1
 40
1
 40
1
 40
1
 10
279.892557
 20
193.401086
 30
0.0
 10
278.143029
 20
192.389671
 30
0.0
 10
277.066900
 20
190.520862
 30
0.0
 10
277.070344
 20
188.500021
 30
0.0
  0
SPLINE
  5
1a8
100
AcDbEntity
  8
0
 62
1
100
AcDbSpline
 70
8
 71
3
 72
8
 73
4
 74
0
 40
0
 40
0
 40
0
 40
0
 40
1
 40
1
 40
1
 40
1
 10
277.070344
 20
188.500021
 30
0.0
 10
277.066900
 20
186.479180
 30
0.0
 10
278.143029
 20
184.610371
 30
0.0
 10
279.892557
 20
183.598955
 30
0.0
  0
SPLINE
  5
1a9
100
AcDbEntity
  8
0
 62
1
100
AcDbSpline
 70
8
 71
3
 72
8
 73
4
 74
0
 40
0
 40
0
 40
0
 40
0
 40
1
 40
1
 40
1
 40
1
 10
279.892557
 20
183.598955
 30
0.0
 10
281.642085
 20
182.587540
 30
0.0
 10
283.798586
 20
182.587540
 30
0.0
 10
285.548114
 20
183.598955
 30
0.0
  0
SPLINE
  5
1aa
100
AcDbEntity
  8
0
 62
1
100
AcDbSpline
 70
8
 71
3
 72
8
 73
4
 74
0
 40
0
 40
0
 40
0
 40
0
 40
1
 40
1
 40
1
 40
1
 10
285.548114
 20
183.598955
 30
0.0
 10
287.297642
 20
184.610371
 30
0.0
 10
288.373771
 20
186.479180
 30
0.0
 10
288.370327
 20
188.500021
 30
0.0
  0
LWPOLYLINE
  5
1ab
100
AcDbEntity
  8
0
 62
7
100
AcDbPolyline
 90
2
 70
0
 10
182.720337
 20
38.500022
 30
0.0
 10
172.720339
 20
48.500023
 30
0.0
  0
SPLINE
  5
1ac
100
AcDbEntity
  8
0
 62
1
100
AcDbSpline
 70
8
 71
3
 72
8
 73
4
 74
0
 40
0
 40
0
 40
0
 40
0
 40
1
 40
1
 40
1
 40
1
 10
288.370327
 20
88.500022
 30
0.0
 10
288.373771
 20
90.520863
 30
0.0
 10
287.297642
 20
92.389672
 30
0.0
 10
285.548114
 20
93.401088
 30
0.0
  0
SPLINE
  5
1ad
100
AcDbEntity
  8
0
 62
1
100
AcDbSpline
 70
8
 71
3
 72
8
 73
4
 74
0
 40
0
 40
0
 40
0
 40
0
 40
1
 40
1
 40
1
 40
1
 10
285.548114
 20
93.401088
 30
0.0
 10
283.798586
 20
94.412504
 30
0.0
 10
281.642085
 20
94.412504
 30
0.0
 10
279.892557
 20
93.401088
 30
0.0
  0
SPLINE
  5
1ae
100
AcDbEntity
  8
0
 62
1
100
AcDbSpline
 70
8
 71
3
 72
8
 73
4
 74
0
 40
0
 40
0
 40
0
 40
0
 40
1
 40
1
 40
1
 40
1
 10
279.892557
 20
93.401088
 30
0.0
 10
278.143029
 20
92.389672
 30
0.0
 10
277.066900
 20
90.520863
 30
0.0
 10
277.070344
 20
88.500022
 30
0.0
  0
SPLINE
  5
1af
100
AcDbEntity
  8
0
 62
1
100
AcDbSpline
 70
8
 71
3
 72
8
 73
4
 74
0
 40
0
 40
0
 40
0
 40
0
 40
1
 40
1
 40
1
 40
1
 10
277.070344
 20
88.500022
 30
0.0
 10
277.066900
 20
86.479182
 30
0.0
 10
278.143029
 20
84.610373
 30
0.0
 10
279.892557
 20
83.598957
 30
0.0
  0
SPLINE
  5
1b0
100
AcDbEntity
  8
0
 62
1
100
AcDbSpline
 70
8
 71
3
 72
8
 73
4
 74
0
 40
0
 40
0
 40
0
 40
0
 40
1
 40
1
 40
1
 40
1
 10
279.892557
 20
83.598957
 30
0.0
 10
281.642085
 20
82.587541
 30
0.0
 10
283.798586
 20
82.587541
 30
0.0
 10
285.548114
 20
83.598957
 30
0.0
  0
SPLINE
  5
1b1
100
AcDbEntity
  8
0
 62
1
100
AcDbSpline
 70
8
 71
3
 72
8
 73
4
 74
0
 40
0
 40
0
 40
0
 40
0
 40
1
 40
1
 40
1
 40
1
 10
285.548114
 20
83.598957
 30
0.0
 10
287.297642
 20
84.610373
 30
0.0
 10
288.373771
 20
86.479182
 30
0.0
 10
288.370327
 20
88.500022
 30
0.0
  0
LWPOLYLINE
  5
1b2
100
AcDbEntity
  8
0
 62
1
100
AcDbPolyline
 90
1
 70
1
 10
288.370327
 20
188.500021
 30
0.0
  0
LWPOLYLINE
  5
1b3
100
AcDbEntity
  8
0
 62
1
100
AcDbPolyline
 90
1
 70
1
 10
288.370327
 20
88.500022
 30
0.0
  0
LWPOLYLINE
  5
1b4
100
AcDbEntity
  8
0
 62
7
100
AcDbPolyline
 90
2
 70
0
 10
272.720329
 20
28.500013
 30
0.0
 10
282.720336
 20
38.500022
 30
0.0
  0
LWPOLYLINE
  5
1b5
100
AcDbEntity
  8
0
 62
7
100
AcDbPolyline
 90
3
 70
0
 10
322.720335
 20
138.500023
 30
0.0
 10
332.720341
 20
148.500021
 30
0.0
 10
412.720340
 20
148.500021
 30
0.0
  0
LWPOLYLINE
  5
1b6
100
AcDbEntity
  8
0
 62
7
100
AcDbPolyline
 90
2
 70
0
 10
322.720335
 20
138.500023
 30
0.0
 10
312.720329
 20
148.500021
 30
0.0
  0
SPLINE
  5
1b7
100
AcDbEntity
  8
0
 62
1
100
AcDbSpline
 70
8
 71
3
 72
8
 73
4
 74
0
 40
0
 40
0
 40
0
 40
0
 40
1
 40
1
 40
1
 40
1
 10
378.370333
 20
188.500021
 30
0.0
 10
378.373776
 20
190.520862
 30
0.0
 10
377.297647
 20
192.389671
 30
0.0
 10
375.548120
 20
193.401086
 30
0.0
  0
SPLINE
  5
1b8
100
AcDbEntity
  8
0
 62
1
100
AcDbSpline
 70
8
 71
3
 72
8
 73
4
 74
0
 40
0
 40
0
 40
0
 40
0
 40
1
 40
1
 40
1
 40
1
 10
375.548120
 20
193.401086
 30
0.0
 10
373.798592
 20
194.412502
 30
0.0
 10
371.642090
 20
194.412502
 30
0.0
 10
369.892562
 20
193.401086
 30
0.0
  0
SPLINE
  5
1b9
100
AcDbEntity
  8
0
 62
1
100
AcDbSpline
 70
8
 71
3
 72
8
 73
4
 74
0
 40
0
 40
0
 40
0
 40
0
 40
1
 40
1
 40
1
 40
1
 10
369.892562
 20
193.401086
 30
0.0
 10
368.143034
 20
192.389671
 30
0.0
 10
367.066906
 20
190.520862
 30
0.0
 10
367.070349
 20
188.500021
 30
0.0
  0
SPLINE
  5
1ba
100
AcDbEntity
  8
0
 62
1
100
AcDbSpline
 70
8
 71
3
 72
8
 73
4
 74
0
 40
0
 40
0
 40
0
 40
0
 40
1
 40
1
 40
1
 40
1
 10
367.070349
 20
188.500021
 30
0.0
 10
367.066906
 20
186.479180
 30
0.0
 10
368.143034
 20
184.610371
 30
0.0
 10
369.892562
 20
183.598955
 30
0.0
  0
SPLINE
  5
1bb
100
AcDbEntity
  8
0
 62
1
100
AcDbSpline
 70
8
 71
3
 72
8
 73
4
 74
0
 40
0
 40
0
 40
0
 40
0
 40
1
 40
1
 40
1
 40
1
 10
369.892562
 20
183.598955
 30
0.0
 10
371.642090
 20
182.587540
 30
0.0
 10
373.798592
 20
182.587540
 30
0.0
 10
375.548120
 20
183.598955
 30
0.0
  0
SPLINE
  5
1bc
100
AcDbEntity
  8
0
 62
1
100
AcDbSpline
 70
8
 71
3
 72
8
 73
4
 74
0
 40
0
 40
0
 40
0
 40
0
 40
1
 40
1
 40
1
 40
1
 10
375.548120
 20
183.598955
 30
0.0
 10
377.297647
 20
184.610371
 30
0.0
 10
378.373776
 20
186.479180
 30
0.0
 10
378.370333
 20
188.500021
 30
0.0
  0
LWPOLYLINE
  5
1bd
100
AcDbEntity
  8
0
 62
7
100
AcDbPolyline
 90
2
 70
0
 10
432.720327
 20
228.500023
 30
0.0
 10
432.720327
 20
148.500021
 30
0.0
  0
LWPOLYLINE
  5
1be
100
AcDbEntity
  8
0
 62
1
100
AcDbPolyline
 90
1
 70
1
 10
378.370333
 20
188.500021
 30
0.0
  0
LWPOLYLINE
  5
1bf
100
AcDbEntity
  8
0
 62
7
100
AcDbPolyline
 90
2
 70
0
 10
422.720347
 20
138.500023
 30
0.0
 10
432.720327
 20
148.500021
 30
0.0
  0
LWPOLYLINE
  5
1c0
100
AcDbEntity
  8
0
 62
7
100
AcDbPolyline
 90
2
 70
0
 10
332.720341
 20
228.500023
 30
0.0
 10
332.720341
 20
148.500021
 30
0.0
  0
LWPOLYLINE
  5
1c1
100
AcDbEntity
  8
0
 62
7
100
AcDbPolyline
 90
2
 70
0
 10
412.720340
 20
228.500023
 30
0.0
 10
332.720341
 20
228.500023
 30
0.0
  0
LWPOLYLINE
  5
1c2
100
AcDbEntity
  8
0
 62
7
100
AcDbPolyline
 90
2
 70
0
 10
412.720340
 20
148.500021
 30
0.0
 10
422.720347
 20
138.500023
 30
0.0
  0
LWPOLYLINE
  5
1c3
100
AcDbEntity
  8
0
 62
7
100
AcDbPolyline
 90
2
 70
0
 10
432.720327
 20
128.500022
 30
0.0
 10
432.720327
 20
48.500023
 30
0.0
  0
LWPOLYLINE
  5
1c4
100
AcDbEntity
  8
0
 62
7
100
AcDbPolyline
 90
2
 70
0
 10
312.720329
 20
148.500021
 30
0.0
 10
312.720329
 20
228.500023
 30
0.0
  0
SPLINE
  5
1c5
100
AcDbEntity
  8
0
 62
1
100
AcDbSpline
 70
8
 71
3
 72
8
 73
4
 74
0
 40
0
 40
0
 40
0
 40
0
 40
1
 40
1
 40
1
 40
1
 10
328.370327
 20
188.500021
 30
0.0
 10
328.373770
 20
190.520862
 30
0.0
 10
327.297642
 20
192.389671
 30
0.0
 10
325.548114
 20
193.401086
 30
0.0
  0
SPLINE
  5
1c6
100
AcDbEntity
  8
0
 62
1
100
AcDbSpline
 70
8
 71
3
 72
8
 73
4
 74
0
 40
0
 40
0
 40
0
 40
0
 40
1
 40
1
 40
1
 40
1
 10
325.548114
 20
193.401086
 30
0.0
 10
323.798586
 20
194.412502
 30
0.0
 10
321.642084
 20
194.412502
 30
0.0
 10
319.892556
 20
193.401086
 30
0.0
  0
SPLINE
  5
1c7
100
AcDbEntity
  8
0
 62
1
100
AcDbSpline
 70
8
 71
3
 72
8
 73
4
 74
0
 40
0
 40
0
 40
0
 40
0
 40
1
 40
1
 40
1
 40
1
 10
319.892556
 20
193.401086
 30
0.0
 10
318.143028
 20
192.389671
 30
0.0
 10
317.066900
 20
190.520862
 30
0.0
 10
317.070343
 20
188.500021
 30
0.0
  0
SPLINE
  5
1c8
100
AcDbEntity
  8
0
 62
1
100
AcDbSpline
 70
8
 71
3
 72
8
 73
4
 74
0
 40
0
 40
0
 40
0
 40
0
 40
1
 40
1
 40
1
 40
1
 10
317.070343
 20
188.500021
 30
0.0
 10
317.066900
 20
186.479180
 30
0.0
 10
318.143028
 20
184.610371
 30
0.0
 10
319.892556
 20
183.598955
 30
0.0
  0
SPLINE
  5
1c9
100
AcDbEntity
  8
0
 62
1
100
AcDbSpline
 70
8
 71
3
 72
8
 73
4
 74
0
 40
0
 40
0
 40
0
 40
0
 40
1
 40
1
 40
1
 40
1
 10
319.892556
 20
183.598955
 30
0.0
 10
321.642084
 20
182.587540
 30
0.0
 10
323.798586
 20
182.587540
 30
0.0
 10
325.548114
 20
183.598955
 30
0.0
  0
SPLINE
  5
1ca
100
AcDbEntity
  8
0
 62
1
100
AcDbSpline
 70
8
 71
3
 72
8
 73
4
 74
0
 40
0
 40
0
 40
0
 40
0
 40
1
 40
1
 40
1
 40
1
 10
325.548114
 20
183.598955
 30
0.0
 10
327.297642
 20
184.610371
 30
0.0
 10
328.373770
 20
186.479180
 30
0.0
 10
328.370327
 20
188.500021
 30
0.0
  0
LWPOLYLINE
  5
1cb
100
AcDbEntity
  8
0
 62
7
100
AcDbPolyline
 90
2
 70
0
 10
412.720340
 20
148.500021
 30
0.0
 10
412.720340
 20
228.500023
 30
0.0
  0
LWPOLYLINE
  5
1cc
100
AcDbEntity
  8
0
 62
1
100
AcDbPolyline
 90
1
 70
1
 10
328.370327
 20
188.500021
 30
0.0
  0
LWPOLYLINE
  5
1cd
100
AcDbEntity
  8
0
 62
7
100
AcDbPolyline
 90
2
 70
0
 10
412.720340
 20
128.500022
 30
0.0
 10
422.720347
 20
138.500023
 30
0.0
  0
SPLINE
  5
1ce
100
AcDbEntity
  8
0
 62
1
100
AcDbSpline
 70
8
 71
3
 72
8
 73
4
 74
0
 40
0
 40
0
 40
0
 40
0
 40
1
 40
1
 40
1
 40
1
 10
378.370333
 20
238.500021
 30
0.0
 10
378.373776
 20
240.520862
 30
0.0
 10
377.297647
 20
242.389671
 30
0.0
 10
375.548120
 20
243.401087
 30
0.0
  0
SPLINE
  5
1cf
100
AcDbEntity
  8
0
 62
1
100
AcDbSpline
 70
8
 71
3
 72
8
 73
4
 74
0
 40
0
 40
0
 40
0
 40
0
 40
1
 40
1
 40
1
 40
1
 10
375.548120
 20
243.401087
 30
0.0
 10
373.798592
 20
244.412503
 30
0.0
 10
371.642090
 20
244.412503
 30
0.0
 10
369.892562
 20
243.401087
 30
0.0
  0
SPLINE
  5
1d0
100
AcDbEntity
  8
0
 62
1
100
AcDbSpline
 70
8
 71
3
 72
8
 73
4
 74
0
 40
0
 40
0
 40
0
 40
0
 40
1
 40
1
 40
1
 40
1
 10
369.892562
 20
243.401087
 30
0.0
 10
368.143034
 20
242.389671
 30
0.0
 10
367.066906
 20
240.520862
 30
0.0
 10
367.070349
 20
238.500021
 30
0.0
  0
SPLINE
  5
1d1
100
AcDbEntity
  8
0
 62
1
100
AcDbSpline
 70
8
 71
3
 72
8
 73
4
 74
0
 40
0
 40
0
 40
0
 40
0
 40
1
 40
1
 40
1
 40
1
 10
367.070349
 20
238.500021
 30
0.0
 10
367.066906
 20
236.479180
 30
0.0
 10
368.143034
 20
234.610372
 30
0.0
 10
369.892562
 20
233.598956
 30
0.0
  0
SPLINE
  5
1d2
100
AcDbEntity
  8
0
 62
1
100
AcDbSpline
 70
8
 71
3
 72
8
 73
4
 74
0
 40
0
 40
0
 40
0
 40
0
 40
1
 40
1
 40
1
 40
1
 10
369.892562
 20
233.598956
 30
0.0
 10
371.642090
 20
232.587540
 30
0.0
 10
373.798592
 20
232.587540
 30
0.0
 10
375.548120
 20
233.598956
 30
0.0
  0
SPLINE
  5
1d3
100
AcDbEntity
  8
0
 62
1
100
AcDbSpline
 70
8
 71
3
 72
8
 73
4
 74
0
 40
0
 40
0
 40
0
 40
0
 40
1
 40
1
 40
1
 40
1
 10
375.548120
 20
233.598956
 30
0.0
 10
377.297647
 20
234.610372
 30
0.0
 10
378.373776
 20
236.479180
 30
0.0
 10
378.370333
 20
238.500021
 30
0.0
  0
LWPOLYLINE
  5
1d4
100
AcDbEntity
  8
0
 62
7
100
AcDbPolyline
 90
2
 70
0
 10
422.720347
 20
238.500021
 30
0.0
 10
432.720327
 20
228.500023
 30
0.0
  0
LWPOLYLINE
  5
1d5
100
AcDbEntity
  8
0
 62
1
100
AcDbPolyline
 90
1
 70
1
 10
378.370333
 20
238.500021
 30
0.0
  0
LWPOLYLINE
  5
1d6
100
AcDbEntity
  8
0
 62
7
100
AcDbPolyline
 90
2
 70
0
 10
322.720335
 20
238.500021
 30
0.0
 10
332.720341
 20
228.500023
 30
0.0
  0
LWPOLYLINE
  5
1d7
100
AcDbEntity
  8
0
 62
7
100
AcDbPolyline
 90
2
 70
0
 10
332.720341
 20
128.500022
 30
0.0
 10
332.720341
 20
48.500023
 30
0.0
  0
LWPOLYLINE
  5
1d8
100
AcDbEntity
  8
0
 62
7
100
AcDbPolyline
 90
2
 70
0
 10
312.720329
 20
228.500023
 30
0.0
 10
322.720335
 20
238.500021
 30
0.0
  0
LWPOLYLINE
  5
1d9
100
AcDbEntity
  8
0
 62
7
100
AcDbPolyline
 90
2
 70
0
 10
422.720347
 20
38.500022
 30
0.0
 10
412.720340
 20
48.500023
 30
0.0
  0
LWPOLYLINE
  5
1da
100
AcDbEntity
  8
0
 62
7
100
AcDbPolyline
 90
2
 70
0
 10
422.720347
 20
138.500023
 30
0.0
 10
432.720327
 20
128.500022
 30
0.0
  0
SPLINE
  5
1db
100
AcDbEntity
  8
0
 62
1
100
AcDbSpline
 70
8
 71
3
 72
8
 73
4
 74
0
 40
0
 40
0
 40
0
 40
0
 40
1
 40
1
 40
1
 40
1
 10
378.370333
 20
138.500023
 30
0.0
 10
378.373776
 20
140.520864
 30
0.0
 10
377.297647
 20
142.389673
 30
0.0
 10
375.548120
 20
143.401088
 30
0.0
  0
SPLINE
  5
1dc
100
AcDbEntity
  8
0
 62
1
100
AcDbSpline
 70
8
 71
3
 72
8
 73
4
 74
0
 40
0
 40
0
 40
0
 40
0
 40
1
 40
1
 40
1
 40
1
 10
375.548120
 20
143.401088
 30
0.0
 10
373.798592
 20
144.412504
 30
0.0
 10
371.642090
 20
144.412504
 30
0.0
 10
369.892562
 20
143.401088
 30
0.0
  0
SPLINE
  5
1dd
100
AcDbEntity
  8
0
 62
1
100
AcDbSpline
 70
8
 71
3
 72
8
 73
4
 74
0
 40
0
 40
0
 40
0
 40
0
 40
1
 40
1
 40
1
 40
1
 10
369.892562
 20
143.401088
 30
0.0
 10
368.143034
 20
142.389673
 30
0.0
 10
367.066906
 20
140.520864
 30
0.0
 10
367.070349
 20
138.500023
 30
0.0
  0
SPLINE
  5
1de
100
AcDbEntity
  8
0
 62
1
100
AcDbSpline
 70
8
 71
3
 72
8
 73
4
 74
0
 40
0
 40
0
 40
0
 40
0
 40
1
 40
1
 40
1
 40
1
 10
367.070349
 20
138.500023
 30
0.0
 10
367.066906
 20
136.479182
 30
0.0
 10
368.143034
 20
134.610373
 30
0.0
 10
369.892562
 20
133.598957
 30
0.0
  0
SPLINE
  5
1df
100
AcDbEntity
  8
0
 62
1
100
AcDbSpline
 70
8
 71
3
 72
8
 73
4
 74
0
 40
0
 40
0
 40
0
 40
0
 40
1
 40
1
 40
1
 40
1
 10
369.892562
 20
133.598957
 30
0.0
 10
371.642090
 20
132.587542
 30
0.0
 10
373.798592
 20
132.587542
 30
0.0
 10
375.548120
 20
133.598957
 30
0.0
  0
SPLINE
  5
1e0
100
AcDbEntity
  8
0
 62
1
100
AcDbSpline
 70
8
 71
3
 72
8
 73
4
 74
0
 40
0
 40
0
 40
0
 40
0
 40
1
 40
1
 40
1
 40
1
 10
375.548120
 20
133.598957
 30
0.0
 10
377.297647
 20
134.610373
 30
0.0
 10
378.373776
 20
136.479182
 30
0.0
 10
378.370333
 20
138.500023
 30
0.0
  0
LWPOLYLINE
  5
1e1
100
AcDbEntity
  8
0
 62
7
100
AcDbPolyline
 90
2
 70
0
 10
332.720341
 20
248.500022
 30
0.0
 10
412.720340
 20
248.500022
 30
0.0
  0
LWPOLYLINE
  5
1e2
100
AcDbEntity
  8
0
 62
1
100
AcDbPolyline
 90
1
 70
1
 10
378.370333
 20
138.500023
 30
0.0
  0
LWPOLYLINE
  5
1e3
100
AcDbEntity
  8
0
 62
7
100
AcDbPolyline
 90
2
 70
0
 10
412.720340
 20
28.500013
 30
0.0
 10
332.720341
 20
28.500013
 30
0.0
  0
LWPOLYLINE
  5
1e4
100
AcDbEntity
  8
0
 62
7
100
AcDbPolyline
 90
2
 70
0
 10
412.720340
 20
228.500023
 30
0.0
 10
422.720347
 20
238.500021
 30
0.0
  0
SPLINE
  5
1e5
100
AcDbEntity
  8
0
 62
1
100
AcDbSpline
 70
8
 71
3
 72
8
 73
4
 74
0
 40
0
 40
0
 40
0
 40
0
 40
1
 40
1
 40
1
 40
1
 10
328.370327
 20
88.500022
 30
0.0
 10
328.373770
 20
90.520863
 30
0.0
 10
327.297642
 20
92.389672
 30
0.0
 10
325.548114
 20
93.401088
 30
0.0
  0
SPLINE
  5
1e6
100
AcDbEntity
  8
0
 62
1
100
AcDbSpline
 70
8
 71
3
 72
8
 73
4
 74
0
 40
0
 40
0
 40
0
 40
0
 40
1
 40
1
 40
1
 40
1
 10
325.548114
 20
93.401088
 30
0.0
 10
323.798586
 20
94.412504
 30
0.0
 10
321.642084
 20
94.412504
 30
0.0
 10
319.892556
 20
93.401088
 30
0.0
  0
SPLINE
  5
1e7
100
AcDbEntity
  8
0
 62
1
100
AcDbSpline
 70
8
 71
3
 72
8
 73
4
 74
0
 40
0
 40
0
 40
0
 40
0
 40
1
 40
1
 40
1
 40
1
 10
319.892556
 20
93.401088
 30
0.0
 10
318.143028
 20
92.389672
 30
0.0
 10
317.066900
 20
90.520863
 30
0.0
 10
317.070343
 20
88.500022
 30
0.0
  0
SPLINE
  5
1e8
100
AcDbEntity
  8
0
 62
1
100
AcDbSpline
 70
8
 71
3
 72
8
 73
4
 74
0
 40
0
 40
0
 40
0
 40
0
 40
1
 40
1
 40
1
 40
1
 10
317.070343
 20
88.500022
 30
0.0
 10
317.066900
 20
86.479182
 30
0.0
 10
318.143028
 20
84.610373
 30
0.0
 10
319.892556
 20
83.598957
 30
0.0
  0
SPLINE
  5
1e9
100
AcDbEntity
  8
0
 62
1
100
AcDbSpline
 70
8
 71
3
 72
8
 73
4
 74
0
 40
0
 40
0
 40
0
 40
0
 40
1
 40
1
 40
1
 40
1
 10
319.892556
 20
83.598957
 30
0.0
 10
321.642084
 20
82.587541
 30
0.0
 10
323.798586
 20
82.587541
 30
0.0
 10
325.548114
 20
83.598957
 30
0.0
  0
SPLINE
  5
1ea
100
AcDbEntity
  8
0
 62
1
100
AcDbSpline
 70
8
 71
3
 72
8
 73
4
 74
0
 40
0
 40
0
 40
0
 40
0
 40
1
 40
1
 40
1
 40
1
 10
325.548114
 20
83.598957
 30
0.0
 10
327.297642
 20
84.610373
 30
0.0
 10
328.373770
 20
86.479182
 30
0.0
 10
328.370327
 20
88.500022
 30
0.0
  0
LWPOLYLINE
  5
1eb
100
AcDbEntity
  8
0
 62
7
100
AcDbPolyline
 90
2
 70
0
 10
412.720340
 20
128.500022
 30
0.0
 10
332.720341
 20
128.500022
 30
0.0
  0
LWPOLYLINE
  5
1ec
100
AcDbEntity
  8
0
 62
1
100
AcDbPolyline
 90
1
 70
1
 10
328.370327
 20
88.500022
 30
0.0
  0
LWPOLYLINE
  5
1ed
100
AcDbEntity
  8
0
 62
7
100
AcDbPolyline
 90
2
 70
0
 10
322.720335
 20
38.500022
 30
0.0
 10
332.720341
 20
48.500023
 30
0.0
  0
LWPOLYLINE
  5
1ee
100
AcDbEntity
  8
0
 62
7
100
AcDbPolyline
 90
2
 70
0
 10
412.720340
 20
248.500022
 30
0.0
 10
422.720347
 20
238.500021
 30
0.0
  0
LWPOLYLINE
  5
1ef
100
AcDbEntity
  8
0
 62
7
100
AcDbPolyline
 90
2
 70
0
 10
432.720327
 20
48.500023
 30
0.0
 10
422.720347
 20
38.500022
 30
0.0
  0
SPLINE
  5
1f0
100
AcDbEntity
  8
0
 62
1
100
AcDbSpline
 70
8
 71
3
 72
8
 73
4
 74
0
 40
0
 40
0
 40
0
 40
0
 40
1
 40
1
 40
1
 40
1
 10
378.370333
 20
88.500022
 30
0.0
 10
378.373776
 20
90.520863
 30
0.0
 10
377.297647
 20
92.389672
 30
0.0
 10
375.548120
 20
93.401088
 30
0.0
  0
SPLINE
  5
1f1
100
AcDbEntity
  8
0
 62
1
100
AcDbSpline
 70
8
 71
3
 72
8
 73
4
 74
0
 40
0
 40
0
 40
0
 40
0
 40
1
 40
1
 40
1
 40
1
 10
375.548120
 20
93.401088
 30
0.0
 10
373.798592
 20
94.412504
 30
0.0
 10
371.642090
 20
94.412504
 30
0.0
 10
369.892562
 20
93.401088
 30
0.0
  0
SPLINE
  5
1f2
100
AcDbEntity
  8
0
 62
1
100
AcDbSpline
 70
8
 71
3
 72
8
 73
4
 74
0
 40
0
 40
0
 40
0
 40
0
 40
1
 40
1
 40
1
 40
1
 10
369.892562
 20
93.401088
 30
0.0
 10
368.143034
 20
92.389672
 30
0.0
 10
367.066906
 20
90.520863
 30
0.0
 10
367.070349
 20
88.500022
 30
0.0
  0
SPLINE
  5
1f3
100
AcDbEntity
  8
0
 62
1
100
AcDbSpline
 70
8
 71
3
 72
8
 73
4
 74
0
 40
0
 40
0
 40
0
 40
0
 40
1
 40
1
 40
1
 40
1
 10
367.070349
 20
88.500022
 30
0.0
 10
367.066906
 20
86.479182
 30
0.0
 10
368.143034
 20
84.610373
 30
0.0
 10
369.892562
 20
83.598957
 30
0.0
  0
SPLINE
  5
1f4
100
AcDbEntity
  8
0
 62
1
100
AcDbSpline
 70
8
 71
3
 72
8
 73
4
 74
0
 40
0
 40
0
 40
0
 40
0
 40
1
 40
1
 40
1
 40
1
 10
369.892562
 20
83.598957
 30
0.0
 10
371.642090
 20
82.587541
 30
0.0
 10
373.798592
 20
82.587541
 30
0.0
 10
375.548120
 20
83.598957
 30
0.0
  0
SPLINE
  5
1f5
100
AcDbEntity
  8
0
 62
1
100
AcDbSpline
 70
8
 71
3
 72
8
 73
4
 74
0
 40
0
 40
0
 40
0
 40
0
 40
1
 40
1
 40
1
 40
1
 10
375.548120
 20
83.598957
 30
0.0
 10
377.297647
 20
84.610373
 30
0.0
 10
378.373776
 20
86.479182
 30
0.0
 10
378.370333
 20
88.500022
 30
0.0
  0
LWPOLYLINE
  5
1f6
100
AcDbEntity
  8
0
 62
7
100
AcDbPolyline
 90
2
 70
0
 10
332.720341
 20
48.500023
 30
0.0
 10
412.720340
 20
48.500023
 30
0.0
  0
LWPOLYLINE
  5
1f7
100
AcDbEntity
  8
0
 62
1
100
AcDbPolyline
 90
1
 70
1
 10
378.370333
 20
88.500022
 30
0.0
  0
LWPOLYLINE
  5
1f8
100
AcDbEntity
  8
0
 62
7
100
AcDbPolyline
 90
2
 70
0
 10
312.720329
 20
48.500023
 30
0.0
 10
312.720329
 20
128.500022
 30
0.0
  0
LWPOLYLINE
  5
1f9
100
AcDbEntity
  8
0
 62
7
100
AcDbPolyline
 90
2
 70
0
 10
322.720335
 20
38.500022
 30
0.0
 10
332.720341
 20
28.500013
 30
0.0
  0
SPLINE
  5
1fa
100
AcDbEntity
  8
0
 62
1
100
AcDbSpline
 70
8
 71
3
 72
8
 73
4
 74
0
 40
0
 40
0
 40
0
 40
0
 40
1
 40
1
 40
1
 40
1
 10
378.370333
 20
38.500022
 30
0.0
 10
378.373776
 20
40.520863
 30
0.0
 10
377.297647
 20
42.389672
 30
0.0
 10
375.548120
 20
43.401087
 30
0.0
  0
SPLINE
  5
1fb
100
AcDbEntity
  8
0
 62
1
100
AcDbSpline
 70
8
 71
3
 72
8
 73
4
 74
0
 40
0
 40
0
 40
0
 40
0
 40
1
 40
1
 40
1
 40
1
 10
375.548120
 20
43.401087
 30
0.0
 10
373.798592
 20
44.412503
 30
0.0
 10
371.642090
 20
44.412503
 30
0.0
 10
369.892562
 20
43.401087
 30
0.0
  0
SPLINE
  5
1fc
100
AcDbEntity
  8
0
 62
1
100
AcDbSpline
 70
8
 71
3
 72
8
 73
4
 74
0
 40
0
 40
0
 40
0
 40
0
 40
1
 40
1
 40
1
 40
1
 10
369.892562
 20
43.401087
 30
0.0
 10
368.143034
 20
42.389672
 30
0.0
 10
367.066906
 20
40.520863
 30
0.0
 10
367.070349
 20
38.500022
 30
0.0
  0
SPLINE
  5
1fd
100
AcDbEntity
  8
0
 62
1
100
AcDbSpline
 70
8
 71
3
 72
8
 73
4
 74
0
 40
0
 40
0
 40
0
 40
0
 40
1
 40
1
 40
1
 40
1
 10
367.070349
 20
38.500022
 30
0.0
 10
367.066906
 20
36.479181
 30
0.0
 10
368.143034
 20
34.610372
 30
0.0
 10
369.892562
 20
33.598956
 30
0.0
  0
SPLINE
  5
1fe
100
AcDbEntity
  8
0
 62
1
100
AcDbSpline
 70
8
 71
3
 72
8
 73
4
 74
0
 40
0
 40
0
 40
0
 40
0
 40
1
 40
1
 40
1
 40
1
 10
369.892562
 20
33.598956
 30
0.0
 10
371.642090
 20
32.587541
 30
0.0
 10
373.798592
 20
32.587541
 30
0.0
 10
375.548120
 20
33.598956
 30
0.0
  0
SPLINE
  5
1ff
100
AcDbEntity
  8
0
 62
1
100
AcDbSpline
 70
8
 71
3
 72
8
 73
4
 74
0
 40
0
 40
0
 40
0
 40
0
 40
1
 40
1
 40
1
 40
1
 10
375.548120
 20
33.598956
 30
0.0
 10
377.297647
 20
34.610372
 30
0.0
 10
378.373776
 20
36.479181
 30
0.0
 10
378.370333
 20
38.500022
 30
0.0
  0
LWPOLYLINE
  5
200
100
AcDbEntity
  8
0
 62
7
100
AcDbPolyline
 90
2
 70
0
 10
312.720329
 20
128.500022
 30
0.0
 10
322.720335
 20
138.500023
 30
0.0
  0
LWPOLYLINE
  5
201
100
AcDbEntity
  8
0
 62
1
100
AcDbPolyline
 90
1
 70
1
 10
378.370333
 20
38.500022
 30
0.0
  0
LWPOLYLINE
  5
202
100
AcDbEntity
  8
0
 62
7
100
AcDbPolyline
 90
2
 70
0
 10
412.720340
 20
48.500023
 30
0.0
 10
412.720340
 20
128.500022
 30
0.0
  0
LWPOLYLINE
  5
203
100
AcDbEntity
  8
0
 62
7
100
AcDbPolyline
 90
2
 70
0
 10
322.720335
 20
238.500021
 30
0.0
 10
332.720341
 20
248.500022
 30
0.0
  0
LWPOLYLINE
  5
204
100
AcDbEntity
  8
0
 62
7
100
AcDbPolyline
 90
2
 70
0
 10
332.720341
 20
128.500022
 30
0.0
 10
322.720335
 20
138.500023
 30
0.0
  0
SPLINE
  5
205
100
AcDbEntity
  8
0
 62
1
100
AcDbSpline
 70
8
 71
3
 72
8
 73
4
 74
0
 40
0
 40
0
 40
0
 40
0
 40
1
 40
1
 40
1
 40
1
 10
428.370339
 20
188.500021
 30
0.0
 10
428.370339
 20
190.518573
 30
0.0
 10
427.293454
 20
192.383793
 30
0.0
 10
425.545336
 20
193.393069
 30
0.0
  0
SPLINE
  5
206
100
AcDbEntity
  8
0
 62
1
100
AcDbSpline
 70
8
 71
3
 72
8
 73
4
 74
0
 40
0
 40
0
 40
0
 40
0
 40
1
 40
1
 40
1
 40
1
 10
425.545336
 20
193.393069
 30
0.0
 10
423.797218
 20
194.402345
 30
0.0
 10
421.643449
 20
194.402345
 30
0.0
 10
419.895331
 20
193.393069
 30
0.0
  0
SPLINE
  5
207
100
AcDbEntity
  8
0
 62
1
100
AcDbSpline
 70
8
 71
3
 72
8
 73
4
 74
0
 40
0
 40
0
 40
0
 40
0
 40
1
 40
1
 40
1
 40
1
 10
419.895331
 20
193.393069
 30
0.0
 10
418.147213
 20
192.383793
 30
0.0
 10
417.070328
 20
190.518573
 30
0.0
 10
417.070328
 20
188.500021
 30
0.0
  0
SPLINE
  5
208
100
AcDbEntity
  8
0
 62
1
100
AcDbSpline
 70
8
 71
3
 72
8
 73
4
 74
0
 40
0
 40
0
 40
0
 40
0
 40
1
 40
1
 40
1
 40
1
 10
417.070328
 20
188.500021
 30
0.0
 10
417.070328
 20
186.481468
 30
0.0
 10
418.147213
 20
184.616249
 30
0.0
 10
419.895331
 20
183.606973
 30
0.0
  0
SPLINE
  5
209
100
AcDbEntity
  8
0
 62
1
100
AcDbSpline
 70
8
 71
3
 72
8
 73
4
 74
0
 40
0
 40
0
 40
0
 40
0
 40
1
 40
1
 40
1
 40
1
 10
419.895331
 20
183.606973
 30
0.0
 10
421.643449
 20
182.597697
 30
0.0
 10
423.797218
 20
182.597697
 30
0.0
 10
425.545336
 20
183.606973
 30
0.0
  0
SPLINE
  5
20a
100
AcDbEntity
  8
0
 62
1
100
AcDbSpline
 70
8
 71
3
 72
8
 73
4
 74
0
 40
0
 40
0
 40
0
 40
0
 40
1
 40
1
 40
1
 40
1
 10
425.545336
 20
183.606973
 30
0.0
 10
427.293454
 20
184.616249
 30
0.0
 10
428.370339
 20
186.481468
 30
0.0
 10
428.370339
 20
188.500021
 30
0.0
  0
LWPOLYLINE
  5
20b
100
AcDbEntity
  8
0
 62
7
100
AcDbPolyline
 90
2
 70
0
 10
322.720335
 20
38.500022
 30
0.0
 10
312.720329
 20
48.500023
 30
0.0
  0
SPLINE
  5
20c
100
AcDbEntity
  8
0
 62
1
100
AcDbSpline
 70
8
 71
3
 72
8
 73
4
 74
0
 40
0
 40
0
 40
0
 40
0
 40
1
 40
1
 40
1
 40
1
 10
428.370339
 20
88.500022
 30
0.0
 10
428.370339
 20
90.518575
 30
0.0
 10
427.293454
 20
92.383794
 30
0.0
 10
425.545336
 20
93.393070
 30
0.0
  0
SPLINE
  5
20d
100
AcDbEntity
  8
0
 62
1
100
AcDbSpline
 70
8
 71
3
 72
8
 73
4
 74
0
 40
0
 40
0
 40
0
 40
0
 40
1
 40
1
 40
1
 40
1
 10
425.545336
 20
93.393070
 30
0.0
 10
423.797218
 20
94.402346
 30
0.0
 10
421.643449
 20
94.402346
 30
0.0
 10
419.895331
 20
93.393070
 30
0.0
  0
SPLINE
  5
20e
100
AcDbEntity
  8
0
 62
1
100
AcDbSpline
 70
8
 71
3
 72
8
 73
4
 74
0
 40
0
 40
0
 40
0
 40
0
 40
1
 40
1
 40
1
 40
1
 10
419.895331
 20
93.393070
 30
0.0
 10
418.147213
 20
92.383794
 30
0.0
 10
417.070328
 20
90.518575
 30
0.0
 10
417.070328
 20
88.500022
 30
0.0
  0
SPLINE
  5
20f
100
AcDbEntity
  8
0
 62
1
100
AcDbSpline
 70
8
 71
3
 72
8
 73
4
 74
0
 40
0
 40
0
 40
0
 40
0
 40
1
 40
1
 40
1
 40
1
 10
417.070328
 20
88.500022
 30
0.0
 10
417.070328
 20
86.481470
 30
0.0
 10
418.147213
 20
84.616251
 30
0.0
 10
419.895331
 20
83.606974
 30
0.0
  0
SPLINE
  5
210
100
AcDbEntity
  8
0
 62
1
100
AcDbSpline
 70
8
 71
3
 72
8
 73
4
 74
0
 40
0
 40
0
 40
0
 40
0
 40
1
 40
1
 40
1
 40
1
 10
419.895331
 20
83.606974
 30
0.0
 10
421.643449
 20
82.597698
 30
0.0
 10
423.797218
 20
82.597698
 30
0.0
 10
425.545336
 20
83.606974
 30
0.0
  0
SPLINE
  5
211
100
AcDbEntity
  8
0
 62
1
100
AcDbSpline
 70
8
 71
3
 72
8
 73
4
 74
0
 40
0
 40
0
 40
0
 40
0
 40
1
 40
1
 40
1
 40
1
 10
425.545336
 20
83.606974
 30
0.0
 10
427.293454
 20
84.616251
 30
0.0
 10
428.370339
 20
86.481470
 30
0.0
 10
428.370339
 20
88.500022
 30
0.0
  0
LWPOLYLINE
  5
212
100
AcDbEntity
  8
0
 62
1
100
AcDbPolyline
 90
1
 70
1
 10
428.370339
 20
188.500021
 30
0.0
  0
LWPOLYLINE
  5
213
100
AcDbEntity
  8
0
 62
1
100
AcDbPolyline
 90
1
 70
1
 10
428.370339
 20
88.500022
 30
0.0
  0
LWPOLYLINE
  5
214
100
AcDbEntity
  8
0
 62
7
100
AcDbPolyline
 90
2
 70
0
 10
412.720340
 20
28.500013
 30
0.0
 10
422.720347
 20
38.500022
 30
0.0
  0
LWPOLYLINE
  5
215
100
AcDbEntity
  8
0
 62
7
100
AcDbPolyline
 90
3
 70
0
 10
462.720346
 20
138.500023
 30
0.0
 10
472.720326
 20
148.500021
 30
0.0
 10
552.720351
 20
148.500021
 30
0.0
  0
LWPOLYLINE
  5
216
100
AcDbEntity
  8
0
 62
7
100
AcDbPolyline
 90
2
 70
0
 10
462.720346
 20
138.500023
 30
0.0
 10
452.720340
 20
148.500021
 30
0.0
  0
SPLINE
  5
217
100
AcDbEntity
  8
0
 62
1
100
AcDbSpline
 70
8
 71
3
 72
8
 73
4
 74
0
 40
0
 40
0
 40
0
 40
0
 40
1
 40
1
 40
1
 40
1
 10
518.370344
 20
188.500021
 30
0.0
 10
518.370344
 20
190.518573
 30
0.0
 10
517.293459
 20
192.383793
 30
0.0
 10
515.545341
 20
193.393069
 30
0.0
  0
SPLINE
  5
218
100
AcDbEntity
  8
0
 62
1
100
AcDbSpline
 70
8
 71
3
 72
8
 73
4
 74
0
 40
0
 40
0
 40
0
 40
0
 40
1
 40
1
 40
1
 40
1
 10
515.545341
 20
193.393069
 30
0.0
 10
513.797224
 20
194.402345
 30
0.0
 10
511.643454
 20
194.402345
 30
0.0
 10
509.895336
 20
193.393069
 30
0.0
  0
SPLINE
  5
219
100
AcDbEntity
  8
0
 62
1
100
AcDbSpline
 70
8
 71
3
 72
8
 73
4
 74
0
 40
0
 40
0
 40
0
 40
0
 40
1
 40
1
 40
1
 40
1
 10
509.895336
 20
193.393069
 30
0.0
 10
508.147218
 20
192.383793
 30
0.0
 10
507.070334
 20
190.518573
 30
0.0
 10
507.070334
 20
188.500021
 30
0.0
  0
SPLINE
  5
21a
100
AcDbEntity
  8
0
 62
1
100
AcDbSpline
 70
8
 71
3
 72
8
 73
4
 74
0
 40
0
 40
0
 40
0
 40
0
 40
1
 40
1
 40
1
 40
1
 10
507.070334
 20
188.500021
 30
0.0
 10
507.070334
 20
186.481468
 30
0.0
 10
508.147218
 20
184.616249
 30
0.0
 10
509.895336
 20
183.606973
 30
0.0
  0
SPLINE
  5
21b
100
AcDbEntity
  8
0
 62
1
100
AcDbSpline
 70
8
 71
3
 72
8
 73
4
 74
0
 40
0
 40
0
 40
0
 40
0
 40
1
 40
1
 40
1
 40
1
 10
509.895336
 20
183.606973
 30
0.0
 10
511.643454
 20
182.597697
 30
0.0
 10
513.797224
 20
182.597697
 30
0.0
 10
515.545341
 20
183.606973
 30
0.0
  0
SPLINE
  5
21c
100
AcDbEntity
  8
0
 62
1
100
AcDbSpline
 70
8
 71
3
 72
8
 73
4
 74
0
 40
0
 40
0
 40
0
 40
0
 40
1
 40
1
 40
1
 40
1
 10
515.545341
 20
183.606973
 30
0.0
 10
517.293459
 20
184.616249
 30
0.0
 10
518.370344
 20
186.481468
 30
0.0
 10
518.370344
 20
188.500021
 30
0.0
  0
LWPOLYLINE
  5
21d
100
AcDbEntity
  8
0
 62
7
100
AcDbPolyline
 90
2
 70
0
 10
572.720338
 20
228.500023
 30
0.0
 10
572.720338
 20
148.500021
 30
0.0
  0
LWPOLYLINE
  5
21e
100
AcDbEntity
  8
0
 62
1
100
AcDbPolyline
 90
1
 70
1
 10
518.370344
 20
188.500021
 30
0.0
  0
LWPOLYLINE
  5
21f
100
AcDbEntity
  8
0
 62
7
100
AcDbPolyline
 90
2
 70
0
 10
562.720331
 20
138.500023
 30
0.0
 10
572.720338
 20
148.500021
 30
0.0
  0
LWPOLYLINE
  5
220
100
AcDbEntity
  8
0
 62
7
100
AcDbPolyline
 90
2
 70
0
 10
472.720326
 20
228.500023
 30
0.0
 10
472.720326
 20
148.500021
 30
0.0
  0
LWPOLYLINE
  5
221
100
AcDbEntity
  8
0
 62
7
100
AcDbPolyline
 90
2
 70
0
 10
552.720351
 20
228.500023
 30
0.0
 10
472.720326
 20
228.500023
 30
0.0
  0
LWPOLYLINE
  5
222
100
AcDbEntity
  8
0
 62
7
100
AcDbPolyline
 90
2
 70
0
 10
552.720351
 20
148.500021
 30
0.0
 10
562.720331
 20
138.500023
 30
0.0
  0
LWPOLYLINE
  5
223
100
AcDbEntity
  8
0
 62
7
100
AcDbPolyline
 90
2
 70
0
 10
572.720338
 20
128.500022
 30
0.0
 10
572.720338
 20
48.500023
 30
0.0
  0
LWPOLYLINE
  5
224
100
AcDbEntity
  8
0
 62
7
100
AcDbPolyline
 90
2
 70
0
 10
452.720340
 20
148.500021
 30
0.0
 10
452.720340
 20
228.500023
 30
0.0
  0
SPLINE
  5
225
100
AcDbEntity
  8
0
 62
1
100
AcDbSpline
 70
8
 71
3
 72
8
 73
4
 74
0
 40
0
 40
0
 40
0
 40
0
 40
1
 40
1
 40
1
 40
1
 10
468.370338
 20
188.500021
 30
0.0
 10
468.370338
 20
190.518573
 30
0.0
 10
467.293453
 20
192.383793
 30
0.0
 10
465.545335
 20
193.393069
 30
0.0
  0
SPLINE
  5
226
100
AcDbEntity
  8
0
 62
1
100
AcDbSpline
 70
8
 71
3
 72
8
 73
4
 74
0
 40
0
 40
0
 40
0
 40
0
 40
1
 40
1
 40
1
 40
1
 10
465.545335
 20
193.393069
 30
0.0
 10
463.797218
 20
194.402345
 30
0.0
 10
461.643448
 20
194.402345
 30
0.0
 10
459.895330
 20
193.393069
 30
0.0
  0
SPLINE
  5
227
100
AcDbEntity
  8
0
 62
1
100
AcDbSpline
 70
8
 71
3
 72
8
 73
4
 74
0
 40
0
 40
0
 40
0
 40
0
 40
1
 40
1
 40
1
 40
1
 10
459.895330
 20
193.393069
 30
0.0
 10
458.147213
 20
192.383793
 30
0.0
 10
457.070328
 20
190.518573
 30
0.0
 10
457.070328
 20
188.500021
 30
0.0
  0
SPLINE
  5
228
100
AcDbEntity
  8
0
 62
1
100
AcDbSpline
 70
8
 71
3
 72
8
 73
4
 74
0
 40
0
 40
0
 40
0
 40
0
 40
1
 40
1
 40
1
 40
1
 10
457.070328
 20
188.500021
 30
0.0
 10
457.070328
 20
186.481468
 30
0.0
 10
458.147213
 20
184.616249
 30
0.0
 10
459.895330
 20
183.606973
 30
0.0
  0
SPLINE
  5
229
100
AcDbEntity
  8
0
 62
1
100
AcDbSpline
 70
8
 71
3
 72
8
 73
4
 74
0
 40
0
 40
0
 40
0
 40
0
 40
1
 40
1
 40
1
 40
1
 10
459.895330
 20
183.606973
 30
0.0
 10
461.643448
 20
182.597697
 30
0.0
 10
463.797218
 20
182.597697
 30
0.0
 10
465.545335
 20
183.606973
 30
0.0
  0
SPLINE
  5
22a
100
AcDbEntity
  8
0
 62
1
100
AcDbSpline
 70
8
 71
3
 72
8
 73
4
 74
0
 40
0
 40
0
 40
0
 40
0
 40
1
 40
1
 40
1
 40
1
 10
465.545335
 20
183.606973
 30
0.0
 10
467.293453
 20
184.616249
 30
0.0
 10
468.370338
 20
186.481468
 30
0.0
 10
468.370338
 20
188.500021
 30
0.0
  0
LWPOLYLINE
  5
22b
100
AcDbEntity
  8
0
 62
7
100
AcDbPolyline
 90
2
 70
0
 10
552.720351
 20
148.500021
 30
0.0
 10
552.720351
 20
228.500023
 30
0.0
  0
LWPOLYLINE
  5
22c
100
AcDbEntity
  8
0
 62
1
100
AcDbPolyline
 90
1
 70
1
 10
468.370338
 20
188.500021
 30
0.0
  0
LWPOLYLINE
  5
22d
100
AcDbEntity
  8
0
 62
7
100
AcDbPolyline
 90
2
 70
0
 10
552.720351
 20
128.500022
 30
0.0
 10
562.720331
 20
138.500023
 30
0.0
  0
SPLINE
  5
22e
100
AcDbEntity
  8
0
 62
1
100
AcDbSpline
 70
8
 71
3
 72
8
 73
4
 74
0
 40
0
 40
0
 40
0
 40
0
 40
1
 40
1
 40
1
 40
1
 10
518.370344
 20
238.500021
 30
0.0
 10
518.370344
 20
240.518574
 30
0.0
 10
517.293459
 20
242.383793
 30
0.0
 10
515.545341
 20
243.393069
 30
0.0
  0
SPLINE
  5
22f
100
AcDbEntity
  8
0
 62
1
100
AcDbSpline
 70
8
 71
3
 72
8
 73
4
 74
0
 40
0
 40
0
 40
0
 40
0
 40
1
 40
1
 40
1
 40
1
 10
515.545341
 20
243.393069
 30
0.0
 10
513.797224
 20
244.402345
 30
0.0
 10
511.643454
 20
244.402345
 30
0.0
 10
509.895336
 20
243.393069
 30
0.0
  0
SPLINE
  5
230
100
AcDbEntity
  8
0
 62
1
100
AcDbSpline
 70
8
 71
3
 72
8
 73
4
 74
0
 40
0
 40
0
 40
0
 40
0
 40
1
 40
1
 40
1
 40
1
 10
509.895336
 20
243.393069
 30
0.0
 10
508.147218
 20
242.383793
 30
0.0
 10
507.070334
 20
240.518574
 30
0.0
 10
507.070334
 20
238.500021
 30
0.0
  0
SPLINE
  5
231
100
AcDbEntity
  8
0
 62
1
100
AcDbSpline
 70
8
 71
3
 72
8
 73
4
 74
0
 40
0
 40
0
 40
0
 40
0
 40
1
 40
1
 40
1
 40
1
 10
507.070334
 20
238.500021
 30
0.0
 10
507.070334
 20
236.481469
 30
0.0
 10
508.147218
 20
234.616250
 30
0.0
 10
509.895336
 20
233.606973
 30
0.0
  0
SPLINE
  5
232
100
AcDbEntity
  8
0
 62
1
100
AcDbSpline
 70
8
 71
3
 72
8
 73
4
 74
0
 40
0
 40
0
 40
0
 40
0
 40
1
 40
1
 40
1
 40
1
 10
509.895336
 20
233.606973
 30
0.0
 10
511.643454
 20
232.597697
 30
0.0
 10
513.797224
 20
232.597697
 30
0.0
 10
515.545341
 20
233.606973
 30
0.0
  0
SPLINE
  5
233
100
AcDbEntity
  8
0
 62
1
100
AcDbSpline
 70
8
 71
3
 72
8
 73
4
 74
0
 40
0
 40
0
 40
0
 40
0
 40
1
 40
1
 40
1
 40
1
 10
515.545341
 20
233.606973
 30
0.0
 10
517.293459
 20
234.616250
 30
0.0
 10
518.370344
 20
236.481469
 30
0.0
 10
518.370344
 20
238.500021
 30
0.0
  0
LWPOLYLINE
  5
234
100
AcDbEntity
  8
0
 62
7
100
AcDbPolyline
 90
2
 70
0
 10
562.720331
 20
238.500021
 30
0.0
 10
572.720338
 20
228.500023
 30
0.0
  0
LWPOLYLINE
  5
235
100
AcDbEntity
  8
0
 62
1
100
AcDbPolyline
 90
1
 70
1
 10
518.370344
 20
238.500021
 30
0.0
  0
LWPOLYLINE
  5
236
100
AcDbEntity
  8
0
 62
7
100
AcDbPolyline
 90
2
 70
0
 10
462.720346
 20
238.500021
 30
0.0
 10
472.720326
 20
228.500023
 30
0.0
  0
LWPOLYLINE
  5
237
100
AcDbEntity
  8
0
 62
7
100
AcDbPolyline
 90
2
 70
0
 10
472.720326
 20
128.500022
 30
0.0
 10
472.720326
 20
48.500023
 30
0.0
  0
LWPOLYLINE
  5
238
100
AcDbEntity
  8
0
 62
7
100
AcDbPolyline
 90
2
 70
0
 10
452.720340
 20
228.500023
 30
0.0
 10
462.720346
 20
238.500021
 30
0.0
  0
LWPOLYLINE
  5
239
100
AcDbEntity
  8
0
 62
7
100
AcDbPolyline
 90
2
 70
0
 10
562.720331
 20
38.500022
 30
0.0
 10
552.720351
 20
48.500023
 30
0.0
  0
LWPOLYLINE
  5
23a
100
AcDbEntity
  8
0
 62
7
100
AcDbPolyline
 90
2
 70
0
 10
562.720331
 20
138.500023
 30
0.0
 10
572.720338
 20
128.500022
 30
0.0
  0
SPLINE
  5
23b
100
AcDbEntity
  8
0
 62
1
100
AcDbSpline
 70
8
 71
3
 72
8
 73
4
 74
0
 40
0
 40
0
 40
0
 40
0
 40
1
 40
1
 40
1
 40
1
 10
518.370344
 20
138.500023
 30
0.0
 10
518.370344
 20
140.518575
 30
0.0
 10
517.293459
 20
142.383795
 30
0.0
 10
515.545341
 20
143.393071
 30
0.0
  0
SPLINE
  5
23c
100
AcDbEntity
  8
0
 62
1
100
AcDbSpline
 70
8
 71
3
 72
8
 73
4
 74
0
 40
0
 40
0
 40
0
 40
0
 40
1
 40
1
 40
1
 40
1
 10
515.545341
 20
143.393071
 30
0.0
 10
513.797224
 20
144.402347
 30
0.0
 10
511.643454
 20
144.402347
 30
0.0
 10
509.895336
 20
143.393071
 30
0.0
  0
SPLINE
  5
23d
100
AcDbEntity
  8
0
 62
1
100
AcDbSpline
 70
8
 71
3
 72
8
 73
4
 74
0
 40
0
 40
0
 40
0
 40
0
 40
1
 40
1
 40
1
 40
1
 10
509.895336
 20
143.393071
 30
0.0
 10
508.147218
 20
142.383795
 30
0.0
 10
507.070334
 20
140.518575
 30
0.0
 10
507.070334
 20
138.500023
 30
0.0
  0
SPLINE
  5
23e
100
AcDbEntity
  8
0
 62
1
100
AcDbSpline
 70
8
 71
3
 72
8
 73
4
 74
0
 40
0
 40
0
 40
0
 40
0
 40
1
 40
1
 40
1
 40
1
 10
507.070334
 20
138.500023
 30
0.0
 10
507.070334
 20
136.481470
 30
0.0
 10
508.147218
 20
134.616251
 30
0.0
 10
509.895336
 20
133.606975
 30
0.0
  0
SPLINE
  5
23f
100
AcDbEntity
  8
0
 62
1
100
AcDbSpline
 70
8
 71
3
 72
8
 73
4
 74
0
 40
0
 40
0
 40
0
 40
0
 40
1
 40
1
 40
1
 40
1
 10
509.895336
 20
133.606975
 30
0.0
 10
511.643454
 20
132.597699
 30
0.0
 10
513.797224
 20
132.597699
 30
0.0
 10
515.545341
 20
133.606975
 30
0.0
  0
SPLINE
  5
240
100
AcDbEntity
  8
0
 62
1
100
AcDbSpline
 70
8
 71
3
 72
8
 73
4
 74
0
 40
0
 40
0
 40
0
 40
0
 40
1
 40
1
 40
1
 40
1
 10
515.545341
 20
133.606975
 30
0.0
 10
517.293459
 20
134.616251
 30
0.0
 10
518.370344
 20
136.481470
 30
0.0
 10
518.370344
 20
138.500023
 30
0.0
  0
LWPOLYLINE
  5
241
100
AcDbEntity
  8
0
 62
7
100
AcDbPolyline
 90
2
 70
0
 10
472.720326
 20
248.500022
 30
0.0
 10
552.720351
 20
248.500022
 30
0.0
  0
LWPOLYLINE
  5
242
100
AcDbEntity
  8
0
 62
1
100
AcDbPolyline
 90
1
 70
1
 10
518.370344
 20
138.500023
 30
0.0
  0
LWPOLYLINE
  5
243
100
AcDbEntity
  8
0
 62
7
100
AcDbPolyline
 90
2
 70
0
 10
552.720351
 20
28.500013
 30
0.0
 10
472.720326
 20
28.500013
 30
0.0
  0
LWPOLYLINE
  5
244
100
AcDbEntity
  8
0
 62
7
100
AcDbPolyline
 90
2
 70
0
 10
552.720351
 20
228.500023
 30
0.0
 10
562.720331
 20
238.500021
 30
0.0
  0
SPLINE
  5
245
100
AcDbEntity
  8
0
 62
1
100
AcDbSpline
 70
8
 71
3
 72
8
 73
4
 74
0
 40
0
 40
0
 40
0
 40
0
 40
1
 40
1
 40
1
 40
1
 10
468.370338
 20
88.500022
 30
0.0
 10
468.370338
 20
90.518575
 30
0.0
 10
467.293453
 20
92.383794
 30
0.0
 10
465.545335
 20
93.393070
 30
0.0
  0
SPLINE
  5
246
100
AcDbEntity
  8
0
 62
1
100
AcDbSpline
 70
8
 71
3
 72
8
 73
4
 74
0
 40
0
 40
0
 40
0
 40
0
 40
1
 40
1
 40
1
 40
1
 10
465.545335
 20
93.393070
 30
0.0
 10
463.797218
 20
94.402346
 30
0.0
 10
461.643448
 20
94.402346
 30
0.0
 10
459.895330
 20
93.393070
 30
0.0
  0
SPLINE
  5
247
100
AcDbEntity
  8
0
 62
1
100
AcDbSpline
 70
8
 71
3
 72
8
 73
4
 74
0
 40
0
 40
0
 40
0
 40
0
 40
1
 40
1
 40
1
 40
1
 10
459.895330
 20
93.393070
 30
0.0
 10
458.147213
 20
92.383794
 30
0.0
 10
457.070328
 20
90.518575
 30
0.0
 10
457.070328
 20
88.500022
 30
0.0
  0
SPLINE
  5
248
100
AcDbEntity
  8
0
 62
1
100
AcDbSpline
 70
8
 71
3
 72
8
 73
4
 74
0
 40
0
 40
0
 40
0
 40
0
 40
1
 40
1
 40
1
 40
1
 10
457.070328
 20
88.500022
 30
0.0
 10
457.070328
 20
86.481470
 30
0.0
 10
458.147213
 20
84.616251
 30
0.0
 10
459.895330
 20
83.606974
 30
0.0
  0
SPLINE
  5
249
100
AcDbEntity
  8
0
 62
1
100
AcDbSpline
 70
8
 71
3
 72
8
 73
4
 74
0
 40
0
 40
0
 40
0
 40
0
 40
1
 40
1
 40
1
 40
1
 10
459.895330
 20
83.606974
 30
0.0
 10
461.643448
 20
82.597698
 30
0.0
 10
463.797218
 20
82.597698
 30
0.0
 10
465.545335
 20
83.606974
 30
0.0
  0
SPLINE
  5
24a
100
AcDbEntity
  8
0
 62
1
100
AcDbSpline
 70
8
 71
3
 72
8
 73
4
 74
0
 40
0
 40
0
 40
0
 40
0
 40
1
 40
1
 40
1
 40
1
 10
465.545335
 20
83.606974
 30
0.0
 10
467.293453
 20
84.616251
 30
0.0
 10
468.370338
 20
86.481470
 30
0.0
 10
468.370338
 20
88.500022
 30
0.0
  0
LWPOLYLINE
  5
24b
100
AcDbEntity
  8
0
 62
7
100
AcDbPolyline
 90
2
 70
0
 10
552.720351
 20
128.500022
 30
0.0
 10
472.720326
 20
128.500022
 30
0.0
  0
LWPOLYLINE
  5
24c
100
AcDbEntity
  8
0
 62
1
100
AcDbPolyline
 90
1
 70
1
 10
468.370338
 20
88.500022
 30
0.0
  0
LWPOLYLINE
  5
24d
100
AcDbEntity
  8
0
 62
7
100
AcDbPolyline
 90
2
 70
0
 10
462.720346
 20
38.500022
 30
0.0
 10
472.720326
 20
48.500023
 30
0.0
  0
LWPOLYLINE
  5
24e
100
AcDbEntity
  8
0
 62
7
100
AcDbPolyline
 90
2
 70
0
 10
552.720351
 20
248.500022
 30
0.0
 10
562.720331
 20
238.500021
 30
0.0
  0
LWPOLYLINE
  5
24f
100
AcDbEntity
  8
0
 62
7
100
AcDbPolyline
 90
2
 70
0
 10
572.720338
 20
48.500023
 30
0.0
 10
562.720331
 20
38.500022
 30
0.0
  0
SPLINE
  5
250
100
AcDbEntity
  8
0
 62
1
100
AcDbSpline
 70
8
 71
3
 72
8
 73
4
 74
0
 40
0
 40
0
 40
0
 40
0
 40
1
 40
1
 40
1
 40
1
 10
518.370344
 20
88.500022
 30
0.0
 10
518.370344
 20
90.518575
 30
0.0
 10
517.293459
 20
92.383794
 30
0.0
 10
515.545341
 20
93.393070
 30
0.0
  0
SPLINE
  5
251
100
AcDbEntity
  8
0
 62
1
100
AcDbSpline
 70
8
 71
3
 72
8
 73
4
 74
0
 40
0
 40
0
 40
0
 40
0
 40
1
 40
1
 40
1
 40
1
 10
515.545341
 20
93.393070
 30
0.0
 10
513.797224
 20
94.402346
 30
0.0
 10
511.643454
 20
94.402346
 30
0.0
 10
509.895336
 20
93.393070
 30
0.0
  0
SPLINE
  5
252
100
AcDbEntity
  8
0
 62
1
100
AcDbSpline
 70
8
 71
3
 72
8
 73
4
 74
0
 40
0
 40
0
 40
0
 40
0
 40
1
 40
1
 40
1
 40
1
 10
509.895336
 20
93.393070
 30
0.0
 10
508.147218
 20
92.383794
 30
0.0
 10
507.070334
 20
90.518575
 30
0.0
 10
507.070334
 20
88.500022
 30
0.0
  0
SPLINE
  5
253
100
AcDbEntity
  8
0
 62
1
100
AcDbSpline
 70
8
 71
3
 72
8
 73
4
 74
0
 40
0
 40
0
 40
0
 40
0
 40
1
 40
1
 40
1
 40
1
 10
507.070334
 20
88.500022
 30
0.0
 10
507.070334
 20
86.481470
 30
0.0
 10
508.147218
 20
84.616251
 30
0.0
 10
509.895336
 20
83.606974
 30
0.0
  0
SPLINE
  5
254
100
AcDbEntity
  8
0
 62
1
100
AcDbSpline
 70
8
 71
3
 72
8
 73
4
 74
0
 40
0
 40
0
 40
0
 40
0
 40
1
 40
1
 40
1
 40
1
 10
509.895336
 20
83.606974
 30
0.0
 10
511.643454
 20
82.597698
 30
0.0
 10
513.797224
 20
82.597698
 30
0.0
 10
515.545341
 20
83.606974
 30
0.0
  0
SPLINE
  5
255
100
AcDbEntity
  8
0
 62
1
100
AcDbSpline
 70
8
 71
3
 72
8
 73
4
 74
0
 40
0
 40
0
 40
0
 40
0
 40
1
 40
1
 40
1
 40
1
 10
515.545341
 20
83.606974
 30
0.0
 10
517.293459
 20
84.616251
 30
0.0
 10
518.370344
 20
86.481470
 30
0.0
 10
518.370344
 20
88.500022
 30
0.0
  0
LWPOLYLINE
  5
256
100
AcDbEntity
  8
0
 62
7
100
AcDbPolyline
 90
2
 70
0
 10
472.720326
 20
48.500023
 30
0.0
 10
552.720351
 20
48.500023
 30
0.0
  0
LWPOLYLINE
  5
257
100
AcDbEntity
  8
0
 62
1
100
AcDbPolyline
 90
1
 70
1
 10
518.370344
 20
88.500022
 30
0.0
  0
LWPOLYLINE
  5
258
100
AcDbEntity
  8
0
 62
7
100
AcDbPolyline
 90
2
 70
0
 10
452.720340
 20
48.500023
 30
0.0
 10
452.720340
 20
128.500022
 30
0.0
  0
LWPOLYLINE
  5
259
100
AcDbEntity
  8
0
 62
7
100
AcDbPolyline
 90
2
 70
0
 10
462.720346
 20
38.500022
 30
0.0
 10
472.720326
 20
28.500013
 30
0.0
  0
SPLINE
  5
25a
100
AcDbEntity
  8
0
 62
1
100
AcDbSpline
 70
8
 71
3
 72
8
 73
4
 74
0
 40
0
 40
0
 40
0
 40
0
 40
1
 40
1
 40
1
 40
1
 10
518.370344
 20
38.500022
 30
0.0
 10
518.370344
 20
40.518574
 30
0.0
 10
517.293459
 20
42.383794
 30
0.0
 10
515.545341
 20
43.393070
 30
0.0
  0
SPLINE
  5
25b
100
AcDbEntity
  8
0
 62
1
100
AcDbSpline
 70
8
 71
3
 72
8
 73
4
 74
0
 40
0
 40
0
 40
0
 40
0
 40
1
 40
1
 40
1
 40
1
 10
515.545341
 20
43.393070
 30
0.0
 10
513.797224
 20
44.402346
 30
0.0
 10
511.643454
 20
44.402346
 30
0.0
 10
509.895336
 20
43.393070
 30
0.0
  0
SPLINE
  5
25c
100
AcDbEntity
  8
0
 62
1
100
AcDbSpline
 70
8
 71
3
 72
8
 73
4
 74
0
 40
0
 40
0
 40
0
 40
0
 40
1
 40
1
 40
1
 40
1
 10
509.895336
 20
43.393070
 30
0.0
 10
508.147218
 20
42.383794
 30
0.0
 10
507.070334
 20
40.518574
 30
0.0
 10
507.070334
 20
38.500022
 30
0.0
  0
SPLINE
  5
25d
100
AcDbEntity
  8
0
 62
1
100
AcDbSpline
 70
8
 71
3
 72
8
 73
4
 74
0
 40
0
 40
0
 40
0
 40
0
 40
1
 40
1
 40
1
 40
1
 10
507.070334
 20
38.500022
 30
0.0
 10
507.070334
 20
36.481469
 30
0.0
 10
508.147218
 20
34.616250
 30
0.0
 10
509.895336
 20
33.606974
 30
0.0
  0
SPLINE
  5
25e
100
AcDbEntity
  8
0
 62
1
100
AcDbSpline
 70
8
 71
3
 72
8
 73
4
 74
0
 40
0
 40
0
 40
0
 40
0
 40
1
 40
1
 40
1
 40
1
 10
509.895336
 20
33.606974
 30
0.0
 10
511.643454
 20
32.597698
 30
0.0
 10
513.797224
 20
32.597698
 30
0.0
 10
515.545341
 20
33.606974
 30
0.0
  0
SPLINE
  5
25f
100
AcDbEntity
  8
0
 62
1
100
AcDbSpline
 70
8
 71
3
 72
8
 73
4
 74
0
 40
0
 40
0
 40
0
 40
0
 40
1
 40
1
 40
1
 40
1
 10
515.545341
 20
33.606974
 30
0.0
 10
517.293459
 20
34.616250
 30
0.0
 10
518.370344
 20
36.481469
 30
0.0
 10
518.370344
 20
38.500022
 30
0.0
  0
LWPOLYLINE
  5
260
100
AcDbEntity
  8
0
 62
7
100
AcDbPolyline
 90
2
 70
0
 10
452.720340
 20
128.500022
 30
0.0
 10
462.720346
 20
138.500023
 30
0.0
  0
LWPOLYLINE
  5
261
100
AcDbEntity
  8
0
 62
1
100
AcDbPolyline
 90
1
 70
1
 10
518.370344
 20
38.500022
 30
0.0
  0
LWPOLYLINE
  5
262
100
AcDbEntity
  8
0
 62
7
100
AcDbPolyline
 90
2
 70
0
 10
552.720351
 20
48.500023
 30
0.0
 10
552.720351
 20
128.500022
 30
0.0
  0
LWPOLYLINE
  5
263
100
AcDbEntity
  8
0
 62
7
100
AcDbPolyline
 90
2
 70
0
 10
462.720346
 20
238.500021
 30
0.0
 10
472.720326
 20
248.500022
 30
0.0
  0
LWPOLYLINE
  5
264
100
AcDbEntity
  8
0
 62
7
100
AcDbPolyline
 90
2
 70
0
 10
472.720326
 20
128.500022
 30
0.0
 10
462.720346
 20
138.500023
 30
0.0
  0
SPLINE
  5
265
100
AcDbEntity
  8
0
 62
1
100
AcDbSpline
 70
8
 71
3
 72
8
 73
4
 74
0
 40
0
 40
0
 40
0
 40
0
 40
1
 40
1
 40
1
 40
1
 10
568.370350
 20
188.500021
 30
0.0
 10
568.370350
 20
190.518573
 30
0.0
 10
567.293465
 20
192.383793
 30
0.0
 10
565.545347
 20
193.393069
 30
0.0
  0
SPLINE
  5
266
100
AcDbEntity
  8
0
 62
1
100
AcDbSpline
 70
8
 71
3
 72
8
 73
4
 74
0
 40
0
 40
0
 40
0
 40
0
 40
1
 40
1
 40
1
 40
1
 10
565.545347
 20
193.393069
 30
0.0
 10
563.797229
 20
194.402345
 30
0.0
 10
561.643460
 20
194.402345
 30
0.0
 10
559.895342
 20
193.393069
 30
0.0
  0
SPLINE
  5
267
100
AcDbEntity
  8
0
 62
1
100
AcDbSpline
 70
8
 71
3
 72
8
 73
4
 74
0
 40
0
 40
0
 40
0
 40
0
 40
1
 40
1
 40
1
 40
1
 10
559.895342
 20
193.393069
 30
0.0
 10
558.147224
 20
192.383793
 30
0.0
 10
557.070339
 20
190.518573
 30
0.0
 10
557.070339
 20
188.500021
 30
0.0
  0
SPLINE
  5
268
100
AcDbEntity
  8
0
 62
1
100
AcDbSpline
 70
8
 71
3
 72
8
 73
4
 74
0
 40
0
 40
0
 40
0
 40
0
 40
1
 40
1
 40
1
 40
1
 10
557.070339
 20
188.500021
 30
0.0
 10
557.070339
 20
186.481468
 30
0.0
 10
558.147224
 20
184.616249
 30
0.0
 10
559.895342
 20
183.606973
 30
0.0
  0
SPLINE
  5
269
100
AcDbEntity
  8
0
 62
1
100
AcDbSpline
 70
8
 71
3
 72
8
 73
4
 74
0
 40
0
 40
0
 40
0
 40
0
 40
1
 40
1
 40
1
 40
1
 10
559.895342
 20
183.606973
 30
0.0
 10
561.643460
 20
182.597697
 30
0.0
 10
563.797229
 20
182.597697
 30
0.0
 10
565.545347
 20
183.606973
 30
0.0
  0
SPLINE
  5
26a
100
AcDbEntity
  8
0
 62
1
100
AcDbSpline
 70
8
 71
3
 72
8
 73
4
 74
0
 40
0
 40
0
 40
0
 40
0
 40
1
 40
1
 40
1
 40
1
 10
565.545347
 20
183.606973
 30
0.0
 10
567.293465
 20
184.616249
 30
0.0
 10
568.370350
 20
186.481468
 30
0.0
 10
568.370350
 20
188.500021
 30
0.0
  0
LWPOLYLINE
  5
26b
100
AcDbEntity
  8
0
 62
7
100
AcDbPolyline
 90
2
 70
0
 10
462.720346
 20
38.500022
 30
0.0
 10
452.720340
 20
48.500023
 30
0.0
  0
SPLINE
  5
26c
100
AcDbEntity
  8
0
 62
1
100
AcDbSpline
 70
8
 71
3
 72
8
 73
4
 74
0
 40
0
 40
0
 40
0
 40
0
 40
1
 40
1
 40
1
 40
1
 10
568.370350
 20
88.500022
 30
0.0
 10
568.370350
 20
90.518575
 30
0.0
 10
567.293465
 20
92.383794
 30
0.0
 10
565.545347
 20
93.393070
 30
0.0
  0
SPLINE
  5
26d
100
AcDbEntity
  8
0
 62
1
100
AcDbSpline
 70
8
 71
3
 72
8
 73
4
 74
0
 40
0
 40
0
 40
0
 40
0
 40
1
 40
1
 40
1
 40
1
 10
565.545347
 20
93.393070
 30
0.0
 10
563.797229
 20
94.402346
 30
0.0
 10
561.643460
 20
94.402346
 30
0.0
 10
559.895342
 20
93.393070
 30
0.0
  0
SPLINE
  5
26e
100
AcDbEntity
  8
0
 62
1
100
AcDbSpline
 70
8
 71
3
 72
8
 73
4
 74
0
 40
0
 40
0
 40
0
 40
0
 40
1
 40
1
 40
1
 40
1
 10
559.895342
 20
93.393070
 30
0.0
 10
558.147224
 20
92.383794
 30
0.0
 10
557.070339
 20
90.518575
 30
0.0
 10
557.070339
 20
88.500022
 30
0.0
  0
SPLINE
  5
26f
100
AcDbEntity
  8
0
 62
1
100
AcDbSpline
 70
8
 71
3
 72
8
 73
4
 74
0
 40
0
 40
0
 40
0
 40
0
 40
1
 40
1
 40
1
 40
1
 10
557.070339
 20
88.500022
 30
0.0
 10
557.070339
 20
86.481470
 30
0.0
 10
558.147224
 20
84.616251
 30
0.0
 10
559.895342
 20
83.606974
 30
0.0
  0
SPLINE
  5
270
100
AcDbEntity
  8
0
 62
1
100
AcDbSpline
 70
8
 71
3
 72
8
 73
4
 74
0
 40
0
 40
0
 40
0
 40
0
 40
1
 40
1
 40
1
 40
1
 10
559.895342
 20
83.606974
 30
0.0
 10
561.643460
 20
82.597698
 30
0.0
 10
563.797229
 20
82.597698
 30
0.0
 10
565.545347
 20
83.606974
 30
0.0
  0
SPLINE
  5
271
100
AcDbEntity
  8
0
 62
1
100
AcDbSpline
 70
8
 71
3
 72
8
 73
4
 74
0
 40
0
 40
0
 40
0
 40
0
 40
1
 40
1
 40
1
 40
1
 10
565.545347
 20
83.606974
 30
0.0
 10
567.293465
 20
84.616251
 30
0.0
 10
568.370350
 20
86.481470
 30
0.0
 10
568.370350
 20
88.500022
 30
0.0
  0
LWPOLYLINE
  5
272
100
AcDbEntity
  8
0
 62
1
100
AcDbPolyline
 90
1
 70
1
 10
568.370350
 20
188.500021
 30
0.0
  0
LWPOLYLINE
  5
273
100
AcDbEntity
  8
0
 62
1
100
AcDbPolyline
 90
1
 70
1
 10
568.370350
 20
88.500022
 30
0.0
  0
LWPOLYLINE
  5
274
100
AcDbEntity
  8
0
 62
7
100
AcDbPolyline
 90
2
 70
0
 10
552.720351
 20
28.500013
 30
0.0
 10
562.720331
 20
38.500022
 30
0.0
  0
LWPOLYLINE
  5
275
100
AcDbEntity
  8
0
 62
5
100
AcDbPolyline
 90
4
 70
1
 10
592.720351
 20
268.500022
 30
0.0
 10
12.720338
 20
268.500022
 30
0.0
 10
12.720338
 20
8.500026
 30
0.0
 10
592.720351
 20
8.500026
 30
0.0
  0
ENDSEC
  0
SECTION
  2
OBJECTS
  0
DICTIONARY
  5
C
330
0
100
AcDbDictionary
  3
ACAD_GROUP
350
D
  3
ACAD_MLINESTYLE
350
17
  0
DICTIONARY
  5
D
330
C
100
AcDbDictionary
  0
DICTIONARY
  5
1A
330
C
100
AcDbDictionary
  0
DICTIONARY
  5
17
330
C
100
AcDbDictionary
  3
STANDARD
350
18
  0
DICTIONARY
  5
19
330
C
100
AcDbDictionary
  0
ENDSEC
  0
EOF
