  0
SECTION
  2
HEADER
  9
$ACADVER
  1
AC1014
  9
$HANDSEED
  5
FFFF
  9
$MEASUREMENT
 70
     1
  0
ENDSEC
  0
SECTION
  2
TABLES
  0
TABLE
  2
VPORT
  5
8
330
0
100
AcDbSymbolTable
 70
     4
  0
VPORT
  5
2E
330
8
100
AcDbSymbolTableRecord
100
AcDbViewportTableRecord
  2
*ACTIVE
 70
     0
 10
0.0
 20
0.0
 11
1.0
 21
1.0
 12
210.0
 22
148.5
 13
0.0
 23
0.0
 14
10.0
 24
10.0
 15
10.0
 25
10.0
 16
0.0
 26
0.0
 36
1.0
 17
0.0
 27
0.0
 37
0.0
 40
341.0
 41
1.24
 42
50.0
 43
0.0
 44
0.0
 50
0.0
 51
0.0
 71
     0
 72
   100
 73
     1
 74
     3
 75
     0
 76
     0
 77
     0
 78
     0
  0
ENDTAB
  0
TABLE
  2
LTYPE
  5
5
330
0
100
AcDbSymbolTable
 70
     1
  0
LTYPE
  5
14
330
5
100
AcDbSymbolTableRecord
100
AcDbLinetypeTableRecord
  2
BYBLOCK
 70
     0
  3

 72
    65
 73
     0
 40
0.0
  0
LTYPE
  5
15
330
5
100
AcDbSymbolTableRecord
100
AcDbLinetypeTableRecord
  2
BYLAYER
 70
     0
  3

 72
    65
 73
     0
 40
0.0
  0
LTYPE
  5
16
330
5
100
AcDbSymbolTableRecord
100
AcDbLinetypeTableRecord
  2
CONTINUOUS
 70
     0
  3
Solid line
 72
    65
 73
     0
 40
0.0
  0
ENDTAB
  0
TABLE
  2
LAYER
  5
2
100
AcDbSymbolTable
 70
1
  0
LAYER
  5
50
100
AcDbSymbolTableRecord
100
AcDbLayerTableRecord
  2
0
 70
0
  6
CONTINUOUS
  0
ENDTAB
  0
TABLE
  2
STYLE
  5
3
330
0
100
AcDbSymbolTable
 70
     1
  0
STYLE
  5
11
330
3
100
AcDbSymbolTableRecord
100
AcDbTextStyleTableRecord
  2
STANDARD
 70
     0
 40
0.0
 41
1.0
 50
0.0
 71
     0
 42
2.5
  3
txt
  4

  0
ENDTAB
  0
TABLE
  2
VIEW
  5
6
330
0
100
AcDbSymbolTable
 70
     0
  0
ENDTAB
  0
TABLE
  2
UCS
  5
7
330
0
100
AcDbSymbolTable
 70
     0
  0
ENDTAB
  0
TABLE
  2
APPID
  5
9
330
0
100
AcDbSymbolTable
 70
     2
  0
APPID
  5
12
330
9
100
AcDbSymbolTableRecord
100
AcDbRegAppTableRecord
  2
ACAD
 70
     0
  0
ENDTAB
  0
TABLE
  2
DIMSTYLE
  5
A
330
0
100
AcDbSymbolTable
 70
     1
  0
DIMSTYLE
105
27
330
A
100
AcDbSymbolTableRecord
100
AcDbDimStyleTableRecord
  2
ISO-25
 70
     0
  3

  4

  5

  6

  7

 40
1.0
 41
2.5
 42
0.625
 43
3.75
 44
1.25
 45
0.0
 46
0.0
 47
0.0
 48
0.0
140
2.5
141
2.5
142
0.0
143
0.03937007874016
144
1.0
145
0.0
146
1.0
147
0.625
 71
     0
 72
     0
 73
     0
 74
     0
 75
     0
 76
     0
 77
     1
 78
     8
170
     0
171
     3
172
     1
173
     0
174
     0
175
     0
176
     0
177
     0
178
     0
270
     2
271
     2
272
     2
273
     2
274
     3
340
11
275
     0
280
     0
281
     0
282
     0
283
     0
284
     8
285
     0
286
     0
287
     3
288
     0
  0
ENDTAB
  0
TABLE
  2
BLOCK_RECORD
  5
1
330
0
100
AcDbSymbolTable
 70
     1
  0
BLOCK_RECORD
  5
1F
330
1
100
AcDbSymbolTableRecord
100
AcDbBlockTableRecord
  2
*MODEL_SPACE
  0
BLOCK_RECORD
  5
1B
330
1
100
AcDbSymbolTableRecord
100
AcDbBlockTableRecord
  2
*PAPER_SPACE
  0
ENDTAB
  0
ENDSEC
  0
SECTION
  2
BLOCKS
  0
BLOCK
  5
20
330
1F
100
AcDbEntity
  8
0
100
AcDbBlockBegin
  2
*MODEL_SPACE
 70
     0
 10
0.0
 20
0.0
 30
0.0
  3
*MODEL_SPACE
  1

  0
ENDBLK
  5
21
330
1F
100
AcDbEntity
  8
0
100
AcDbBlockEnd
  0
BLOCK
  5
1C
330
1B
100
AcDbEntity
 67
     1
  8
0
100
AcDbBlockBegin
  2
*PAPER_SPACE
  1

  0
ENDBLK
  5
1D
330
1B
100
AcDbEntity
 67
     1
  8
0
100
AcDbBlockEnd
  0
ENDSEC
  0
SECTION
  2
ENTITIES
  0
LWPOLYLINE
  5
100
100
AcDbEntity
  8
0
 62
7
100
AcDbPolyline
 90
6
 70
1
 10
33.978813
 20
159.826276
 30
0.0
 10
33.978813
 20
239.826278
 30
0.0
 10
43.978811
 20
249.826276
 30
0.0
 10
53.978813
 20
239.826278
 30
0.0
 10
53.978813
 20
159.826276
 30
0.0
 10
43.978811
 20
149.826278
 30
0.0
  0
LWPOLYLINE
  5
101
100
AcDbEntity
  8
0
 62
7
100
AcDbPolyline
 90
2
 70
0
 10
53.978813
 20
59.826278
 30
0.0
 10
43.978811
 20
49.826277
 30
0.0
  0
LWPOLYLINE
  5
102
100
AcDbEntity
  8
0
 62
7
100
AcDbPolyline
 90
2
 70
0
 10
43.978811
 20
149.826278
 30
0.0
 10
53.978813
 20
139.826277
 30
0.0
  0
LWPOLYLINE
  5
103
100
AcDbEntity
  8
0
 62
7
100
AcDbPolyline
 90
3
 70
0
 10
43.978811
 20
49.826277
 30
0.0
 10
33.978813
 20
59.826278
 30
0.0
 10
33.978813
 20
139.826277
 30
0.0
  0
LWPOLYLINE
  5
104
100
AcDbEntity
  8
0
 62
7
100
AcDbPolyline
 90
2
 70
0
 10
53.978813
 20
139.826277
 30
0.0
 10
53.978813
 20
59.826278
 30
0.0
  0
LWPOLYLINE
  5
105
100
AcDbEntity
  8
0
 62
7
100
AcDbPolyline
 90
2
 70
0
 10
33.978813
 20
139.826277
 30
0.0
 10
43.978811
 20
149.826278
 30
0.0
  0
LWPOLYLINE
  5
106
100
AcDbEntity
  8
0
 62
7
100
AcDbPolyline
 90
4
 70
0
 10
133.978811
 20
159.826276
 30
0.0
 10
143.978813
 20
149.826278
 30
0.0
 10
133.978811
 20
139.826277
 30
0.0
 10
53.978813
 20
139.826277
 30
0.0
  0
LWPOLYLINE
  5
107
100
AcDbEntity
  8
0
 62
7
100
AcDbPolyline
 90
2
 70
0
 10
53.978813
 20
159.826276
 30
0.0
 10
133.978811
 20
159.826276
 30
0.0
  0
LWPOLYLINE
  5
108
100
AcDbEntity
  8
0
 62
7
100
AcDbPolyline
 90
2
 70
0
 10
133.978811
 20
59.826278
 30
0.0
 10
133.978811
 20
139.826277
 30
0.0
  0
LWPOLYLINE
  5
109
100
AcDbEntity
  8
0
 62
7
100
AcDbPolyline
 90
2
 70
0
 10
153.978814
 20
159.826276
 30
0.0
 10
143.978813
 20
149.826278
 30
0.0
  0
LWPOLYLINE
  5
10a
100
AcDbEntity
  8
0
 62
7
100
AcDbPolyline
 90
2
 70
0
 10
153.978814
 20
139.826277
 30
0.0
 10
143.978813
 20
149.826278
 30
0.0
  0
LWPOLYLINE
  5
10b
100
AcDbEntity
  8
0
 62
7
100
AcDbPolyline
 90
2
 70
0
 10
153.978814
 20
139.826277
 30
0.0
 10
153.978814
 20
59.826278
 30
0.0
  0
LWPOLYLINE
  5
10c
100
AcDbEntity
  8
0
 62
7
100
AcDbPolyline
 90
2
 70
0
 10
143.978813
 20
49.826277
 30
0.0
 10
133.978811
 20
59.826278
 30
0.0
  0
LWPOLYLINE
  5
10d
100
AcDbEntity
  8
0
 62
7
100
AcDbPolyline
 90
2
 70
0
 10
153.978814
 20
239.826278
 30
0.0
 10
153.978814
 20
159.826276
 30
0.0
  0
LWPOLYLINE
  5
10e
100
AcDbEntity
  8
0
 62
7
100
AcDbPolyline
 90
4
 70
0
 10
133.978811
 20
159.826276
 30
0.0
 10
133.978811
 20
239.826278
 30
0.0
 10
143.978813
 20
249.826276
 30
0.0
 10
153.978814
 20
239.826278
 30
0.0
  0
LWPOLYLINE
  5
10f
100
AcDbEntity
  8
0
 62
7
100
AcDbPolyline
 90
2
 70
0
 10
153.978814
 20
59.826278
 30
0.0
 10
143.978813
 20
49.826277
 30
0.0
  0
LWPOLYLINE
  5
110
100
AcDbEntity
  8
0
 62
7
100
AcDbPolyline
 90
4
 70
0
 10
43.978811
 20
249.826276
 30
0.0
 10
53.978813
 20
259.826277
 30
0.0
 10
133.978811
 20
259.826277
 30
0.0
 10
143.978813
 20
249.826276
 30
0.0
  0
LWPOLYLINE
  5
111
100
AcDbEntity
  8
0
 62
7
100
AcDbPolyline
 90
2
 70
0
 10
133.978811
 20
239.826278
 30
0.0
 10
53.978813
 20
239.826278
 30
0.0
  0
LWPOLYLINE
  5
112
100
AcDbEntity
  8
0
 62
7
100
AcDbPolyline
 90
2
 70
0
 10
43.978811
 20
49.826277
 30
0.0
 10
53.978813
 20
39.826278
 30
0.0
  0
LWPOLYLINE
  5
113
100
AcDbEntity
  8
0
 62
7
100
AcDbPolyline
 90
2
 70
0
 10
53.978813
 20
59.826278
 30
0.0
 10
133.978811
 20
59.826278
 30
0.0
  0
LWPOLYLINE
  5
114
100
AcDbEntity
  8
0
 62
7
100
AcDbPolyline
 90
2
 70
0
 10
133.978811
 20
39.826278
 30
0.0
 10
53.978813
 20
39.826278
 30
0.0
  0
SPLINE
  5
115
100
AcDbEntity
  8
0
 62
7
100
AcDbSpline
 70
8
 71
3
 72
8
 73
4
 74
0
 40
0
 40
0
 40
0
 40
0
 40
1
 40
1
 40
1
 40
1
 10
49.628811
 20
199.826278
 30
0.0
 10
49.629429
 20
201.845241
 30
0.0
 10
48.552680
 20
203.711103
 30
0.0
 10
46.804311
 20
204.720763
 30
0.0
  0
SPLINE
  5
116
100
AcDbEntity
  8
0
 62
7
100
AcDbSpline
 70
8
 71
3
 72
8
 73
4
 74
0
 40
0
 40
0
 40
0
 40
0
 40
1
 40
1
 40
1
 40
1
 10
46.804311
 20
204.720763
 30
0.0
 10
45.055941
 20
205.730422
 30
0.0
 10
42.901682
 20
205.730422
 30
0.0
 10
41.153312
 20
204.720763
 30
0.0
  0
SPLINE
  5
117
100
AcDbEntity
  8
0
 62
7
100
AcDbSpline
 70
8
 71
3
 72
8
 73
4
 74
0
 40
0
 40
0
 40
0
 40
0
 40
1
 40
1
 40
1
 40
1
 10
41.153312
 20
204.720763
 30
0.0
 10
39.404943
 20
203.711103
 30
0.0
 10
38.328194
 20
201.845241
 30
0.0
 10
38.328812
 20
199.826278
 30
0.0
  0
SPLINE
  5
118
100
AcDbEntity
  8
0
 62
7
100
AcDbSpline
 70
8
 71
3
 72
8
 73
4
 74
0
 40
0
 40
0
 40
0
 40
0
 40
1
 40
1
 40
1
 40
1
 10
38.328812
 20
199.826278
 30
0.0
 10
38.328194
 20
197.807316
 30
0.0
 10
39.404943
 20
195.941453
 30
0.0
 10
41.153312
 20
194.931794
 30
0.0
  0
SPLINE
  5
119
100
AcDbEntity
  8
0
 62
7
100
AcDbSpline
 70
8
 71
3
 72
8
 73
4
 74
0
 40
0
 40
0
 40
0
 40
0
 40
1
 40
1
 40
1
 40
1
 10
41.153312
 20
194.931794
 30
0.0
 10
42.901682
 20
193.922134
 30
0.0
 10
45.055941
 20
193.922134
 30
0.0
 10
46.804311
 20
194.931794
 30
0.0
  0
SPLINE
  5
11a
100
AcDbEntity
  8
0
 62
7
100
AcDbSpline
 70
8
 71
3
 72
8
 73
4
 74
0
 40
0
 40
0
 40
0
 40
0
 40
1
 40
1
 40
1
 40
1
 10
46.804311
 20
194.931794
 30
0.0
 10
48.552680
 20
195.941453
 30
0.0
 10
49.629429
 20
197.807316
 30
0.0
 10
49.628811
 20
199.826278
 30
0.0
  0
LWPOLYLINE
  5
11b
100
AcDbEntity
  8
0
 62
7
100
AcDbPolyline
 90
2
 70
0
 10
133.978811
 20
39.826278
 30
0.0
 10
143.978813
 20
49.826277
 30
0.0
  0
SPLINE
  5
11c
100
AcDbEntity
  8
0
 62
7
100
AcDbSpline
 70
8
 71
3
 72
8
 73
4
 74
0
 40
0
 40
0
 40
0
 40
0
 40
1
 40
1
 40
1
 40
1
 10
99.628812
 20
199.826278
 30
0.0
 10
99.629430
 20
201.845241
 30
0.0
 10
98.552681
 20
203.711103
 30
0.0
 10
96.804311
 20
204.720763
 30
0.0
  0
SPLINE
  5
11d
100
AcDbEntity
  8
0
 62
7
100
AcDbSpline
 70
8
 71
3
 72
8
 73
4
 74
0
 40
0
 40
0
 40
0
 40
0
 40
1
 40
1
 40
1
 40
1
 10
96.804311
 20
204.720763
 30
0.0
 10
95.055941
 20
205.730422
 30
0.0
 10
92.901683
 20
205.730422
 30
0.0
 10
91.153313
 20
204.720763
 30
0.0
  0
SPLINE
  5
11e
100
AcDbEntity
  8
0
 62
7
100
AcDbSpline
 70
8
 71
3
 72
8
 73
4
 74
0
 40
0
 40
0
 40
0
 40
0
 40
1
 40
1
 40
1
 40
1
 10
91.153313
 20
204.720763
 30
0.0
 10
89.404943
 20
203.711103
 30
0.0
 10
88.328194
 20
201.845241
 30
0.0
 10
88.328812
 20
199.826278
 30
0.0
  0
SPLINE
  5
11f
100
AcDbEntity
  8
0
 62
7
100
AcDbSpline
 70
8
 71
3
 72
8
 73
4
 74
0
 40
0
 40
0
 40
0
 40
0
 40
1
 40
1
 40
1
 40
1
 10
88.328812
 20
199.826278
 30
0.0
 10
88.328194
 20
197.807316
 30
0.0
 10
89.404943
 20
195.941453
 30
0.0
 10
91.153313
 20
194.931794
 30
0.0
  0
SPLINE
  5
120
100
AcDbEntity
  8
0
 62
7
100
AcDbSpline
 70
8
 71
3
 72
8
 73
4
 74
0
 40
0
 40
0
 40
0
 40
0
 40
1
 40
1
 40
1
 40
1
 10
91.153313
 20
194.931794
 30
0.0
 10
92.901683
 20
193.922134
 30
0.0
 10
95.055941
 20
193.922134
 30
0.0
 10
96.804311
 20
194.931794
 30
0.0
  0
SPLINE
  5
121
100
AcDbEntity
  8
0
 62
7
100
AcDbSpline
 70
8
 71
3
 72
8
 73
4
 74
0
 40
0
 40
0
 40
0
 40
0
 40
1
 40
1
 40
1
 40
1
 10
96.804311
 20
194.931794
 30
0.0
 10
98.552681
 20
195.941453
 30
0.0
 10
99.629430
 20
197.807316
 30
0.0
 10
99.628812
 20
199.826278
 30
0.0
  0
LWPOLYLINE
  5
122
100
AcDbEntity
  8
0
 62
7
100
AcDbPolyline
 90
1
 70
1
 10
49.628811
 20
199.826278
 30
0.0
  0
SPLINE
  5
123
100
AcDbEntity
  8
0
 62
7
100
AcDbSpline
 70
8
 71
3
 72
8
 73
4
 74
0
 40
0
 40
0
 40
0
 40
0
 40
1
 40
1
 40
1
 40
1
 10
149.628812
 20
199.826278
 30
0.0
 10
149.629430
 20
201.845241
 30
0.0
 10
148.552682
 20
203.711103
 30
0.0
 10
146.804312
 20
204.720763
 30
0.0
  0
SPLINE
  5
124
100
AcDbEntity
  8
0
 62
7
100
AcDbSpline
 70
8
 71
3
 72
8
 73
4
 74
0
 40
0
 40
0
 40
0
 40
0
 40
1
 40
1
 40
1
 40
1
 10
146.804312
 20
204.720763
 30
0.0
 10
145.055942
 20
205.730422
 30
0.0
 10
142.901683
 20
205.730422
 30
0.0
 10
141.153313
 20
204.720763
 30
0.0
  0
SPLINE
  5
125
100
AcDbEntity
  8
0
 62
7
100
AcDbSpline
 70
8
 71
3
 72
8
 73
4
 74
0
 40
0
 40
0
 40
0
 40
0
 40
1
 40
1
 40
1
 40
1
 10
141.153313
 20
204.720763
 30
0.0
 10
139.404944
 20
203.711103
 30
0.0
 10
138.328195
 20
201.845241
 30
0.0
 10
138.328813
 20
199.826278
 30
0.0
  0
SPLINE
  5
126
100
AcDbEntity
  8
0
 62
7
100
AcDbSpline
 70
8
 71
3
 72
8
 73
4
 74
0
 40
0
 40
0
 40
0
 40
0
 40
1
 40
1
 40
1
 40
1
 10
138.328813
 20
199.826278
 30
0.0
 10
138.328195
 20
197.807316
 30
0.0
 10
139.404944
 20
195.941453
 30
0.0
 10
141.153313
 20
194.931794
 30
0.0
  0
SPLINE
  5
127
100
AcDbEntity
  8
0
 62
7
100
AcDbSpline
 70
8
 71
3
 72
8
 73
4
 74
0
 40
0
 40
0
 40
0
 40
0
 40
1
 40
1
 40
1
 40
1
 10
141.153313
 20
194.931794
 30
0.0
 10
142.901683
 20
193.922134
 30
0.0
 10
145.055942
 20
193.922134
 30
0.0
 10
146.804312
 20
194.931794
 30
0.0
  0
SPLINE
  5
128
100
AcDbEntity
  8
0
 62
7
100
AcDbSpline
 70
8
 71
3
 72
8
 73
4
 74
0
 40
0
 40
0
 40
0
 40
0
 40
1
 40
1
 40
1
 40
1
 10
146.804312
 20
194.931794
 30
0.0
 10
148.552682
 20
195.941453
 30
0.0
 10
149.629430
 20
197.807316
 30
0.0
 10
149.628812
 20
199.826278
 30
0.0
  0
LWPOLYLINE
  5
129
100
AcDbEntity
  8
0
 62
7
100
AcDbPolyline
 90
1
 70
1
 10
99.628812
 20
199.826278
 30
0.0
  0
SPLINE
  5
12a
100
AcDbEntity
  8
0
 62
7
100
AcDbSpline
 70
8
 71
3
 72
8
 73
4
 74
0
 40
0
 40
0
 40
0
 40
0
 40
1
 40
1
 40
1
 40
1
 10
99.628812
 20
149.826278
 30
0.0
 10
99.629430
 20
151.845240
 30
0.0
 10
98.552681
 20
153.711103
 30
0.0
 10
96.804311
 20
154.720762
 30
0.0
  0
SPLINE
  5
12b
100
AcDbEntity
  8
0
 62
7
100
AcDbSpline
 70
8
 71
3
 72
8
 73
4
 74
0
 40
0
 40
0
 40
0
 40
0
 40
1
 40
1
 40
1
 40
1
 10
96.804311
 20
154.720762
 30
0.0
 10
95.055941
 20
155.730422
 30
0.0
 10
92.901683
 20
155.730422
 30
0.0
 10
91.153313
 20
154.720762
 30
0.0
  0
SPLINE
  5
12c
100
AcDbEntity
  8
0
 62
7
100
AcDbSpline
 70
8
 71
3
 72
8
 73
4
 74
0
 40
0
 40
0
 40
0
 40
0
 40
1
 40
1
 40
1
 40
1
 10
91.153313
 20
154.720762
 30
0.0
 10
89.404943
 20
153.711103
 30
0.0
 10
88.328194
 20
151.845240
 30
0.0
 10
88.328812
 20
149.826278
 30
0.0
  0
SPLINE
  5
12d
100
AcDbEntity
  8
0
 62
7
100
AcDbSpline
 70
8
 71
3
 72
8
 73
4
 74
0
 40
0
 40
0
 40
0
 40
0
 40
1
 40
1
 40
1
 40
1
 10
88.328812
 20
149.826278
 30
0.0
 10
88.328194
 20
147.807315
 30
0.0
 10
89.404943
 20
145.941453
 30
0.0
 10
91.153313
 20
144.931793
 30
0.0
  0
SPLINE
  5
12e
100
AcDbEntity
  8
0
 62
7
100
AcDbSpline
 70
8
 71
3
 72
8
 73
4
 74
0
 40
0
 40
0
 40
0
 40
0
 40
1
 40
1
 40
1
 40
1
 10
91.153313
 20
144.931793
 30
0.0
 10
92.901683
 20
143.922134
 30
0.0
 10
95.055941
 20
143.922134
 30
0.0
 10
96.804311
 20
144.931793
 30
0.0
  0
SPLINE
  5
12f
100
AcDbEntity
  8
0
 62
7
100
AcDbSpline
 70
8
 71
3
 72
8
 73
4
 74
0
 40
0
 40
0
 40
0
 40
0
 40
1
 40
1
 40
1
 40
1
 10
96.804311
 20
144.931793
 30
0.0
 10
98.552681
 20
145.941453
 30
0.0
 10
99.629430
 20
147.807315
 30
0.0
 10
99.628812
 20
149.826278
 30
0.0
  0
LWPOLYLINE
  5
130
100
AcDbEntity
  8
0
 62
7
100
AcDbPolyline
 90
1
 70
1
 10
149.628812
 20
199.826278
 30
0.0
  0
SPLINE
  5
131
100
AcDbEntity
  8
0
 62
7
100
AcDbSpline
 70
8
 71
3
 72
8
 73
4
 74
0
 40
0
 40
0
 40
0
 40
0
 40
1
 40
1
 40
1
 40
1
 10
49.628811
 20
99.826277
 30
0.0
 10
49.629429
 20
101.845240
 30
0.0
 10
48.552680
 20
103.711102
 30
0.0
 10
46.804311
 20
104.720762
 30
0.0
  0
SPLINE
  5
132
100
AcDbEntity
  8
0
 62
7
100
AcDbSpline
 70
8
 71
3
 72
8
 73
4
 74
0
 40
0
 40
0
 40
0
 40
0
 40
1
 40
1
 40
1
 40
1
 10
46.804311
 20
104.720762
 30
0.0
 10
45.055941
 20
105.730421
 30
0.0
 10
42.901682
 20
105.730421
 30
0.0
 10
41.153312
 20
104.720762
 30
0.0
  0
SPLINE
  5
133
100
AcDbEntity
  8
0
 62
7
100
AcDbSpline
 70
8
 71
3
 72
8
 73
4
 74
0
 40
0
 40
0
 40
0
 40
0
 40
1
 40
1
 40
1
 40
1
 10
41.153312
 20
104.720762
 30
0.0
 10
39.404943
 20
103.711102
 30
0.0
 10
38.328194
 20
101.845240
 30
0.0
 10
38.328812
 20
99.826277
 30
0.0
  0
SPLINE
  5
134
100
AcDbEntity
  8
0
 62
7
100
AcDbSpline
 70
8
 71
3
 72
8
 73
4
 74
0
 40
0
 40
0
 40
0
 40
0
 40
1
 40
1
 40
1
 40
1
 10
38.328812
 20
99.826277
 30
0.0
 10
38.328194
 20
97.807315
 30
0.0
 10
39.404943
 20
95.941452
 30
0.0
 10
41.153312
 20
94.931793
 30
0.0
  0
SPLINE
  5
135
100
AcDbEntity
  8
0
 62
7
100
AcDbSpline
 70
8
 71
3
 72
8
 73
4
 74
0
 40
0
 40
0
 40
0
 40
0
 40
1
 40
1
 40
1
 40
1
 10
41.153312
 20
94.931793
 30
0.0
 10
42.901682
 20
93.922133
 30
0.0
 10
45.055941
 20
93.922133
 30
0.0
 10
46.804311
 20
94.931793
 30
0.0
  0
SPLINE
  5
136
100
AcDbEntity
  8
0
 62
7
100
AcDbSpline
 70
8
 71
3
 72
8
 73
4
 74
0
 40
0
 40
0
 40
0
 40
0
 40
1
 40
1
 40
1
 40
1
 10
46.804311
 20
94.931793
 30
0.0
 10
48.552680
 20
95.941452
 30
0.0
 10
49.629429
 20
97.807315
 30
0.0
 10
49.628811
 20
99.826277
 30
0.0
  0
LWPOLYLINE
  5
137
100
AcDbEntity
  8
0
 62
7
100
AcDbPolyline
 90
1
 70
1
 10
99.628812
 20
149.826278
 30
0.0
  0
SPLINE
  5
138
100
AcDbEntity
  8
0
 62
7
100
AcDbSpline
 70
8
 71
3
 72
8
 73
4
 74
0
 40
0
 40
0
 40
0
 40
0
 40
1
 40
1
 40
1
 40
1
 10
99.628812
 20
99.826277
 30
0.0
 10
99.629430
 20
101.845240
 30
0.0
 10
98.552681
 20
103.711102
 30
0.0
 10
96.804311
 20
104.720762
 30
0.0
  0
SPLINE
  5
139
100
AcDbEntity
  8
0
 62
7
100
AcDbSpline
 70
8
 71
3
 72
8
 73
4
 74
0
 40
0
 40
0
 40
0
 40
0
 40
1
 40
1
 40
1
 40
1
 10
96.804311
 20
104.720762
 30
0.0
 10
95.055941
 20
105.730421
 30
0.0
 10
92.901683
 20
105.730421
 30
0.0
 10
91.153313
 20
104.720762
 30
0.0
  0
SPLINE
  5
13a
100
AcDbEntity
  8
0
 62
7
100
AcDbSpline
 70
8
 71
3
 72
8
 73
4
 74
0
 40
0
 40
0
 40
0
 40
0
 40
1
 40
1
 40
1
 40
1
 10
91.153313
 20
104.720762
 30
0.0
 10
89.404943
 20
103.711102
 30
0.0
 10
88.328194
 20
101.845240
 30
0.0
 10
88.328812
 20
99.826277
 30
0.0
  0
SPLINE
  5
13b
100
AcDbEntity
  8
0
 62
7
100
AcDbSpline
 70
8
 71
3
 72
8
 73
4
 74
0
 40
0
 40
0
 40
0
 40
0
 40
1
 40
1
 40
1
 40
1
 10
88.328812
 20
99.826277
 30
0.0
 10
88.328194
 20
97.807315
 30
0.0
 10
89.404943
 20
95.941452
 30
0.0
 10
91.153313
 20
94.931793
 30
0.0
  0
SPLINE
  5
13c
100
AcDbEntity
  8
0
 62
7
100
AcDbSpline
 70
8
 71
3
 72
8
 73
4
 74
0
 40
0
 40
0
 40
0
 40
0
 40
1
 40
1
 40
1
 40
1
 10
91.153313
 20
94.931793
 30
0.0
 10
92.901683
 20
93.922133
 30
0.0
 10
95.055941
 20
93.922133
 30
0.0
 10
96.804311
 20
94.931793
 30
0.0
  0
SPLINE
  5
13d
100
AcDbEntity
  8
0
 62
7
100
AcDbSpline
 70
8
 71
3
 72
8
 73
4
 74
0
 40
0
 40
0
 40
0
 40
0
 40
1
 40
1
 40
1
 40
1
 10
96.804311
 20
94.931793
 30
0.0
 10
98.552681
 20
95.941452
 30
0.0
 10
99.629430
 20
97.807315
 30
0.0
 10
99.628812
 20
99.826277
 30
0.0
  0
LWPOLYLINE
  5
13e
100
AcDbEntity
  8
0
 62
7
100
AcDbPolyline
 90
1
 70
1
 10
49.628811
 20
99.826277
 30
0.0
  0
SPLINE
  5
13f
100
AcDbEntity
  8
0
 62
7
100
AcDbSpline
 70
8
 71
3
 72
8
 73
4
 74
0
 40
0
 40
0
 40
0
 40
0
 40
1
 40
1
 40
1
 40
1
 10
149.628812
 20
99.826277
 30
0.0
 10
149.629430
 20
101.845240
 30
0.0
 10
148.552682
 20
103.711102
 30
0.0
 10
146.804312
 20
104.720762
 30
0.0
  0
SPLINE
  5
140
100
AcDbEntity
  8
0
 62
7
100
AcDbSpline
 70
8
 71
3
 72
8
 73
4
 74
0
 40
0
 40
0
 40
0
 40
0
 40
1
 40
1
 40
1
 40
1
 10
146.804312
 20
104.720762
 30
0.0
 10
145.055942
 20
105.730421
 30
0.0
 10
142.901683
 20
105.730421
 30
0.0
 10
141.153313
 20
104.720762
 30
0.0
  0
SPLINE
  5
141
100
AcDbEntity
  8
0
 62
7
100
AcDbSpline
 70
8
 71
3
 72
8
 73
4
 74
0
 40
0
 40
0
 40
0
 40
0
 40
1
 40
1
 40
1
 40
1
 10
141.153313
 20
104.720762
 30
0.0
 10
139.404944
 20
103.711102
 30
0.0
 10
138.328195
 20
101.845240
 30
0.0
 10
138.328813
 20
99.826277
 30
0.0
  0
SPLINE
  5
142
100
AcDbEntity
  8
0
 62
7
100
AcDbSpline
 70
8
 71
3
 72
8
 73
4
 74
0
 40
0
 40
0
 40
0
 40
0
 40
1
 40
1
 40
1
 40
1
 10
138.328813
 20
99.826277
 30
0.0
 10
138.328195
 20
97.807315
 30
0.0
 10
139.404944
 20
95.941452
 30
0.0
 10
141.153313
 20
94.931793
 30
0.0
  0
SPLINE
  5
143
100
AcDbEntity
  8
0
 62
7
100
AcDbSpline
 70
8
 71
3
 72
8
 73
4
 74
0
 40
0
 40
0
 40
0
 40
0
 40
1
 40
1
 40
1
 40
1
 10
141.153313
 20
94.931793
 30
0.0
 10
142.901683
 20
93.922133
 30
0.0
 10
145.055942
 20
93.922133
 30
0.0
 10
146.804312
 20
94.931793
 30
0.0
  0
SPLINE
  5
144
100
AcDbEntity
  8
0
 62
7
100
AcDbSpline
 70
8
 71
3
 72
8
 73
4
 74
0
 40
0
 40
0
 40
0
 40
0
 40
1
 40
1
 40
1
 40
1
 10
146.804312
 20
94.931793
 30
0.0
 10
148.552682
 20
95.941452
 30
0.0
 10
149.629430
 20
97.807315
 30
0.0
 10
149.628812
 20
99.826277
 30
0.0
  0
LWPOLYLINE
  5
145
100
AcDbEntity
  8
0
 62
7
100
AcDbPolyline
 90
1
 70
1
 10
99.628812
 20
99.826277
 30
0.0
  0
SPLINE
  5
146
100
AcDbEntity
  8
0
 62
7
100
AcDbSpline
 70
8
 71
3
 72
8
 73
4
 74
0
 40
0
 40
0
 40
0
 40
0
 40
1
 40
1
 40
1
 40
1
 10
99.628812
 20
49.826277
 30
0.0
 10
99.629430
 20
51.845239
 30
0.0
 10
98.552681
 20
53.711102
 30
0.0
 10
96.804311
 20
54.720761
 30
0.0
  0
SPLINE
  5
147
100
AcDbEntity
  8
0
 62
7
100
AcDbSpline
 70
8
 71
3
 72
8
 73
4
 74
0
 40
0
 40
0
 40
0
 40
0
 40
1
 40
1
 40
1
 40
1
 10
96.804311
 20
54.720761
 30
0.0
 10
95.055941
 20
55.730421
 30
0.0
 10
92.901683
 20
55.730421
 30
0.0
 10
91.153313
 20
54.720761
 30
0.0
  0
SPLINE
  5
148
100
AcDbEntity
  8
0
 62
7
100
AcDbSpline
 70
8
 71
3
 72
8
 73
4
 74
0
 40
0
 40
0
 40
0
 40
0
 40
1
 40
1
 40
1
 40
1
 10
91.153313
 20
54.720761
 30
0.0
 10
89.404943
 20
53.711102
 30
0.0
 10
88.328194
 20
51.845239
 30
0.0
 10
88.328812
 20
49.826277
 30
0.0
  0
SPLINE
  5
149
100
AcDbEntity
  8
0
 62
7
100
AcDbSpline
 70
8
 71
3
 72
8
 73
4
 74
0
 40
0
 40
0
 40
0
 40
0
 40
1
 40
1
 40
1
 40
1
 10
88.328812
 20
49.826277
 30
0.0
 10
88.328194
 20
47.807314
 30
0.0
 10
89.404943
 20
45.941452
 30
0.0
 10
91.153313
 20
44.931792
 30
0.0
  0
SPLINE
  5
14a
100
AcDbEntity
  8
0
 62
7
100
AcDbSpline
 70
8
 71
3
 72
8
 73
4
 74
0
 40
0
 40
0
 40
0
 40
0
 40
1
 40
1
 40
1
 40
1
 10
91.153313
 20
44.931792
 30
0.0
 10
92.901683
 20
43.922133
 30
0.0
 10
95.055941
 20
43.922133
 30
0.0
 10
96.804311
 20
44.931792
 30
0.0
  0
SPLINE
  5
14b
100
AcDbEntity
  8
0
 62
7
100
AcDbSpline
 70
8
 71
3
 72
8
 73
4
 74
0
 40
0
 40
0
 40
0
 40
0
 40
1
 40
1
 40
1
 40
1
 10
96.804311
 20
44.931792
 30
0.0
 10
98.552681
 20
45.941452
 30
0.0
 10
99.629430
 20
47.807314
 30
0.0
 10
99.628812
 20
49.826277
 30
0.0
  0
LWPOLYLINE
  5
14c
100
AcDbEntity
  8
0
 62
7
100
AcDbPolyline
 90
1
 70
1
 10
149.628812
 20
99.826277
 30
0.0
  0
SPLINE
  5
14d
100
AcDbEntity
  8
0
 62
7
100
AcDbSpline
 70
8
 71
3
 72
8
 73
4
 74
0
 40
0
 40
0
 40
0
 40
0
 40
1
 40
1
 40
1
 40
1
 10
99.628812
 20
249.826276
 30
0.0
 10
99.629430
 20
251.845239
 30
0.0
 10
98.552681
 20
253.711101
 30
0.0
 10
96.804311
 20
254.720761
 30
0.0
  0
SPLINE
  5
14e
100
AcDbEntity
  8
0
 62
7
100
AcDbSpline
 70
8
 71
3
 72
8
 73
4
 74
0
 40
0
 40
0
 40
0
 40
0
 40
1
 40
1
 40
1
 40
1
 10
96.804311
 20
254.720761
 30
0.0
 10
95.055941
 20
255.730420
 30
0.0
 10
92.901683
 20
255.730420
 30
0.0
 10
91.153313
 20
254.720761
 30
0.0
  0
SPLINE
  5
14f
100
AcDbEntity
  8
0
 62
7
100
AcDbSpline
 70
8
 71
3
 72
8
 73
4
 74
0
 40
0
 40
0
 40
0
 40
0
 40
1
 40
1
 40
1
 40
1
 10
91.153313
 20
254.720761
 30
0.0
 10
89.404943
 20
253.711101
 30
0.0
 10
88.328194
 20
251.845239
 30
0.0
 10
88.328812
 20
249.826276
 30
0.0
  0
SPLINE
  5
150
100
AcDbEntity
  8
0
 62
7
100
AcDbSpline
 70
8
 71
3
 72
8
 73
4
 74
0
 40
0
 40
0
 40
0
 40
0
 40
1
 40
1
 40
1
 40
1
 10
88.328812
 20
249.826276
 30
0.0
 10
88.328194
 20
247.807314
 30
0.0
 10
89.404943
 20
245.941451
 30
0.0
 10
91.153313
 20
244.931792
 30
0.0
  0
SPLINE
  5
151
100
AcDbEntity
  8
0
 62
7
100
AcDbSpline
 70
8
 71
3
 72
8
 73
4
 74
0
 40
0
 40
0
 40
0
 40
0
 40
1
 40
1
 40
1
 40
1
 10
91.153313
 20
244.931792
 30
0.0
 10
92.901683
 20
243.922132
 30
0.0
 10
95.055941
 20
243.922132
 30
0.0
 10
96.804311
 20
244.931792
 30
0.0
  0
SPLINE
  5
152
100
AcDbEntity
  8
0
 62
7
100
AcDbSpline
 70
8
 71
3
 72
8
 73
4
 74
0
 40
0
 40
0
 40
0
 40
0
 40
1
 40
1
 40
1
 40
1
 10
96.804311
 20
244.931792
 30
0.0
 10
98.552681
 20
245.941451
 30
0.0
 10
99.629430
 20
247.807314
 30
0.0
 10
99.628812
 20
249.826276
 30
0.0
  0
LWPOLYLINE
  5
153
100
AcDbEntity
  8
0
 62
7
100
AcDbPolyline
 90
1
 70
1
 10
99.628812
 20
49.826277
 30
0.0
  0
LWPOLYLINE
  5
154
100
AcDbEntity
  8
0
 62
7
100
AcDbPolyline
 90
1
 70
1
 10
99.628812
 20
249.826276
 30
0.0
  0
LWPOLYLINE
  5
155
100
AcDbEntity
  8
0
 62
7
100
AcDbPolyline
 90
3
 70
0
 10
183.978812
 20
149.826278
 30
0.0
 10
193.978813
 20
159.826276
 30
0.0
 10
273.978820
 20
159.826276
 30
0.0
  0
LWPOLYLINE
  5
156
100
AcDbEntity
  8
0
 62
7
100
AcDbPolyline
 90
2
 70
0
 10
183.978812
 20
149.826278
 30
0.0
 10
173.978813
 20
159.826276
 30
0.0
  0
SPLINE
  5
157
100
AcDbEntity
  8
0
 62
7
100
AcDbSpline
 70
8
 71
3
 72
8
 73
4
 74
0
 40
0
 40
0
 40
0
 40
0
 40
1
 40
1
 40
1
 40
1
 10
239.628812
 20
199.826278
 30
0.0
 10
239.629430
 20
201.845241
 30
0.0
 10
238.552681
 20
203.711103
 30
0.0
 10
236.804312
 20
204.720763
 30
0.0
  0
SPLINE
  5
158
100
AcDbEntity
  8
0
 62
7
100
AcDbSpline
 70
8
 71
3
 72
8
 73
4
 74
0
 40
0
 40
0
 40
0
 40
0
 40
1
 40
1
 40
1
 40
1
 10
236.804312
 20
204.720763
 30
0.0
 10
235.055942
 20
205.730422
 30
0.0
 10
232.901683
 20
205.730422
 30
0.0
 10
231.153313
 20
204.720763
 30
0.0
  0
SPLINE
  5
159
100
AcDbEntity
  8
0
 62
7
100
AcDbSpline
 70
8
 71
3
 72
8
 73
4
 74
0
 40
0
 40
0
 40
0
 40
0
 40
1
 40
1
 40
1
 40
1
 10
231.153313
 20
204.720763
 30
0.0
 10
229.404944
 20
203.711103
 30
0.0
 10
228.328195
 20
201.845241
 30
0.0
 10
228.328813
 20
199.826278
 30
0.0
  0
SPLINE
  5
15a
100
AcDbEntity
  8
0
 62
7
100
AcDbSpline
 70
8
 71
3
 72
8
 73
4
 74
0
 40
0
 40
0
 40
0
 40
0
 40
1
 40
1
 40
1
 40
1
 10
228.328813
 20
199.826278
 30
0.0
 10
228.328195
 20
197.807316
 30
0.0
 10
229.404944
 20
195.941453
 30
0.0
 10
231.153313
 20
194.931794
 30
0.0
  0
SPLINE
  5
15b
100
AcDbEntity
  8
0
 62
7
100
AcDbSpline
 70
8
 71
3
 72
8
 73
4
 74
0
 40
0
 40
0
 40
0
 40
0
 40
1
 40
1
 40
1
 40
1
 10
231.153313
 20
194.931794
 30
0.0
 10
232.901683
 20
193.922134
 30
0.0
 10
235.055942
 20
193.922134
 30
0.0
 10
236.804312
 20
194.931794
 30
0.0
  0
SPLINE
  5
15c
100
AcDbEntity
  8
0
 62
7
100
AcDbSpline
 70
8
 71
3
 72
8
 73
4
 74
0
 40
0
 40
0
 40
0
 40
0
 40
1
 40
1
 40
1
 40
1
 10
236.804312
 20
194.931794
 30
0.0
 10
238.552681
 20
195.941453
 30
0.0
 10
239.629430
 20
197.807316
 30
0.0
 10
239.628812
 20
199.826278
 30
0.0
  0
LWPOLYLINE
  5
15d
100
AcDbEntity
  8
0
 62
7
100
AcDbPolyline
 90
2
 70
0
 10
293.978806
 20
239.826278
 30
0.0
 10
293.978806
 20
159.826276
 30
0.0
  0
LWPOLYLINE
  5
15e
100
AcDbEntity
  8
0
 62
7
100
AcDbPolyline
 90
1
 70
1
 10
239.628812
 20
199.826278
 30
0.0
  0
LWPOLYLINE
  5
15f
100
AcDbEntity
  8
0
 62
7
100
AcDbPolyline
 90
2
 70
0
 10
283.978800
 20
149.826278
 30
0.0
 10
293.978806
 20
159.826276
 30
0.0
  0
LWPOLYLINE
  5
160
100
AcDbEntity
  8
0
 62
7
100
AcDbPolyline
 90
2
 70
0
 10
193.978813
 20
239.826278
 30
0.0
 10
193.978813
 20
159.826276
 30
0.0
  0
LWPOLYLINE
  5
161
100
AcDbEntity
  8
0
 62
7
100
AcDbPolyline
 90
2
 70
0
 10
273.978820
 20
239.826278
 30
0.0
 10
193.978813
 20
239.826278
 30
0.0
  0
LWPOLYLINE
  5
162
100
AcDbEntity
  8
0
 62
7
100
AcDbPolyline
 90
2
 70
0
 10
273.978820
 20
159.826276
 30
0.0
 10
283.978800
 20
149.826278
 30
0.0
  0
LWPOLYLINE
  5
163
100
AcDbEntity
  8
0
 62
7
100
AcDbPolyline
 90
2
 70
0
 10
293.978806
 20
139.826277
 30
0.0
 10
293.978806
 20
59.826278
 30
0.0
  0
LWPOLYLINE
  5
164
100
AcDbEntity
  8
0
 62
7
100
AcDbPolyline
 90
2
 70
0
 10
173.978813
 20
159.826276
 30
0.0
 10
173.978813
 20
239.826278
 30
0.0
  0
SPLINE
  5
165
100
AcDbEntity
  8
0
 62
7
100
AcDbSpline
 70
8
 71
3
 72
8
 73
4
 74
0
 40
0
 40
0
 40
0
 40
0
 40
1
 40
1
 40
1
 40
1
 10
189.628812
 20
199.826278
 30
0.0
 10
189.629430
 20
201.845241
 30
0.0
 10
188.552681
 20
203.711103
 30
0.0
 10
186.804311
 20
204.720763
 30
0.0
  0
SPLINE
  5
166
100
AcDbEntity
  8
0
 62
7
100
AcDbSpline
 70
8
 71
3
 72
8
 73
4
 74
0
 40
0
 40
0
 40
0
 40
0
 40
1
 40
1
 40
1
 40
1
 10
186.804311
 20
204.720763
 30
0.0
 10
185.055941
 20
205.730422
 30
0.0
 10
182.901683
 20
205.730422
 30
0.0
 10
181.153313
 20
204.720763
 30
0.0
  0
SPLINE
  5
167
100
AcDbEntity
  8
0
 62
7
100
AcDbSpline
 70
8
 71
3
 72
8
 73
4
 74
0
 40
0
 40
0
 40
0
 40
0
 40
1
 40
1
 40
1
 40
1
 10
181.153313
 20
204.720763
 30
0.0
 10
179.404943
 20
203.711103
 30
0.0
 10
178.328194
 20
201.845241
 30
0.0
 10
178.328812
 20
199.826278
 30
0.0
  0
SPLINE
  5
168
100
AcDbEntity
  8
0
 62
7
100
AcDbSpline
 70
8
 71
3
 72
8
 73
4
 74
0
 40
0
 40
0
 40
0
 40
0
 40
1
 40
1
 40
1
 40
1
 10
178.328812
 20
199.826278
 30
0.0
 10
178.328194
 20
197.807316
 30
0.0
 10
179.404943
 20
195.941453
 30
0.0
 10
181.153313
 20
194.931794
 30
0.0
  0
SPLINE
  5
169
100
AcDbEntity
  8
0
 62
7
100
AcDbSpline
 70
8
 71
3
 72
8
 73
4
 74
0
 40
0
 40
0
 40
0
 40
0
 40
1
 40
1
 40
1
 40
1
 10
181.153313
 20
194.931794
 30
0.0
 10
182.901683
 20
193.922134
 30
0.0
 10
185.055941
 20
193.922134
 30
0.0
 10
186.804311
 20
194.931794
 30
0.0
  0
SPLINE
  5
16a
100
AcDbEntity
  8
0
 62
7
100
AcDbSpline
 70
8
 71
3
 72
8
 73
4
 74
0
 40
0
 40
0
 40
0
 40
0
 40
1
 40
1
 40
1
 40
1
 10
186.804311
 20
194.931794
 30
0.0
 10
188.552681
 20
195.941453
 30
0.0
 10
189.629430
 20
197.807316
 30
0.0
 10
189.628812
 20
199.826278
 30
0.0
  0
LWPOLYLINE
  5
16b
100
AcDbEntity
  8
0
 62
7
100
AcDbPolyline
 90
2
 70
0
 10
273.978820
 20
159.826276
 30
0.0
 10
273.978820
 20
239.826278
 30
0.0
  0
LWPOLYLINE
  5
16c
100
AcDbEntity
  8
0
 62
7
100
AcDbPolyline
 90
1
 70
1
 10
189.628812
 20
199.826278
 30
0.0
  0
LWPOLYLINE
  5
16d
100
AcDbEntity
  8
0
 62
7
100
AcDbPolyline
 90
2
 70
0
 10
273.978820
 20
139.826277
 30
0.0
 10
283.978800
 20
149.826278
 30
0.0
  0
SPLINE
  5
16e
100
AcDbEntity
  8
0
 62
7
100
AcDbSpline
 70
8
 71
3
 72
8
 73
4
 74
0
 40
0
 40
0
 40
0
 40
0
 40
1
 40
1
 40
1
 40
1
 10
239.628812
 20
249.826276
 30
0.0
 10
239.629430
 20
251.845239
 30
0.0
 10
238.552681
 20
253.711101
 30
0.0
 10
236.804312
 20
254.720761
 30
0.0
  0
SPLINE
  5
16f
100
AcDbEntity
  8
0
 62
7
100
AcDbSpline
 70
8
 71
3
 72
8
 73
4
 74
0
 40
0
 40
0
 40
0
 40
0
 40
1
 40
1
 40
1
 40
1
 10
236.804312
 20
254.720761
 30
0.0
 10
235.055942
 20
255.730420
 30
0.0
 10
232.901683
 20
255.730420
 30
0.0
 10
231.153313
 20
254.720761
 30
0.0
  0
SPLINE
  5
170
100
AcDbEntity
  8
0
 62
7
100
AcDbSpline
 70
8
 71
3
 72
8
 73
4
 74
0
 40
0
 40
0
 40
0
 40
0
 40
1
 40
1
 40
1
 40
1
 10
231.153313
 20
254.720761
 30
0.0
 10
229.404944
 20
253.711101
 30
0.0
 10
228.328195
 20
251.845239
 30
0.0
 10
228.328813
 20
249.826276
 30
0.0
  0
SPLINE
  5
171
100
AcDbEntity
  8
0
 62
7
100
AcDbSpline
 70
8
 71
3
 72
8
 73
4
 74
0
 40
0
 40
0
 40
0
 40
0
 40
1
 40
1
 40
1
 40
1
 10
228.328813
 20
249.826276
 30
0.0
 10
228.328195
 20
247.807314
 30
0.0
 10
229.404944
 20
245.941451
 30
0.0
 10
231.153313
 20
244.931792
 30
0.0
  0
SPLINE
  5
172
100
AcDbEntity
  8
0
 62
7
100
AcDbSpline
 70
8
 71
3
 72
8
 73
4
 74
0
 40
0
 40
0
 40
0
 40
0
 40
1
 40
1
 40
1
 40
1
 10
231.153313
 20
244.931792
 30
0.0
 10
232.901683
 20
243.922132
 30
0.0
 10
235.055942
 20
243.922132
 30
0.0
 10
236.804312
 20
244.931792
 30
0.0
  0
SPLINE
  5
173
100
AcDbEntity
  8
0
 62
7
100
AcDbSpline
 70
8
 71
3
 72
8
 73
4
 74
0
 40
0
 40
0
 40
0
 40
0
 40
1
 40
1
 40
1
 40
1
 10
236.804312
 20
244.931792
 30
0.0
 10
238.552681
 20
245.941451
 30
0.0
 10
239.629430
 20
247.807314
 30
0.0
 10
239.628812
 20
249.826276
 30
0.0
  0
LWPOLYLINE
  5
174
100
AcDbEntity
  8
0
 62
7
100
AcDbPolyline
 90
2
 70
0
 10
283.978800
 20
249.826276
 30
0.0
 10
293.978806
 20
239.826278
 30
0.0
  0
LWPOLYLINE
  5
175
100
AcDbEntity
  8
0
 62
7
100
AcDbPolyline
 90
1
 70
1
 10
239.628812
 20
249.826276
 30
0.0
  0
LWPOLYLINE
  5
176
100
AcDbEntity
  8
0
 62
7
100
AcDbPolyline
 90
2
 70
0
 10
183.978812
 20
249.826276
 30
0.0
 10
193.978813
 20
239.826278
 30
0.0
  0
LWPOLYLINE
  5
177
100
AcDbEntity
  8
0
 62
7
100
AcDbPolyline
 90
2
 70
0
 10
193.978813
 20
139.826277
 30
0.0
 10
193.978813
 20
59.826278
 30
0.0
  0
LWPOLYLINE
  5
178
100
AcDbEntity
  8
0
 62
7
100
AcDbPolyline
 90
2
 70
0
 10
173.978813
 20
239.826278
 30
0.0
 10
183.978812
 20
249.826276
 30
0.0
  0
LWPOLYLINE
  5
179
100
AcDbEntity
  8
0
 62
7
100
AcDbPolyline
 90
2
 70
0
 10
283.978800
 20
49.826277
 30
0.0
 10
273.978820
 20
59.826278
 30
0.0
  0
LWPOLYLINE
  5
17a
100
AcDbEntity
  8
0
 62
7
100
AcDbPolyline
 90
2
 70
0
 10
283.978800
 20
149.826278
 30
0.0
 10
293.978806
 20
139.826277
 30
0.0
  0
SPLINE
  5
17b
100
AcDbEntity
  8
0
 62
7
100
AcDbSpline
 70
8
 71
3
 72
8
 73
4
 74
0
 40
0
 40
0
 40
0
 40
0
 40
1
 40
1
 40
1
 40
1
 10
239.628812
 20
149.826278
 30
0.0
 10
239.629430
 20
151.845240
 30
0.0
 10
238.552681
 20
153.711103
 30
0.0
 10
236.804312
 20
154.720762
 30
0.0
  0
SPLINE
  5
17c
100
AcDbEntity
  8
0
 62
7
100
AcDbSpline
 70
8
 71
3
 72
8
 73
4
 74
0
 40
0
 40
0
 40
0
 40
0
 40
1
 40
1
 40
1
 40
1
 10
236.804312
 20
154.720762
 30
0.0
 10
235.055942
 20
155.730422
 30
0.0
 10
232.901683
 20
155.730422
 30
0.0
 10
231.153313
 20
154.720762
 30
0.0
  0
SPLINE
  5
17d
100
AcDbEntity
  8
0
 62
7
100
AcDbSpline
 70
8
 71
3
 72
8
 73
4
 74
0
 40
0
 40
0
 40
0
 40
0
 40
1
 40
1
 40
1
 40
1
 10
231.153313
 20
154.720762
 30
0.0
 10
229.404944
 20
153.711103
 30
0.0
 10
228.328195
 20
151.845240
 30
0.0
 10
228.328813
 20
149.826278
 30
0.0
  0
SPLINE
  5
17e
100
AcDbEntity
  8
0
 62
7
100
AcDbSpline
 70
8
 71
3
 72
8
 73
4
 74
0
 40
0
 40
0
 40
0
 40
0
 40
1
 40
1
 40
1
 40
1
 10
228.328813
 20
149.826278
 30
0.0
 10
228.328195
 20
147.807315
 30
0.0
 10
229.404944
 20
145.941453
 30
0.0
 10
231.153313
 20
144.931793
 30
0.0
  0
SPLINE
  5
17f
100
AcDbEntity
  8
0
 62
7
100
AcDbSpline
 70
8
 71
3
 72
8
 73
4
 74
0
 40
0
 40
0
 40
0
 40
0
 40
1
 40
1
 40
1
 40
1
 10
231.153313
 20
144.931793
 30
0.0
 10
232.901683
 20
143.922134
 30
0.0
 10
235.055942
 20
143.922134
 30
0.0
 10
236.804312
 20
144.931793
 30
0.0
  0
SPLINE
  5
180
100
AcDbEntity
  8
0
 62
7
100
AcDbSpline
 70
8
 71
3
 72
8
 73
4
 74
0
 40
0
 40
0
 40
0
 40
0
 40
1
 40
1
 40
1
 40
1
 10
236.804312
 20
144.931793
 30
0.0
 10
238.552681
 20
145.941453
 30
0.0
 10
239.629430
 20
147.807315
 30
0.0
 10
239.628812
 20
149.826278
 30
0.0
  0
LWPOLYLINE
  5
181
100
AcDbEntity
  8
0
 62
7
100
AcDbPolyline
 90
2
 70
0
 10
193.978813
 20
259.826277
 30
0.0
 10
273.978820
 20
259.826277
 30
0.0
  0
LWPOLYLINE
  5
182
100
AcDbEntity
  8
0
 62
7
100
AcDbPolyline
 90
1
 70
1
 10
239.628812
 20
149.826278
 30
0.0
  0
LWPOLYLINE
  5
183
100
AcDbEntity
  8
0
 62
7
100
AcDbPolyline
 90
2
 70
0
 10
273.978820
 20
39.826278
 30
0.0
 10
193.978813
 20
39.826278
 30
0.0
  0
LWPOLYLINE
  5
184
100
AcDbEntity
  8
0
 62
7
100
AcDbPolyline
 90
2
 70
0
 10
273.978820
 20
239.826278
 30
0.0
 10
283.978800
 20
249.826276
 30
0.0
  0
SPLINE
  5
185
100
AcDbEntity
  8
0
 62
7
100
AcDbSpline
 70
8
 71
3
 72
8
 73
4
 74
0
 40
0
 40
0
 40
0
 40
0
 40
1
 40
1
 40
1
 40
1
 10
189.628812
 20
99.826277
 30
0.0
 10
189.629430
 20
101.845240
 30
0.0
 10
188.552681
 20
103.711102
 30
0.0
 10
186.804311
 20
104.720762
 30
0.0
  0
SPLINE
  5
186
100
AcDbEntity
  8
0
 62
7
100
AcDbSpline
 70
8
 71
3
 72
8
 73
4
 74
0
 40
0
 40
0
 40
0
 40
0
 40
1
 40
1
 40
1
 40
1
 10
186.804311
 20
104.720762
 30
0.0
 10
185.055941
 20
105.730421
 30
0.0
 10
182.901683
 20
105.730421
 30
0.0
 10
181.153313
 20
104.720762
 30
0.0
  0
SPLINE
  5
187
100
AcDbEntity
  8
0
 62
7
100
AcDbSpline
 70
8
 71
3
 72
8
 73
4
 74
0
 40
0
 40
0
 40
0
 40
0
 40
1
 40
1
 40
1
 40
1
 10
181.153313
 20
104.720762
 30
0.0
 10
179.404943
 20
103.711102
 30
0.0
 10
178.328194
 20
101.845240
 30
0.0
 10
178.328812
 20
99.826277
 30
0.0
  0
SPLINE
  5
188
100
AcDbEntity
  8
0
 62
7
100
AcDbSpline
 70
8
 71
3
 72
8
 73
4
 74
0
 40
0
 40
0
 40
0
 40
0
 40
1
 40
1
 40
1
 40
1
 10
178.328812
 20
99.826277
 30
0.0
 10
178.328194
 20
97.807315
 30
0.0
 10
179.404943
 20
95.941452
 30
0.0
 10
181.153313
 20
94.931793
 30
0.0
  0
SPLINE
  5
189
100
AcDbEntity
  8
0
 62
7
100
AcDbSpline
 70
8
 71
3
 72
8
 73
4
 74
0
 40
0
 40
0
 40
0
 40
0
 40
1
 40
1
 40
1
 40
1
 10
181.153313
 20
94.931793
 30
0.0
 10
182.901683
 20
93.922133
 30
0.0
 10
185.055941
 20
93.922133
 30
0.0
 10
186.804311
 20
94.931793
 30
0.0
  0
SPLINE
  5
18a
100
AcDbEntity
  8
0
 62
7
100
AcDbSpline
 70
8
 71
3
 72
8
 73
4
 74
0
 40
0
 40
0
 40
0
 40
0
 40
1
 40
1
 40
1
 40
1
 10
186.804311
 20
94.931793
 30
0.0
 10
188.552681
 20
95.941452
 30
0.0
 10
189.629430
 20
97.807315
 30
0.0
 10
189.628812
 20
99.826277
 30
0.0
  0
LWPOLYLINE
  5
18b
100
AcDbEntity
  8
0
 62
7
100
AcDbPolyline
 90
2
 70
0
 10
273.978820
 20
139.826277
 30
0.0
 10
193.978813
 20
139.826277
 30
0.0
  0
LWPOLYLINE
  5
18c
100
AcDbEntity
  8
0
 62
7
100
AcDbPolyline
 90
1
 70
1
 10
189.628812
 20
99.826277
 30
0.0
  0
LWPOLYLINE
  5
18d
100
AcDbEntity
  8
0
 62
7
100
AcDbPolyline
 90
2
 70
0
 10
183.978812
 20
49.826277
 30
0.0
 10
193.978813
 20
59.826278
 30
0.0
  0
LWPOLYLINE
  5
18e
100
AcDbEntity
  8
0
 62
7
100
AcDbPolyline
 90
2
 70
0
 10
273.978820
 20
259.826277
 30
0.0
 10
283.978800
 20
249.826276
 30
0.0
  0
LWPOLYLINE
  5
18f
100
AcDbEntity
  8
0
 62
7
100
AcDbPolyline
 90
2
 70
0
 10
293.978806
 20
59.826278
 30
0.0
 10
283.978800
 20
49.826277
 30
0.0
  0
SPLINE
  5
190
100
AcDbEntity
  8
0
 62
7
100
AcDbSpline
 70
8
 71
3
 72
8
 73
4
 74
0
 40
0
 40
0
 40
0
 40
0
 40
1
 40
1
 40
1
 40
1
 10
239.628812
 20
99.826277
 30
0.0
 10
239.629430
 20
101.845240
 30
0.0
 10
238.552681
 20
103.711102
 30
0.0
 10
236.804312
 20
104.720762
 30
0.0
  0
SPLINE
  5
191
100
AcDbEntity
  8
0
 62
7
100
AcDbSpline
 70
8
 71
3
 72
8
 73
4
 74
0
 40
0
 40
0
 40
0
 40
0
 40
1
 40
1
 40
1
 40
1
 10
236.804312
 20
104.720762
 30
0.0
 10
235.055942
 20
105.730421
 30
0.0
 10
232.901683
 20
105.730421
 30
0.0
 10
231.153313
 20
104.720762
 30
0.0
  0
SPLINE
  5
192
100
AcDbEntity
  8
0
 62
7
100
AcDbSpline
 70
8
 71
3
 72
8
 73
4
 74
0
 40
0
 40
0
 40
0
 40
0
 40
1
 40
1
 40
1
 40
1
 10
231.153313
 20
104.720762
 30
0.0
 10
229.404944
 20
103.711102
 30
0.0
 10
228.328195
 20
101.845240
 30
0.0
 10
228.328813
 20
99.826277
 30
0.0
  0
SPLINE
  5
193
100
AcDbEntity
  8
0
 62
7
100
AcDbSpline
 70
8
 71
3
 72
8
 73
4
 74
0
 40
0
 40
0
 40
0
 40
0
 40
1
 40
1
 40
1
 40
1
 10
228.328813
 20
99.826277
 30
0.0
 10
228.328195
 20
97.807315
 30
0.0
 10
229.404944
 20
95.941452
 30
0.0
 10
231.153313
 20
94.931793
 30
0.0
  0
SPLINE
  5
194
100
AcDbEntity
  8
0
 62
7
100
AcDbSpline
 70
8
 71
3
 72
8
 73
4
 74
0
 40
0
 40
0
 40
0
 40
0
 40
1
 40
1
 40
1
 40
1
 10
231.153313
 20
94.931793
 30
0.0
 10
232.901683
 20
93.922133
 30
0.0
 10
235.055942
 20
93.922133
 30
0.0
 10
236.804312
 20
94.931793
 30
0.0
  0
SPLINE
  5
195
100
AcDbEntity
  8
0
 62
7
100
AcDbSpline
 70
8
 71
3
 72
8
 73
4
 74
0
 40
0
 40
0
 40
0
 40
0
 40
1
 40
1
 40
1
 40
1
 10
236.804312
 20
94.931793
 30
0.0
 10
238.552681
 20
95.941452
 30
0.0
 10
239.629430
 20
97.807315
 30
0.0
 10
239.628812
 20
99.826277
 30
0.0
  0
LWPOLYLINE
  5
196
100
AcDbEntity
  8
0
 62
7
100
AcDbPolyline
 90
2
 70
0
 10
193.978813
 20
59.826278
 30
0.0
 10
273.978820
 20
59.826278
 30
0.0
  0
LWPOLYLINE
  5
197
100
AcDbEntity
  8
0
 62
7
100
AcDbPolyline
 90
1
 70
1
 10
239.628812
 20
99.826277
 30
0.0
  0
LWPOLYLINE
  5
198
100
AcDbEntity
  8
0
 62
7
100
AcDbPolyline
 90
2
 70
0
 10
173.978813
 20
59.826278
 30
0.0
 10
173.978813
 20
139.826277
 30
0.0
  0
LWPOLYLINE
  5
199
100
AcDbEntity
  8
0
 62
7
100
AcDbPolyline
 90
2
 70
0
 10
183.978812
 20
49.826277
 30
0.0
 10
193.978813
 20
39.826278
 30
0.0
  0
LWPOLYLINE
  5
19a
100
AcDbEntity
  8
0
 62
7
100
AcDbPolyline
 90
2
 70
0
 10
293.978806
 20
139.826277
 30
0.0
 10
283.978800
 20
149.826278
 30
0.0
  0
SPLINE
  5
19b
100
AcDbEntity
  8
0
 62
7
100
AcDbSpline
 70
8
 71
3
 72
8
 73
4
 74
0
 40
0
 40
0
 40
0
 40
0
 40
1
 40
1
 40
1
 40
1
 10
239.628812
 20
49.826277
 30
0.0
 10
239.629430
 20
51.845239
 30
0.0
 10
238.552681
 20
53.711102
 30
0.0
 10
236.804312
 20
54.720761
 30
0.0
  0
SPLINE
  5
19c
100
AcDbEntity
  8
0
 62
7
100
AcDbSpline
 70
8
 71
3
 72
8
 73
4
 74
0
 40
0
 40
0
 40
0
 40
0
 40
1
 40
1
 40
1
 40
1
 10
236.804312
 20
54.720761
 30
0.0
 10
235.055942
 20
55.730421
 30
0.0
 10
232.901683
 20
55.730421
 30
0.0
 10
231.153313
 20
54.720761
 30
0.0
  0
SPLINE
  5
19d
100
AcDbEntity
  8
0
 62
7
100
AcDbSpline
 70
8
 71
3
 72
8
 73
4
 74
0
 40
0
 40
0
 40
0
 40
0
 40
1
 40
1
 40
1
 40
1
 10
231.153313
 20
54.720761
 30
0.0
 10
229.404944
 20
53.711102
 30
0.0
 10
228.328195
 20
51.845239
 30
0.0
 10
228.328813
 20
49.826277
 30
0.0
  0
SPLINE
  5
19e
100
AcDbEntity
  8
0
 62
7
100
AcDbSpline
 70
8
 71
3
 72
8
 73
4
 74
0
 40
0
 40
0
 40
0
 40
0
 40
1
 40
1
 40
1
 40
1
 10
228.328813
 20
49.826277
 30
0.0
 10
228.328195
 20
47.807314
 30
0.0
 10
229.404944
 20
45.941452
 30
0.0
 10
231.153313
 20
44.931792
 30
0.0
  0
SPLINE
  5
19f
100
AcDbEntity
  8
0
 62
7
100
AcDbSpline
 70
8
 71
3
 72
8
 73
4
 74
0
 40
0
 40
0
 40
0
 40
0
 40
1
 40
1
 40
1
 40
1
 10
231.153313
 20
44.931792
 30
0.0
 10
232.901683
 20
43.922133
 30
0.0
 10
235.055942
 20
43.922133
 30
0.0
 10
236.804312
 20
44.931792
 30
0.0
  0
SPLINE
  5
1a0
100
AcDbEntity
  8
0
 62
7
100
AcDbSpline
 70
8
 71
3
 72
8
 73
4
 74
0
 40
0
 40
0
 40
0
 40
0
 40
1
 40
1
 40
1
 40
1
 10
236.804312
 20
44.931792
 30
0.0
 10
238.552681
 20
45.941452
 30
0.0
 10
239.629430
 20
47.807314
 30
0.0
 10
239.628812
 20
49.826277
 30
0.0
  0
LWPOLYLINE
  5
1a1
100
AcDbEntity
  8
0
 62
7
100
AcDbPolyline
 90
2
 70
0
 10
173.978813
 20
139.826277
 30
0.0
 10
183.978812
 20
149.826278
 30
0.0
  0
LWPOLYLINE
  5
1a2
100
AcDbEntity
  8
0
 62
7
100
AcDbPolyline
 90
1
 70
1
 10
239.628812
 20
49.826277
 30
0.0
  0
LWPOLYLINE
  5
1a3
100
AcDbEntity
  8
0
 62
7
100
AcDbPolyline
 90
2
 70
0
 10
273.978820
 20
59.826278
 30
0.0
 10
273.978820
 20
139.826277
 30
0.0
  0
LWPOLYLINE
  5
1a4
100
AcDbEntity
  8
0
 62
7
100
AcDbPolyline
 90
2
 70
0
 10
183.978812
 20
249.826276
 30
0.0
 10
193.978813
 20
259.826277
 30
0.0
  0
LWPOLYLINE
  5
1a5
100
AcDbEntity
  8
0
 62
7
100
AcDbPolyline
 90
2
 70
0
 10
193.978813
 20
139.826277
 30
0.0
 10
183.978812
 20
149.826278
 30
0.0
  0
SPLINE
  5
1a6
100
AcDbEntity
  8
0
 62
7
100
AcDbSpline
 70
8
 71
3
 72
8
 73
4
 74
0
 40
0
 40
0
 40
0
 40
0
 40
1
 40
1
 40
1
 40
1
 10
289.628818
 20
199.826278
 30
0.0
 10
289.628818
 20
201.844831
 30
0.0
 10
288.551933
 20
203.710050
 30
0.0
 10
286.803816
 20
204.719327
 30
0.0
  0
SPLINE
  5
1a7
100
AcDbEntity
  8
0
 62
7
100
AcDbSpline
 70
8
 71
3
 72
8
 73
4
 74
0
 40
0
 40
0
 40
0
 40
0
 40
1
 40
1
 40
1
 40
1
 10
286.803816
 20
204.719327
 30
0.0
 10
285.055698
 20
205.728603
 30
0.0
 10
282.901928
 20
205.728603
 30
0.0
 10
281.153810
 20
204.719327
 30
0.0
  0
SPLINE
  5
1a8
100
AcDbEntity
  8
0
 62
7
100
AcDbSpline
 70
8
 71
3
 72
8
 73
4
 74
0
 40
0
 40
0
 40
0
 40
0
 40
1
 40
1
 40
1
 40
1
 10
281.153810
 20
204.719327
 30
0.0
 10
279.405693
 20
203.710050
 30
0.0
 10
278.328808
 20
201.844831
 30
0.0
 10
278.328808
 20
199.826278
 30
0.0
  0
SPLINE
  5
1a9
100
AcDbEntity
  8
0
 62
7
100
AcDbSpline
 70
8
 71
3
 72
8
 73
4
 74
0
 40
0
 40
0
 40
0
 40
0
 40
1
 40
1
 40
1
 40
1
 10
278.328808
 20
199.826278
 30
0.0
 10
278.328808
 20
197.807726
 30
0.0
 10
279.405693
 20
195.942506
 30
0.0
 10
281.153810
 20
194.933230
 30
0.0
  0
SPLINE
  5
1aa
100
AcDbEntity
  8
0
 62
7
100
AcDbSpline
 70
8
 71
3
 72
8
 73
4
 74
0
 40
0
 40
0
 40
0
 40
0
 40
1
 40
1
 40
1
 40
1
 10
281.153810
 20
194.933230
 30
0.0
 10
282.901928
 20
193.923954
 30
0.0
 10
285.055698
 20
193.923954
 30
0.0
 10
286.803816
 20
194.933230
 30
0.0
  0
SPLINE
  5
1ab
100
AcDbEntity
  8
0
 62
7
100
AcDbSpline
 70
8
 71
3
 72
8
 73
4
 74
0
 40
0
 40
0
 40
0
 40
0
 40
1
 40
1
 40
1
 40
1
 10
286.803816
 20
194.933230
 30
0.0
 10
288.551933
 20
195.942506
 30
0.0
 10
289.628818
 20
197.807726
 30
0.0
 10
289.628818
 20
199.826278
 30
0.0
  0
LWPOLYLINE
  5
1ac
100
AcDbEntity
  8
0
 62
7
100
AcDbPolyline
 90
2
 70
0
 10
183.978812
 20
49.826277
 30
0.0
 10
173.978813
 20
59.826278
 30
0.0
  0
SPLINE
  5
1ad
100
AcDbEntity
  8
0
 62
7
100
AcDbSpline
 70
8
 71
3
 72
8
 73
4
 74
0
 40
0
 40
0
 40
0
 40
0
 40
1
 40
1
 40
1
 40
1
 10
289.628818
 20
99.826277
 30
0.0
 10
289.628818
 20
101.844830
 30
0.0
 10
288.551933
 20
103.710049
 30
0.0
 10
286.803816
 20
104.719326
 30
0.0
  0
SPLINE
  5
1ae
100
AcDbEntity
  8
0
 62
7
100
AcDbSpline
 70
8
 71
3
 72
8
 73
4
 74
0
 40
0
 40
0
 40
0
 40
0
 40
1
 40
1
 40
1
 40
1
 10
286.803816
 20
104.719326
 30
0.0
 10
285.055698
 20
105.728602
 30
0.0
 10
282.901928
 20
105.728602
 30
0.0
 10
281.153810
 20
104.719326
 30
0.0
  0
SPLINE
  5
1af
100
AcDbEntity
  8
0
 62
7
100
AcDbSpline
 70
8
 71
3
 72
8
 73
4
 74
0
 40
0
 40
0
 40
0
 40
0
 40
1
 40
1
 40
1
 40
1
 10
281.153810
 20
104.719326
 30
0.0
 10
279.405693
 20
103.710049
 30
0.0
 10
278.328808
 20
101.844830
 30
0.0
 10
278.328808
 20
99.826277
 30
0.0
  0
SPLINE
  5
1b0
100
AcDbEntity
  8
0
 62
7
100
AcDbSpline
 70
8
 71
3
 72
8
 73
4
 74
0
 40
0
 40
0
 40
0
 40
0
 40
1
 40
1
 40
1
 40
1
 10
278.328808
 20
99.826277
 30
0.0
 10
278.328808
 20
97.807725
 30
0.0
 10
279.405693
 20
95.942505
 30
0.0
 10
281.153810
 20
94.933229
 30
0.0
  0
SPLINE
  5
1b1
100
AcDbEntity
  8
0
 62
7
100
AcDbSpline
 70
8
 71
3
 72
8
 73
4
 74
0
 40
0
 40
0
 40
0
 40
0
 40
1
 40
1
 40
1
 40
1
 10
281.153810
 20
94.933229
 30
0.0
 10
282.901928
 20
93.923953
 30
0.0
 10
285.055698
 20
93.923953
 30
0.0
 10
286.803816
 20
94.933229
 30
0.0
  0
SPLINE
  5
1b2
100
AcDbEntity
  8
0
 62
7
100
AcDbSpline
 70
8
 71
3
 72
8
 73
4
 74
0
 40
0
 40
0
 40
0
 40
0
 40
1
 40
1
 40
1
 40
1
 10
286.803816
 20
94.933229
 30
0.0
 10
288.551933
 20
95.942505
 30
0.0
 10
289.628818
 20
97.807725
 30
0.0
 10
289.628818
 20
99.826277
 30
0.0
  0
LWPOLYLINE
  5
1b3
100
AcDbEntity
  8
0
 62
7
100
AcDbPolyline
 90
1
 70
1
 10
289.628818
 20
199.826278
 30
0.0
  0
LWPOLYLINE
  5
1b4
100
AcDbEntity
  8
0
 62
7
100
AcDbPolyline
 90
1
 70
1
 10
289.628818
 20
99.826277
 30
0.0
  0
LWPOLYLINE
  5
1b5
100
AcDbEntity
  8
0
 62
7
100
AcDbPolyline
 90
2
 70
0
 10
273.978820
 20
39.826278
 30
0.0
 10
283.978800
 20
49.826277
 30
0.0
  0
LWPOLYLINE
  5
1b6
100
AcDbEntity
  8
0
 62
7
100
AcDbPolyline
 90
3
 70
0
 10
323.978826
 20
149.826278
 30
0.0
 10
333.978806
 20
159.826276
 30
0.0
 10
413.978804
 20
159.826276
 30
0.0
  0
LWPOLYLINE
  5
1b7
100
AcDbEntity
  8
0
 62
7
100
AcDbPolyline
 90
2
 70
0
 10
323.978826
 20
149.826278
 30
0.0
 10
313.978819
 20
159.826276
 30
0.0
  0
SPLINE
  5
1b8
100
AcDbEntity
  8
0
 62
7
100
AcDbSpline
 70
8
 71
3
 72
8
 73
4
 74
0
 40
0
 40
0
 40
0
 40
0
 40
1
 40
1
 40
1
 40
1
 10
379.628823
 20
199.826278
 30
0.0
 10
379.628824
 20
201.844831
 30
0.0
 10
378.551939
 20
203.710050
 30
0.0
 10
376.803821
 20
204.719327
 30
0.0
  0
SPLINE
  5
1b9
100
AcDbEntity
  8
0
 62
7
100
AcDbSpline
 70
8
 71
3
 72
8
 73
4
 74
0
 40
0
 40
0
 40
0
 40
0
 40
1
 40
1
 40
1
 40
1
 10
376.803821
 20
204.719327
 30
0.0
 10
375.055703
 20
205.728603
 30
0.0
 10
372.901933
 20
205.728603
 30
0.0
 10
371.153815
 20
204.719327
 30
0.0
  0
SPLINE
  5
1ba
100
AcDbEntity
  8
0
 62
7
100
AcDbSpline
 70
8
 71
3
 72
8
 73
4
 74
0
 40
0
 40
0
 40
0
 40
0
 40
1
 40
1
 40
1
 40
1
 10
371.153815
 20
204.719327
 30
0.0
 10
369.405698
 20
203.710050
 30
0.0
 10
368.328813
 20
201.844831
 30
0.0
 10
368.328813
 20
199.826278
 30
0.0
  0
SPLINE
  5
1bb
100
AcDbEntity
  8
0
 62
7
100
AcDbSpline
 70
8
 71
3
 72
8
 73
4
 74
0
 40
0
 40
0
 40
0
 40
0
 40
1
 40
1
 40
1
 40
1
 10
368.328813
 20
199.826278
 30
0.0
 10
368.328813
 20
197.807726
 30
0.0
 10
369.405698
 20
195.942507
 30
0.0
 10
371.153816
 20
194.933230
 30
0.0
  0
SPLINE
  5
1bc
100
AcDbEntity
  8
0
 62
7
100
AcDbSpline
 70
8
 71
3
 72
8
 73
4
 74
0
 40
0
 40
0
 40
0
 40
0
 40
1
 40
1
 40
1
 40
1
 10
371.153816
 20
194.933230
 30
0.0
 10
372.901933
 20
193.923954
 30
0.0
 10
375.055703
 20
193.923954
 30
0.0
 10
376.803821
 20
194.933230
 30
0.0
  0
SPLINE
  5
1bd
100
AcDbEntity
  8
0
 62
7
100
AcDbSpline
 70
8
 71
3
 72
8
 73
4
 74
0
 40
0
 40
0
 40
0
 40
0
 40
1
 40
1
 40
1
 40
1
 10
376.803821
 20
194.933230
 30
0.0
 10
378.551938
 20
195.942507
 30
0.0
 10
379.628823
 20
197.807726
 30
0.0
 10
379.628823
 20
199.826278
 30
0.0
  0
LWPOLYLINE
  5
1be
100
AcDbEntity
  8
0
 62
7
100
AcDbPolyline
 90
2
 70
0
 10
433.978817
 20
239.826278
 30
0.0
 10
433.978817
 20
159.826276
 30
0.0
  0
LWPOLYLINE
  5
1bf
100
AcDbEntity
  8
0
 62
7
100
AcDbPolyline
 90
1
 70
1
 10
379.628823
 20
199.826278
 30
0.0
  0
LWPOLYLINE
  5
1c0
100
AcDbEntity
  8
0
 62
7
100
AcDbPolyline
 90
2
 70
0
 10
423.978811
 20
149.826278
 30
0.0
 10
433.978817
 20
159.826276
 30
0.0
  0
LWPOLYLINE
  5
1c1
100
AcDbEntity
  8
0
 62
7
100
AcDbPolyline
 90
2
 70
0
 10
333.978806
 20
239.826278
 30
0.0
 10
333.978806
 20
159.826276
 30
0.0
  0
LWPOLYLINE
  5
1c2
100
AcDbEntity
  8
0
 62
7
100
AcDbPolyline
 90
2
 70
0
 10
413.978804
 20
239.826278
 30
0.0
 10
333.978806
 20
239.826278
 30
0.0
  0
LWPOLYLINE
  5
1c3
100
AcDbEntity
  8
0
 62
7
100
AcDbPolyline
 90
2
 70
0
 10
413.978804
 20
159.826276
 30
0.0
 10
423.978811
 20
149.826278
 30
0.0
  0
LWPOLYLINE
  5
1c4
100
AcDbEntity
  8
0
 62
7
100
AcDbPolyline
 90
2
 70
0
 10
433.978817
 20
139.826277
 30
0.0
 10
433.978817
 20
59.826278
 30
0.0
  0
LWPOLYLINE
  5
1c5
100
AcDbEntity
  8
0
 62
7
100
AcDbPolyline
 90
2
 70
0
 10
313.978819
 20
159.826276
 30
0.0
 10
313.978819
 20
239.826278
 30
0.0
  0
SPLINE
  5
1c6
100
AcDbEntity
  8
0
 62
7
100
AcDbSpline
 70
8
 71
3
 72
8
 73
4
 74
0
 40
0
 40
0
 40
0
 40
0
 40
1
 40
1
 40
1
 40
1
 10
329.628818
 20
199.826278
 30
0.0
 10
329.628818
 20
201.844831
 30
0.0
 10
328.551933
 20
203.710050
 30
0.0
 10
326.803815
 20
204.719327
 30
0.0
  0
SPLINE
  5
1c7
100
AcDbEntity
  8
0
 62
7
100
AcDbSpline
 70
8
 71
3
 72
8
 73
4
 74
0
 40
0
 40
0
 40
0
 40
0
 40
1
 40
1
 40
1
 40
1
 10
326.803815
 20
204.719327
 30
0.0
 10
325.055697
 20
205.728603
 30
0.0
 10
322.901927
 20
205.728603
 30
0.0
 10
321.153810
 20
204.719327
 30
0.0
  0
SPLINE
  5
1c8
100
AcDbEntity
  8
0
 62
7
100
AcDbSpline
 70
8
 71
3
 72
8
 73
4
 74
0
 40
0
 40
0
 40
0
 40
0
 40
1
 40
1
 40
1
 40
1
 10
321.153810
 20
204.719327
 30
0.0
 10
319.405692
 20
203.710050
 30
0.0
 10
318.328807
 20
201.844831
 30
0.0
 10
318.328807
 20
199.826278
 30
0.0
  0
SPLINE
  5
1c9
100
AcDbEntity
  8
0
 62
7
100
AcDbSpline
 70
8
 71
3
 72
8
 73
4
 74
0
 40
0
 40
0
 40
0
 40
0
 40
1
 40
1
 40
1
 40
1
 10
318.328807
 20
199.826278
 30
0.0
 10
318.328807
 20
197.807726
 30
0.0
 10
319.405692
 20
195.942506
 30
0.0
 10
321.153810
 20
194.933230
 30
0.0
  0
SPLINE
  5
1ca
100
AcDbEntity
  8
0
 62
7
100
AcDbSpline
 70
8
 71
3
 72
8
 73
4
 74
0
 40
0
 40
0
 40
0
 40
0
 40
1
 40
1
 40
1
 40
1
 10
321.153810
 20
194.933230
 30
0.0
 10
322.901927
 20
193.923954
 30
0.0
 10
325.055697
 20
193.923954
 30
0.0
 10
326.803815
 20
194.933230
 30
0.0
  0
SPLINE
  5
1cb
100
AcDbEntity
  8
0
 62
7
100
AcDbSpline
 70
8
 71
3
 72
8
 73
4
 74
0
 40
0
 40
0
 40
0
 40
0
 40
1
 40
1
 40
1
 40
1
 10
326.803815
 20
194.933230
 30
0.0
 10
328.551933
 20
195.942506
 30
0.0
 10
329.628818
 20
197.807726
 30
0.0
 10
329.628818
 20
199.826278
 30
0.0
  0
LWPOLYLINE
  5
1cc
100
AcDbEntity
  8
0
 62
7
100
AcDbPolyline
 90
2
 70
0
 10
413.978804
 20
159.826276
 30
0.0
 10
413.978804
 20
239.826278
 30
0.0
  0
LWPOLYLINE
  5
1cd
100
AcDbEntity
  8
0
 62
7
100
AcDbPolyline
 90
1
 70
1
 10
329.628818
 20
199.826278
 30
0.0
  0
LWPOLYLINE
  5
1ce
100
AcDbEntity
  8
0
 62
7
100
AcDbPolyline
 90
2
 70
0
 10
413.978804
 20
139.826277
 30
0.0
 10
423.978811
 20
149.826278
 30
0.0
  0
SPLINE
  5
1cf
100
AcDbEntity
  8
0
 62
7
100
AcDbSpline
 70
8
 71
3
 72
8
 73
4
 74
0
 40
0
 40
0
 40
0
 40
0
 40
1
 40
1
 40
1
 40
1
 10
379.628823
 20
249.826276
 30
0.0
 10
379.628824
 20
251.844829
 30
0.0
 10
378.551939
 20
253.710048
 30
0.0
 10
376.803821
 20
254.719325
 30
0.0
  0
SPLINE
  5
1d0
100
AcDbEntity
  8
0
 62
7
100
AcDbSpline
 70
8
 71
3
 72
8
 73
4
 74
0
 40
0
 40
0
 40
0
 40
0
 40
1
 40
1
 40
1
 40
1
 10
376.803821
 20
254.719325
 30
0.0
 10
375.055703
 20
255.728601
 30
0.0
 10
372.901933
 20
255.728601
 30
0.0
 10
371.153815
 20
254.719325
 30
0.0
  0
SPLINE
  5
1d1
100
AcDbEntity
  8
0
 62
7
100
AcDbSpline
 70
8
 71
3
 72
8
 73
4
 74
0
 40
0
 40
0
 40
0
 40
0
 40
1
 40
1
 40
1
 40
1
 10
371.153815
 20
254.719325
 30
0.0
 10
369.405698
 20
253.710048
 30
0.0
 10
368.328813
 20
251.844829
 30
0.0
 10
368.328813
 20
249.826276
 30
0.0
  0
SPLINE
  5
1d2
100
AcDbEntity
  8
0
 62
7
100
AcDbSpline
 70
8
 71
3
 72
8
 73
4
 74
0
 40
0
 40
0
 40
0
 40
0
 40
1
 40
1
 40
1
 40
1
 10
368.328813
 20
249.826276
 30
0.0
 10
368.328813
 20
247.807724
 30
0.0
 10
369.405698
 20
245.942504
 30
0.0
 10
371.153816
 20
244.933228
 30
0.0
  0
SPLINE
  5
1d3
100
AcDbEntity
  8
0
 62
7
100
AcDbSpline
 70
8
 71
3
 72
8
 73
4
 74
0
 40
0
 40
0
 40
0
 40
0
 40
1
 40
1
 40
1
 40
1
 10
371.153816
 20
244.933228
 30
0.0
 10
372.901933
 20
243.923952
 30
0.0
 10
375.055703
 20
243.923952
 30
0.0
 10
376.803821
 20
244.933228
 30
0.0
  0
SPLINE
  5
1d4
100
AcDbEntity
  8
0
 62
7
100
AcDbSpline
 70
8
 71
3
 72
8
 73
4
 74
0
 40
0
 40
0
 40
0
 40
0
 40
1
 40
1
 40
1
 40
1
 10
376.803821
 20
244.933228
 30
0.0
 10
378.551938
 20
245.942504
 30
0.0
 10
379.628823
 20
247.807724
 30
0.0
 10
379.628823
 20
249.826276
 30
0.0
  0
LWPOLYLINE
  5
1d5
100
AcDbEntity
  8
0
 62
7
100
AcDbPolyline
 90
2
 70
0
 10
423.978811
 20
249.826276
 30
0.0
 10
433.978817
 20
239.826278
 30
0.0
  0
LWPOLYLINE
  5
1d6
100
AcDbEntity
  8
0
 62
7
100
AcDbPolyline
 90
1
 70
1
 10
379.628823
 20
249.826276
 30
0.0
  0
LWPOLYLINE
  5
1d7
100
AcDbEntity
  8
0
 62
7
100
AcDbPolyline
 90
2
 70
0
 10
323.978826
 20
249.826276
 30
0.0
 10
333.978806
 20
239.826278
 30
0.0
  0
LWPOLYLINE
  5
1d8
100
AcDbEntity
  8
0
 62
7
100
AcDbPolyline
 90
2
 70
0
 10
333.978806
 20
139.826277
 30
0.0
 10
333.978806
 20
59.826278
 30
0.0
  0
LWPOLYLINE
  5
1d9
100
AcDbEntity
  8
0
 62
7
100
AcDbPolyline
 90
2
 70
0
 10
313.978819
 20
239.826278
 30
0.0
 10
323.978826
 20
249.826276
 30
0.0
  0
LWPOLYLINE
  5
1da
100
AcDbEntity
  8
0
 62
7
100
AcDbPolyline
 90
2
 70
0
 10
423.978811
 20
49.826277
 30
0.0
 10
413.978804
 20
59.826278
 30
0.0
  0
LWPOLYLINE
  5
1db
100
AcDbEntity
  8
0
 62
7
100
AcDbPolyline
 90
2
 70
0
 10
423.978811
 20
149.826278
 30
0.0
 10
433.978817
 20
139.826277
 30
0.0
  0
SPLINE
  5
1dc
100
AcDbEntity
  8
0
 62
7
100
AcDbSpline
 70
8
 71
3
 72
8
 73
4
 74
0
 40
0
 40
0
 40
0
 40
0
 40
1
 40
1
 40
1
 40
1
 10
379.628823
 20
149.826278
 30
0.0
 10
379.628824
 20
151.844830
 30
0.0
 10
378.551939
 20
153.710050
 30
0.0
 10
376.803821
 20
154.719326
 30
0.0
  0
SPLINE
  5
1dd
100
AcDbEntity
  8
0
 62
7
100
AcDbSpline
 70
8
 71
3
 72
8
 73
4
 74
0
 40
0
 40
0
 40
0
 40
0
 40
1
 40
1
 40
1
 40
1
 10
376.803821
 20
154.719326
 30
0.0
 10
375.055703
 20
155.728603
 30
0.0
 10
372.901933
 20
155.728603
 30
0.0
 10
371.153815
 20
154.719326
 30
0.0
  0
SPLINE
  5
1de
100
AcDbEntity
  8
0
 62
7
100
AcDbSpline
 70
8
 71
3
 72
8
 73
4
 74
0
 40
0
 40
0
 40
0
 40
0
 40
1
 40
1
 40
1
 40
1
 10
371.153815
 20
154.719326
 30
0.0
 10
369.405698
 20
153.710050
 30
0.0
 10
368.328813
 20
151.844830
 30
0.0
 10
368.328813
 20
149.826278
 30
0.0
  0
SPLINE
  5
1df
100
AcDbEntity
  8
0
 62
7
100
AcDbSpline
 70
8
 71
3
 72
8
 73
4
 74
0
 40
0
 40
0
 40
0
 40
0
 40
1
 40
1
 40
1
 40
1
 10
368.328813
 20
149.826278
 30
0.0
 10
368.328813
 20
147.807725
 30
0.0
 10
369.405698
 20
145.942506
 30
0.0
 10
371.153816
 20
144.933230
 30
0.0
  0
SPLINE
  5
1e0
100
AcDbEntity
  8
0
 62
7
100
AcDbSpline
 70
8
 71
3
 72
8
 73
4
 74
0
 40
0
 40
0
 40
0
 40
0
 40
1
 40
1
 40
1
 40
1
 10
371.153816
 20
144.933230
 30
0.0
 10
372.901933
 20
143.923954
 30
0.0
 10
375.055703
 20
143.923954
 30
0.0
 10
376.803821
 20
144.933230
 30
0.0
  0
SPLINE
  5
1e1
100
AcDbEntity
  8
0
 62
7
100
AcDbSpline
 70
8
 71
3
 72
8
 73
4
 74
0
 40
0
 40
0
 40
0
 40
0
 40
1
 40
1
 40
1
 40
1
 10
376.803821
 20
144.933230
 30
0.0
 10
378.551938
 20
145.942506
 30
0.0
 10
379.628823
 20
147.807725
 30
0.0
 10
379.628823
 20
149.826278
 30
0.0
  0
LWPOLYLINE
  5
1e2
100
AcDbEntity
  8
0
 62
7
100
AcDbPolyline
 90
2
 70
0
 10
333.978806
 20
259.826277
 30
0.0
 10
413.978804
 20
259.826277
 30
0.0
  0
LWPOLYLINE
  5
1e3
100
AcDbEntity
  8
0
 62
7
100
AcDbPolyline
 90
1
 70
1
 10
379.628823
 20
149.826278
 30
0.0
  0
LWPOLYLINE
  5
1e4
100
AcDbEntity
  8
0
 62
7
100
AcDbPolyline
 90
2
 70
0
 10
413.978804
 20
39.826278
 30
0.0
 10
333.978806
 20
39.826278
 30
0.0
  0
LWPOLYLINE
  5
1e5
100
AcDbEntity
  8
0
 62
7
100
AcDbPolyline
 90
2
 70
0
 10
413.978804
 20
239.826278
 30
0.0
 10
423.978811
 20
249.826276
 30
0.0
  0
SPLINE
  5
1e6
100
AcDbEntity
  8
0
 62
7
100
AcDbSpline
 70
8
 71
3
 72
8
 73
4
 74
0
 40
0
 40
0
 40
0
 40
0
 40
1
 40
1
 40
1
 40
1
 10
329.628818
 20
99.826277
 30
0.0
 10
329.628818
 20
101.844830
 30
0.0
 10
328.551933
 20
103.710049
 30
0.0
 10
326.803815
 20
104.719326
 30
0.0
  0
SPLINE
  5
1e7
100
AcDbEntity
  8
0
 62
7
100
AcDbSpline
 70
8
 71
3
 72
8
 73
4
 74
0
 40
0
 40
0
 40
0
 40
0
 40
1
 40
1
 40
1
 40
1
 10
326.803815
 20
104.719326
 30
0.0
 10
325.055697
 20
105.728602
 30
0.0
 10
322.901927
 20
105.728602
 30
0.0
 10
321.153810
 20
104.719326
 30
0.0
  0
SPLINE
  5
1e8
100
AcDbEntity
  8
0
 62
7
100
AcDbSpline
 70
8
 71
3
 72
8
 73
4
 74
0
 40
0
 40
0
 40
0
 40
0
 40
1
 40
1
 40
1
 40
1
 10
321.153810
 20
104.719326
 30
0.0
 10
319.405692
 20
103.710049
 30
0.0
 10
318.328807
 20
101.844830
 30
0.0
 10
318.328807
 20
99.826277
 30
0.0
  0
SPLINE
  5
1e9
100
AcDbEntity
  8
0
 62
7
100
AcDbSpline
 70
8
 71
3
 72
8
 73
4
 74
0
 40
0
 40
0
 40
0
 40
0
 40
1
 40
1
 40
1
 40
1
 10
318.328807
 20
99.826277
 30
0.0
 10
318.328807
 20
97.807725
 30
0.0
 10
319.405692
 20
95.942505
 30
0.0
 10
321.153810
 20
94.933229
 30
0.0
  0
SPLINE
  5
1ea
100
AcDbEntity
  8
0
 62
7
100
AcDbSpline
 70
8
 71
3
 72
8
 73
4
 74
0
 40
0
 40
0
 40
0
 40
0
 40
1
 40
1
 40
1
 40
1
 10
321.153810
 20
94.933229
 30
0.0
 10
322.901927
 20
93.923953
 30
0.0
 10
325.055697
 20
93.923953
 30
0.0
 10
326.803815
 20
94.933229
 30
0.0
  0
SPLINE
  5
1eb
100
AcDbEntity
  8
0
 62
7
100
AcDbSpline
 70
8
 71
3
 72
8
 73
4
 74
0
 40
0
 40
0
 40
0
 40
0
 40
1
 40
1
 40
1
 40
1
 10
326.803815
 20
94.933229
 30
0.0
 10
328.551933
 20
95.942505
 30
0.0
 10
329.628818
 20
97.807725
 30
0.0
 10
329.628818
 20
99.826277
 30
0.0
  0
LWPOLYLINE
  5
1ec
100
AcDbEntity
  8
0
 62
7
100
AcDbPolyline
 90
2
 70
0
 10
413.978804
 20
139.826277
 30
0.0
 10
333.978806
 20
139.826277
 30
0.0
  0
LWPOLYLINE
  5
1ed
100
AcDbEntity
  8
0
 62
7
100
AcDbPolyline
 90
1
 70
1
 10
329.628818
 20
99.826277
 30
0.0
  0
LWPOLYLINE
  5
1ee
100
AcDbEntity
  8
0
 62
7
100
AcDbPolyline
 90
2
 70
0
 10
323.978826
 20
49.826277
 30
0.0
 10
333.978806
 20
59.826278
 30
0.0
  0
LWPOLYLINE
  5
1ef
100
AcDbEntity
  8
0
 62
7
100
AcDbPolyline
 90
2
 70
0
 10
413.978804
 20
259.826277
 30
0.0
 10
423.978811
 20
249.826276
 30
0.0
  0
LWPOLYLINE
  5
1f0
100
AcDbEntity
  8
0
 62
7
100
AcDbPolyline
 90
2
 70
0
 10
433.978817
 20
59.826278
 30
0.0
 10
423.978811
 20
49.826277
 30
0.0
  0
SPLINE
  5
1f1
100
AcDbEntity
  8
0
 62
7
100
AcDbSpline
 70
8
 71
3
 72
8
 73
4
 74
0
 40
0
 40
0
 40
0
 40
0
 40
1
 40
1
 40
1
 40
1
 10
379.628823
 20
99.826277
 30
0.0
 10
379.628824
 20
101.844830
 30
0.0
 10
378.551939
 20
103.710049
 30
0.0
 10
376.803821
 20
104.719326
 30
0.0
  0
SPLINE
  5
1f2
100
AcDbEntity
  8
0
 62
7
100
AcDbSpline
 70
8
 71
3
 72
8
 73
4
 74
0
 40
0
 40
0
 40
0
 40
0
 40
1
 40
1
 40
1
 40
1
 10
376.803821
 20
104.719326
 30
0.0
 10
375.055703
 20
105.728602
 30
0.0
 10
372.901933
 20
105.728602
 30
0.0
 10
371.153815
 20
104.719326
 30
0.0
  0
SPLINE
  5
1f3
100
AcDbEntity
  8
0
 62
7
100
AcDbSpline
 70
8
 71
3
 72
8
 73
4
 74
0
 40
0
 40
0
 40
0
 40
0
 40
1
 40
1
 40
1
 40
1
 10
371.153815
 20
104.719326
 30
0.0
 10
369.405698
 20
103.710049
 30
0.0
 10
368.328813
 20
101.844830
 30
0.0
 10
368.328813
 20
99.826277
 30
0.0
  0
SPLINE
  5
1f4
100
AcDbEntity
  8
0
 62
7
100
AcDbSpline
 70
8
 71
3
 72
8
 73
4
 74
0
 40
0
 40
0
 40
0
 40
0
 40
1
 40
1
 40
1
 40
1
 10
368.328813
 20
99.826277
 30
0.0
 10
368.328813
 20
97.807725
 30
0.0
 10
369.405698
 20
95.942505
 30
0.0
 10
371.153816
 20
94.933229
 30
0.0
  0
SPLINE
  5
1f5
100
AcDbEntity
  8
0
 62
7
100
AcDbSpline
 70
8
 71
3
 72
8
 73
4
 74
0
 40
0
 40
0
 40
0
 40
0
 40
1
 40
1
 40
1
 40
1
 10
371.153816
 20
94.933229
 30
0.0
 10
372.901933
 20
93.923953
 30
0.0
 10
375.055703
 20
93.923953
 30
0.0
 10
376.803821
 20
94.933229
 30
0.0
  0
SPLINE
  5
1f6
100
AcDbEntity
  8
0
 62
7
100
AcDbSpline
 70
8
 71
3
 72
8
 73
4
 74
0
 40
0
 40
0
 40
0
 40
0
 40
1
 40
1
 40
1
 40
1
 10
376.803821
 20
94.933229
 30
0.0
 10
378.551938
 20
95.942505
 30
0.0
 10
379.628823
 20
97.807725
 30
0.0
 10
379.628823
 20
99.826277
 30
0.0
  0
LWPOLYLINE
  5
1f7
100
AcDbEntity
  8
0
 62
7
100
AcDbPolyline
 90
2
 70
0
 10
333.978806
 20
59.826278
 30
0.0
 10
413.978804
 20
59.826278
 30
0.0
  0
LWPOLYLINE
  5
1f8
100
AcDbEntity
  8
0
 62
7
100
AcDbPolyline
 90
1
 70
1
 10
379.628823
 20
99.826277
 30
0.0
  0
LWPOLYLINE
  5
1f9
100
AcDbEntity
  8
0
 62
7
100
AcDbPolyline
 90
2
 70
0
 10
313.978819
 20
59.826278
 30
0.0
 10
313.978819
 20
139.826277
 30
0.0
  0
LWPOLYLINE
  5
1fa
100
AcDbEntity
  8
0
 62
7
100
AcDbPolyline
 90
2
 70
0
 10
323.978826
 20
49.826277
 30
0.0
 10
333.978806
 20
39.826278
 30
0.0
  0
SPLINE
  5
1fb
100
AcDbEntity
  8
0
 62
7
100
AcDbSpline
 70
8
 71
3
 72
8
 73
4
 74
0
 40
0
 40
0
 40
0
 40
0
 40
1
 40
1
 40
1
 40
1
 10
379.628823
 20
49.826277
 30
0.0
 10
379.628824
 20
51.844829
 30
0.0
 10
378.551939
 20
53.710049
 30
0.0
 10
376.803821
 20
54.719325
 30
0.0
  0
SPLINE
  5
1fc
100
AcDbEntity
  8
0
 62
7
100
AcDbSpline
 70
8
 71
3
 72
8
 73
4
 74
0
 40
0
 40
0
 40
0
 40
0
 40
1
 40
1
 40
1
 40
1
 10
376.803821
 20
54.719325
 30
0.0
 10
375.055703
 20
55.728602
 30
0.0
 10
372.901933
 20
55.728602
 30
0.0
 10
371.153815
 20
54.719325
 30
0.0
  0
SPLINE
  5
1fd
100
AcDbEntity
  8
0
 62
7
100
AcDbSpline
 70
8
 71
3
 72
8
 73
4
 74
0
 40
0
 40
0
 40
0
 40
0
 40
1
 40
1
 40
1
 40
1
 10
371.153815
 20
54.719325
 30
0.0
 10
369.405698
 20
53.710049
 30
0.0
 10
368.328813
 20
51.844829
 30
0.0
 10
368.328813
 20
49.826277
 30
0.0
  0
SPLINE
  5
1fe
100
AcDbEntity
  8
0
 62
7
100
AcDbSpline
 70
8
 71
3
 72
8
 73
4
 74
0
 40
0
 40
0
 40
0
 40
0
 40
1
 40
1
 40
1
 40
1
 10
368.328813
 20
49.826277
 30
0.0
 10
368.328813
 20
47.807724
 30
0.0
 10
369.405698
 20
45.942505
 30
0.0
 10
371.153816
 20
44.933229
 30
0.0
  0
SPLINE
  5
1ff
100
AcDbEntity
  8
0
 62
7
100
AcDbSpline
 70
8
 71
3
 72
8
 73
4
 74
0
 40
0
 40
0
 40
0
 40
0
 40
1
 40
1
 40
1
 40
1
 10
371.153816
 20
44.933229
 30
0.0
 10
372.901933
 20
43.923952
 30
0.0
 10
375.055703
 20
43.923952
 30
0.0
 10
376.803821
 20
44.933229
 30
0.0
  0
SPLINE
  5
200
100
AcDbEntity
  8
0
 62
7
100
AcDbSpline
 70
8
 71
3
 72
8
 73
4
 74
0
 40
0
 40
0
 40
0
 40
0
 40
1
 40
1
 40
1
 40
1
 10
376.803821
 20
44.933229
 30
0.0
 10
378.551938
 20
45.942505
 30
0.0
 10
379.628823
 20
47.807724
 30
0.0
 10
379.628823
 20
49.826277
 30
0.0
  0
LWPOLYLINE
  5
201
100
AcDbEntity
  8
0
 62
7
100
AcDbPolyline
 90
2
 70
0
 10
313.978819
 20
139.826277
 30
0.0
 10
323.978826
 20
149.826278
 30
0.0
  0
LWPOLYLINE
  5
202
100
AcDbEntity
  8
0
 62
7
100
AcDbPolyline
 90
1
 70
1
 10
379.628823
 20
49.826277
 30
0.0
  0
LWPOLYLINE
  5
203
100
AcDbEntity
  8
0
 62
7
100
AcDbPolyline
 90
2
 70
0
 10
413.978804
 20
59.826278
 30
0.0
 10
413.978804
 20
139.826277
 30
0.0
  0
LWPOLYLINE
  5
204
100
AcDbEntity
  8
0
 62
7
100
AcDbPolyline
 90
2
 70
0
 10
323.978826
 20
249.826276
 30
0.0
 10
333.978806
 20
259.826277
 30
0.0
  0
LWPOLYLINE
  5
205
100
AcDbEntity
  8
0
 62
7
100
AcDbPolyline
 90
2
 70
0
 10
333.978806
 20
139.826277
 30
0.0
 10
323.978826
 20
149.826278
 30
0.0
  0
SPLINE
  5
206
100
AcDbEntity
  8
0
 62
7
100
AcDbSpline
 70
8
 71
3
 72
8
 73
4
 74
0
 40
0
 40
0
 40
0
 40
0
 40
1
 40
1
 40
1
 40
1
 10
429.628803
 20
199.826278
 30
0.0
 10
429.632246
 20
201.847119
 30
0.0
 10
428.556117
 20
203.715928
 30
0.0
 10
426.806590
 20
204.727344
 30
0.0
  0
SPLINE
  5
207
100
AcDbEntity
  8
0
 62
7
100
AcDbSpline
 70
8
 71
3
 72
8
 73
4
 74
0
 40
0
 40
0
 40
0
 40
0
 40
1
 40
1
 40
1
 40
1
 10
426.806590
 20
204.727344
 30
0.0
 10
425.057062
 20
205.738760
 30
0.0
 10
422.900560
 20
205.738760
 30
0.0
 10
421.151032
 20
204.727344
 30
0.0
  0
SPLINE
  5
208
100
AcDbEntity
  8
0
 62
7
100
AcDbSpline
 70
8
 71
3
 72
8
 73
4
 74
0
 40
0
 40
0
 40
0
 40
0
 40
1
 40
1
 40
1
 40
1
 10
421.151032
 20
204.727344
 30
0.0
 10
419.401504
 20
203.715928
 30
0.0
 10
418.325376
 20
201.847119
 30
0.0
 10
418.328819
 20
199.826278
 30
0.0
  0
SPLINE
  5
209
100
AcDbEntity
  8
0
 62
7
100
AcDbSpline
 70
8
 71
3
 72
8
 73
4
 74
0
 40
0
 40
0
 40
0
 40
0
 40
1
 40
1
 40
1
 40
1
 10
418.328819
 20
199.826278
 30
0.0
 10
418.325376
 20
197.805437
 30
0.0
 10
419.401504
 20
195.936629
 30
0.0
 10
421.151032
 20
194.925213
 30
0.0
  0
SPLINE
  5
20a
100
AcDbEntity
  8
0
 62
7
100
AcDbSpline
 70
8
 71
3
 72
8
 73
4
 74
0
 40
0
 40
0
 40
0
 40
0
 40
1
 40
1
 40
1
 40
1
 10
421.151032
 20
194.925213
 30
0.0
 10
422.900560
 20
193.913797
 30
0.0
 10
425.057062
 20
193.913797
 30
0.0
 10
426.806590
 20
194.925213
 30
0.0
  0
SPLINE
  5
20b
100
AcDbEntity
  8
0
 62
7
100
AcDbSpline
 70
8
 71
3
 72
8
 73
4
 74
0
 40
0
 40
0
 40
0
 40
0
 40
1
 40
1
 40
1
 40
1
 10
426.806590
 20
194.925213
 30
0.0
 10
428.556117
 20
195.936629
 30
0.0
 10
429.632246
 20
197.805437
 30
0.0
 10
429.628803
 20
199.826278
 30
0.0
  0
LWPOLYLINE
  5
20c
100
AcDbEntity
  8
0
 62
7
100
AcDbPolyline
 90
2
 70
0
 10
323.978826
 20
49.826277
 30
0.0
 10
313.978819
 20
59.826278
 30
0.0
  0
SPLINE
  5
20d
100
AcDbEntity
  8
0
 62
7
100
AcDbSpline
 70
8
 71
3
 72
8
 73
4
 74
0
 40
0
 40
0
 40
0
 40
0
 40
1
 40
1
 40
1
 40
1
 10
429.628803
 20
99.826277
 30
0.0
 10
429.632246
 20
101.847118
 30
0.0
 10
428.556117
 20
103.715927
 30
0.0
 10
426.806590
 20
104.727343
 30
0.0
  0
SPLINE
  5
20e
100
AcDbEntity
  8
0
 62
7
100
AcDbSpline
 70
8
 71
3
 72
8
 73
4
 74
0
 40
0
 40
0
 40
0
 40
0
 40
1
 40
1
 40
1
 40
1
 10
426.806590
 20
104.727343
 30
0.0
 10
425.057062
 20
105.738758
 30
0.0
 10
422.900560
 20
105.738758
 30
0.0
 10
421.151032
 20
104.727343
 30
0.0
  0
SPLINE
  5
20f
100
AcDbEntity
  8
0
 62
7
100
AcDbSpline
 70
8
 71
3
 72
8
 73
4
 74
0
 40
0
 40
0
 40
0
 40
0
 40
1
 40
1
 40
1
 40
1
 10
421.151032
 20
104.727343
 30
0.0
 10
419.401504
 20
103.715927
 30
0.0
 10
418.325376
 20
101.847118
 30
0.0
 10
418.328819
 20
99.826277
 30
0.0
  0
SPLINE
  5
210
100
AcDbEntity
  8
0
 62
7
100
AcDbSpline
 70
8
 71
3
 72
8
 73
4
 74
0
 40
0
 40
0
 40
0
 40
0
 40
1
 40
1
 40
1
 40
1
 10
418.328819
 20
99.826277
 30
0.0
 10
418.325376
 20
97.805436
 30
0.0
 10
419.401504
 20
95.936627
 30
0.0
 10
421.151032
 20
94.925212
 30
0.0
  0
SPLINE
  5
211
100
AcDbEntity
  8
0
 62
7
100
AcDbSpline
 70
8
 71
3
 72
8
 73
4
 74
0
 40
0
 40
0
 40
0
 40
0
 40
1
 40
1
 40
1
 40
1
 10
421.151032
 20
94.925212
 30
0.0
 10
422.900560
 20
93.913796
 30
0.0
 10
425.057062
 20
93.913796
 30
0.0
 10
426.806590
 20
94.925212
 30
0.0
  0
SPLINE
  5
212
100
AcDbEntity
  8
0
 62
7
100
AcDbSpline
 70
8
 71
3
 72
8
 73
4
 74
0
 40
0
 40
0
 40
0
 40
0
 40
1
 40
1
 40
1
 40
1
 10
426.806590
 20
94.925212
 30
0.0
 10
428.556117
 20
95.936627
 30
0.0
 10
429.632246
 20
97.805436
 30
0.0
 10
429.628803
 20
99.826277
 30
0.0
  0
LWPOLYLINE
  5
213
100
AcDbEntity
  8
0
 62
7
100
AcDbPolyline
 90
1
 70
1
 10
429.628803
 20
199.826278
 30
0.0
  0
LWPOLYLINE
  5
214
100
AcDbEntity
  8
0
 62
7
100
AcDbPolyline
 90
1
 70
1
 10
429.628803
 20
99.826277
 30
0.0
  0
LWPOLYLINE
  5
215
100
AcDbEntity
  8
0
 62
7
100
AcDbPolyline
 90
2
 70
0
 10
413.978804
 20
39.826278
 30
0.0
 10
423.978811
 20
49.826277
 30
0.0
  0
LWPOLYLINE
  5
216
100
AcDbEntity
  8
0
 62
7
100
AcDbPolyline
 90
4
 70
1
 10
453.978804
 20
279.826278
 30
0.0
 10
13.978813
 20
279.826278
 30
0.0
 10
13.978813
 20
19.826268
 30
0.0
 10
453.978804
 20
19.826268
 30
0.0
  0
ENDSEC
  0
SECTION
  2
OBJECTS
  0
DICTIONARY
  5
C
330
0
100
AcDbDictionary
  3
ACAD_GROUP
350
D
  3
ACAD_MLINESTYLE
350
17
  0
DICTIONARY
  5
D
330
C
100
AcDbDictionary
  0
DICTIONARY
  5
1A
330
C
100
AcDbDictionary
  0
DICTIONARY
  5
17
330
C
100
AcDbDictionary
  3
STANDARD
350
18
  0
DICTIONARY
  5
19
330
C
100
AcDbDictionary
  0
ENDSEC
  0
EOF
