0
SECTION
2
HEADER
9
$INSUNITS
70
4
9
$ACADVER
1
AC1014
9
$HANDSEED
5
FFFF
0
ENDSEC
0
SECTION
2
TABLES
0
TABLE
2
VPORT
5
8
100
AcDbSymbolTable
0
ENDTAB
0
TABLE
2
LTYPE
5
5
100
AcDbSymbolTable
0
LTYPE
5
14
100
AcDbSymbolTableRecord
100
AcDbLinetypeTableRecord
2
BYBLOCK
70
0
0
LTYPE
5
15
100
AcDbSymbolTableRecord
100
AcDbLinetypeTableRecord
2
BYLAYER
70
0
0
ENDTAB
0
TABLE
2
LAYER
5
2
100
AcDbSymbolTable
70
2
0
LAYER
5
50
100
AcDbSymbolTableRecord
100
AcDbLayerTableRecord
2
0
70
0
6
CONTINUOUS
0
ENDTAB
0
TABLE
2
STYLE
5
3
100
AcDbSymbolTable
70
1
0
STYLE
5
11
100
AcDbSymbolTableRecord
100
AcDbTextStyleTableRecord
2
STANDARD
70
0
0
ENDTAB
0
TABLE
2
VIEW
5
6
100
AcDbSymbolTable
70
0
0
ENDTAB
0
TABLE
2
UCS
5
7
100
AcDbSymbolTable
70
0
0
ENDTAB
0
TABLE
2
APPID
5
9
100
AcDbSymbolTable
70
2
0
APPID
5
12
100
AcDbSymbolTableRecord
100
AcDbRegAppTableRecord
2
ACAD
70
0
0
ENDTAB
0
TABLE
2
DIMSTYLE
5
A
100
AcDbSymbolTable
70
1
0
ENDTAB
0
TABLE
2
BLOCK_RECORD
5
1
100
AcDbSymbolTable
70
1
0
BLOCK_RECORD
5
1F
100
AcDbSymbolTableRecord
100
AcDbBlockTableRecord
2
*MODEL_SPACE
0
BLOCK_RECORD
5
1B
100
AcDbSymbolTableRecord
100
AcDbBlockTableRecord
2
*PAPER_SPACE
0
ENDTAB
0
ENDSEC
0
SECTION
2
BLOCKS
0
BLOCK
5
20
100
AcDbEntity
100
AcDbBlockBegin
2
*MODEL_SPACE
0
ENDBLK
5
21
100
AcDbEntity
100
AcDbBlockEnd
0
BLOCK
5
1C
100
AcDbEntity
100
AcDbBlockBegin
2
*PAPER_SPACE
0
ENDBLK
5
1D
100
AcDbEntity
100
AcDbBlockEnd
0
ENDSEC
0
SECTION
2
ENTITIES
0
LINE
5
100
100
AcDbEntity
8
0
100
AcDbLine
10
0
20
0
30
0
11
-13.999999999999984
21
13.999999999999984
31
0
0
LINE
5
101
100
AcDbEntity
8
0
100
AcDbLine
10
-13.999999999999984
20
13.999999999999984
30
0
11
-13.999999999999158
21
84
31
0
0
LINE
5
102
100
AcDbEntity
8
0
100
AcDbLine
10
-13.999999999999158
20
84
30
0
11
4.2658398015093971e-13
21
98.000000000000469
31
0
0
LINE
5
103
100
AcDbEntity
8
0
100
AcDbLine
10
4.2658398015093971e-13
20
98.000000000000469
30
0
11
13.999999999999988
21
83.999999999999986
31
0
0
LINE
5
104
100
AcDbEntity
8
0
100
AcDbLine
10
13.999999999999988
20
83.999999999999986
30
0
11
13.999999999999996
21
13.999999999999977
31
0
0
LINE
5
105
100
AcDbEntity
8
0
100
AcDbLine
10
13.999999999999996
20
13.999999999999977
30
0
11
0
21
0
31
0
0
LINE
5
106
100
AcDbEntity
8
0
100
AcDbLine
10
0
20
0
30
0
11
14.000000000000185
21
-13.999999999999932
31
0
0
LINE
5
107
100
AcDbEntity
8
0
100
AcDbLine
10
14.000000000000185
20
-13.999999999999932
30
0
11
52.888888888889056
21
-13.999999999999895
31
0
0
LINE
5
108
100
AcDbEntity
8
0
100
AcDbLine
10
52.888888888889056
20
-13.999999999999895
30
0
11
66.888888888888744
21
-1.5626870682320252e-13
31
0
0
LINE
5
109
100
AcDbEntity
8
0
100
AcDbLine
10
66.888888888888744
20
-1.5626870682320252e-13
30
0
11
52.888888888888879
21
13.999999999999403
31
0
0
LINE
5
110
100
AcDbEntity
8
0
100
AcDbLine
10
52.888888888888879
20
13.999999999999403
30
0
11
13.999999999999996
21
13.999999999999977
31
0
0
LINE
5
111
100
AcDbEntity
8
0
100
AcDbLine
10
52.888888888888879
20
13.999999999999403
30
0
11
52.888888888888971
21
83.999999999999432
31
0
0
LINE
5
112
100
AcDbEntity
8
0
100
AcDbLine
10
52.888888888888971
20
83.999999999999432
30
0
11
66.888888888888815
21
97.999999999995907
31
0
0
LINE
5
113
100
AcDbEntity
8
0
100
AcDbLine
10
66.888888888888815
20
97.999999999995907
30
0
11
80.888888888886541
21
83.999999999997328
31
0
0
LINE
5
114
100
AcDbEntity
8
0
100
AcDbLine
10
80.888888888886541
20
83.999999999997328
30
0
11
80.88888888888664
21
13.999999999997305
31
0
0
LINE
5
115
100
AcDbEntity
8
0
100
AcDbLine
10
80.88888888888664
20
13.999999999997305
30
0
11
66.888888888888744
21
-1.5626870682320252e-13
31
0
0
LINE
5
116
100
AcDbEntity
8
0
100
AcDbLine
10
-25
20
97.999999999995907
30
0
11
120
21
97.999999999995907
31
0
0
LINE
5
117
100
AcDbEntity
8
0
100
AcDbLine
10
4.2658398015093971e-13
20
98.000000000000469
30
0
11
14.000000000001132
21
111.99999999999983
31
0
0
LINE
5
118
100
AcDbEntity
8
0
100
AcDbLine
10
14.000000000001132
20
111.99999999999983
30
0
11
52.888888888890115
21
111.99999999999987
31
0
0
LINE
5
119
100
AcDbEntity
8
0
100
AcDbLine
10
52.888888888890115
20
111.99999999999987
30
0
11
66.888888888888815
21
97.999999999995907
31
0
0
LINE
5
120
100
AcDbEntity
8
0
100
AcDbLine
10
52.888888888888971
20
83.999999999999432
30
0
11
13.999999999999988
21
83.999999999999986
31
0
0
LINE
5
121
100
AcDbEntity
8
0
100
AcDbLine
10
66.888888888888744
20
-10.000000000000046
30
0
11
66.888888888888914
21
219.99999999999989
31
0
0
LINE
5
122
100
AcDbEntity
8
0
100
AcDbLine
10
38.888888888888971
20
83.999999999999631
30
0
11
13.999999999999989
21
44.359328747769538
31
0
0
LINE
5
123
100
AcDbEntity
8
0
100
AcDbLine
10
28
20
13.999999999999769
30
0
11
52.888888888888928
21
53.640671252229794
31
0
0
LINE
5
124
100
AcDbEntity
8
0
100
AcDbLine
10
26.444444444444493
20
64.179664373884592
30
0
11
50.157839657388841
21
49.29091400742643
31
0
0
LINE
5
125
100
AcDbEntity
8
0
100
AcDbLine
10
-13.99999999999916
20
111.99999999999179
30
0
11
4.2658398015093971e-13
21
97.999999999991317
31
0
0
LINE
5
126
100
AcDbEntity
8
0
100
AcDbLine
10
4.2658398015093971e-13
20
97.999999999991317
30
0
11
13.999999999999988
21
111.99999999999181
31
0
0
LINE
5
127
100
AcDbEntity
8
0
100
AcDbLine
10
13.999999999999988
20
111.99999999999181
30
0
11
13.999999999999996
21
181.99999999999181
31
0
0
LINE
5
128
100
AcDbEntity
8
0
100
AcDbLine
10
-13.999999999999984
20
181.99999999999181
30
0
11
-13.99999999999916
21
111.99999999999179
31
0
0
LINE
5
129
100
AcDbEntity
8
0
100
AcDbLine
10
0
20
195.99999999999176
30
0
11
-13.999999999999984
21
181.99999999999181
31
0
0
LINE
5
130
100
AcDbEntity
8
0
100
AcDbLine
10
13.999999999999996
20
181.99999999999181
30
0
11
0
21
195.99999999999176
31
0
0
LINE
5
131
100
AcDbEntity
8
0
100
AcDbLine
10
52.888888888888879
20
181.99999999999238
30
0
11
13.999999999999996
21
181.99999999999181
31
0
0
LINE
5
132
100
AcDbEntity
8
0
100
AcDbLine
10
66.888888888888744
20
195.99999999999196
30
0
11
52.888888888888879
21
181.99999999999238
31
0
0
LINE
5
133
100
AcDbEntity
8
0
100
AcDbLine
10
52.888888888889063
20
209.9999999999917
30
0
11
66.888888888888744
21
195.99999999999196
31
0
0
LINE
5
134
100
AcDbEntity
8
0
100
AcDbLine
10
14.000000000000183
20
209.99999999999173
30
0
11
52.888888888889063
21
209.9999999999917
31
0
0
LINE
5
135
100
AcDbEntity
8
0
100
AcDbLine
10
0
20
195.99999999999176
30
0
11
14.000000000000183
21
209.99999999999173
31
0
0
LINE
5
136
100
AcDbEntity
8
0
100
AcDbLine
10
52.888888888888879
20
181.99999999999238
30
0
11
52.888888888888971
21
111.99999999999235
31
0
0
LINE
5
137
100
AcDbEntity
8
0
100
AcDbLine
10
80.888888888886555
20
111.99999999999447
30
0
11
80.88888888888664
21
181.99999999999449
31
0
0
LINE
5
138
100
AcDbEntity
8
0
100
AcDbLine
10
80.88888888888664
20
181.99999999999449
30
0
11
66.888888888888744
21
195.99999999999196
31
0
0
LINE
5
139
100
AcDbEntity
8
0
100
AcDbLine
10
28
20
181.99999999999204
30
0
11
52.888888888888928
21
142.35932874776199
31
0
0
LINE
5
140
100
AcDbEntity
8
0
100
AcDbLine
10
38.888888888888971
20
111.99999999999218
30
0
11
13.999999999999993
21
151.64067125222226
31
0
0
LINE
5
141
100
AcDbEntity
8
0
100
AcDbLine
10
26.444444444444493
20
131.82033562610718
30
0
11
50.157839657388841
21
146.70908599256538
31
0
0
LINE
5
142
100
AcDbEntity
8
0
100
AcDbLine
10
66.888888888888815
20
97.999999999995907
30
0
11
80.888888888886555
21
111.99999999999447
31
0
0
LINE
5
143
100
AcDbEntity
8
0
100
AcDbLine
10
52.888888888888971
20
111.99999999999235
30
0
11
66.888888888888815
21
97.999999999995907
31
0
0
LINE
5
144
100
AcDbEntity
8
0
100
AcDbLine
10
105.77777777777752
20
13.999999999999709
30
0
11
80.888888888888616
21
53.640671252229772
31
0
0
LINE
5
145
100
AcDbEntity
8
0
100
AcDbLine
10
133.7777777777772
20
98.000000000000384
30
0
11
119.77777777777652
21
111.99999999999977
31
0
0
LINE
5
146
100
AcDbEntity
8
0
100
AcDbLine
10
119.77777777777753
20
13.999999999999895
30
0
11
133.77777777777749
21
-8.7822395625227654e-14
31
0
0
LINE
5
147
100
AcDbEntity
8
0
100
AcDbLine
10
133.7777777777772
20
97.999999999991218
30
0
11
119.77777777777769
21
111.99999999999176
31
0
0
LINE
5
148
100
AcDbEntity
8
0
100
AcDbLine
10
80.888888888887536
20
111.99999999999986
30
0
11
66.888888888888815
21
97.999999999995907
31
0
0
LINE
5
149
100
AcDbEntity
8
0
100
AcDbLine
10
119.77777777777652
20
111.99999999999977
30
0
11
80.888888888887536
21
111.99999999999986
31
0
0
LINE
5
150
100
AcDbEntity
8
0
100
AcDbLine
10
105.77777777777774
20
181.99999999999196
30
0
11
80.888888888888758
21
142.35932874776194
31
0
0
LINE
5
151
100
AcDbEntity
8
0
100
AcDbLine
10
107.33333333333317
20
131.82033562610712
30
0
11
83.619938120388866
21
146.70908599256532
31
0
0
LINE
5
152
100
AcDbEntity
8
0
100
AcDbLine
10
80.888888888888872
20
181.99999999999233
30
0
11
119.77777777777774
21
181.99999999999167
31
0
0
LINE
5
153
100
AcDbEntity
8
0
100
AcDbLine
10
66.888888888888744
20
-1.5626870682320252e-13
30
0
11
80.888888888888616
21
13.999999999999384
31
0
0
LINE
5
154
100
AcDbEntity
8
0
100
AcDbLine
10
133.77777777777749
20
-8.7822395625227654e-14
30
0
11
147.77777777777749
21
13.99999999999986
31
0
0
LINE
5
155
100
AcDbEntity
8
0
100
AcDbLine
10
80.888888888888616
20
13.999999999999384
30
0
11
119.77777777777753
21
13.999999999999895
31
0
0
LINE
5
156
100
AcDbEntity
8
0
100
AcDbLine
10
119.77777777777726
20
-14.000000000000018
30
0
11
80.888888888888403
21
-13.999999999999915
31
0
0
LINE
5
157
100
AcDbEntity
8
0
100
AcDbLine
10
80.888888888888729
20
209.99999999999162
30
0
11
66.888888888889028
21
195.99999999999196
31
0
0
LINE
5
158
100
AcDbEntity
8
0
100
AcDbLine
10
147.77777777777678
20
83.999999999999886
30
0
11
133.7777777777772
21
98.000000000000384
31
0
0
LINE
5
159
100
AcDbEntity
8
0
100
AcDbLine
10
119.77777777777774
20
181.99999999999167
30
0
11
133.7777777777778
21
195.99999999999167
31
0
0
LINE
5
160
100
AcDbEntity
8
0
100
AcDbLine
10
133.7777777777778
20
195.99999999999167
30
0
11
119.77777777777759
21
209.99999999999159
31
0
0
LINE
5
161
100
AcDbEntity
8
0
100
AcDbLine
10
80.888888888888872
20
181.99999999999233
30
0
11
80.888888888888673
21
111.99999999999233
31
0
0
LINE
5
162
100
AcDbEntity
8
0
100
AcDbLine
10
80.88888888888863
20
83.999999999999403
30
0
11
66.888888888888815
21
97.999999999995907
31
0
0
LINE
5
163
100
AcDbEntity
8
0
100
AcDbLine
10
94.88888888888863
20
83.999999999999616
30
0
11
119.77777777777759
21
44.359328747769453
31
0
0
LINE
5
164
100
AcDbEntity
8
0
100
AcDbLine
10
80.888888888888673
20
111.99999999999233
30
0
11
66.888888888888815
21
97.999999999995907
31
0
0
LINE
5
165
100
AcDbEntity
8
0
100
AcDbLine
10
147.77777777777749
20
13.99999999999986
30
0
11
147.77777777777678
21
83.999999999999886
31
0
0
LINE
5
166
100
AcDbEntity
8
0
100
AcDbLine
10
147.77777777777774
20
181.9999999999917
30
0
11
147.77777777777683
21
111.99999999999166
31
0
0
LINE
5
167
100
AcDbEntity
8
0
100
AcDbLine
10
80.888888888888403
20
-13.999999999999915
30
0
11
66.888888888888744
21
-1.5626870682320252e-13
31
0
0
LINE
5
168
100
AcDbEntity
8
0
100
AcDbLine
10
80.88888888888863
20
83.999999999999403
30
0
11
119.77777777777762
21
83.999999999999901
31
0
0
LINE
5
169
100
AcDbEntity
8
0
100
AcDbLine
10
119.77777777777762
20
83.999999999999901
30
0
11
119.77777777777753
21
13.999999999999895
31
0
0
LINE
5
170
100
AcDbEntity
8
0
100
AcDbLine
10
80.888888888888616
20
13.999999999999384
30
0
11
80.88888888888863
21
83.999999999999403
31
0
0
LINE
5
171
100
AcDbEntity
8
0
100
AcDbLine
10
133.77777777777749
20
-8.7822395625227654e-14
30
0
11
119.77777777777726
21
-14.000000000000018
31
0
0
LINE
5
172
100
AcDbEntity
8
0
100
AcDbLine
10
147.77777777777683
20
111.99999999999166
30
0
11
133.7777777777772
21
97.999999999991218
31
0
0
LINE
5
173
100
AcDbEntity
8
0
100
AcDbLine
10
133.7777777777772
20
98.000000000000384
30
0
11
119.77777777777762
21
83.999999999999901
31
0
0
LINE
5
174
100
AcDbEntity
8
0
100
AcDbLine
10
107.33333333333312
20
64.179664373884535
30
0
11
83.619938120388724
21
49.290914007426395
31
0
0
LINE
5
175
100
AcDbEntity
8
0
100
AcDbLine
10
119.77777777777769
20
111.99999999999176
30
0
11
119.77777777777774
21
181.99999999999167
31
0
0
LINE
5
176
100
AcDbEntity
8
0
100
AcDbLine
10
133.7777777777778
20
195.99999999999167
30
0
11
147.77777777777774
21
181.9999999999917
31
0
0
LINE
5
177
100
AcDbEntity
8
0
100
AcDbLine
10
66.888888888889028
20
195.99999999999196
30
0
11
80.888888888888872
21
181.99999999999233
31
0
0
LINE
5
178
100
AcDbEntity
8
0
100
AcDbLine
10
94.888888888888687
20
111.99999999999216
30
0
11
119.77777777777771
21
151.64067125222218
31
0
0
LINE
5
179
100
AcDbEntity
8
0
100
AcDbLine
10
119.77777777777759
20
209.99999999999159
30
0
11
80.888888888888729
21
209.99999999999162
31
0
0
ENDSEC
0
SECTION
2
OBJECTS
0
DICTIONARY
5
C
100
AcDbDictionary
3
ACAD_GROUP
350
D
3
ACAD_MLINESTYLE
350
17
0
DICTIONARY
5
D
100
AcDbDictionary
0
DICTIONARY
5
1A
330
C
100
AcDbDictionary
0
DICTIONARY
5
17
100
AcDbDictionary
0
ENDSEC
0
EOF
